<svg width="272" height="90" viewBox="0 0 272 90" fill="none" xmlns="http://www.w3.org/2000/svg">
<rect x="20" y="20" width="100" height="50" rx="25" fill="#808080"/>
<path d="M60.6768 44.492H57.3168L52.0728 33.164H55.9968L57.9408 37.784L58.9008 40.292H59.0928L60.0408 37.784L61.9728 33.164H65.8968L60.6768 44.492ZM60.8448 48.5H57.1488V41.12H60.8448V48.5ZM71.1386 48.8C68.9946 48.8 67.4106 48.324 66.3866 47.372C65.3626 46.412 64.8506 45.016 64.8506 43.184V41.96C64.8506 40.152 65.3306 38.768 66.2906 37.808C67.2506 36.84 68.6466 36.356 70.4786 36.356C71.7106 36.356 72.7346 36.568 73.5506 36.992C74.3746 37.408 74.9906 38.004 75.3986 38.78C75.8146 39.556 76.0226 40.488 76.0226 41.576V41.972C76.0226 42.276 76.0066 42.588 75.9746 42.908C75.9506 43.22 75.9146 43.512 75.8666 43.784H72.5546C72.5866 43.32 72.6066 42.884 72.6146 42.476C72.6226 42.06 72.6266 41.684 72.6266 41.348C72.6266 40.86 72.5506 40.452 72.3986 40.124C72.2466 39.788 72.0106 39.532 71.6906 39.356C71.3786 39.18 70.9746 39.092 70.4786 39.092C69.7426 39.092 69.2026 39.292 68.8586 39.692C68.5226 40.084 68.3546 40.644 68.3546 41.372V42.452L68.3786 42.848V43.688C68.3786 43.992 68.4266 44.28 68.5226 44.552C68.6266 44.824 68.8026 45.064 69.0506 45.272C69.3066 45.472 69.6546 45.632 70.0946 45.752C70.5426 45.864 71.1106 45.92 71.7986 45.92C72.5266 45.92 73.2266 45.852 73.8986 45.716C74.5706 45.572 75.2146 45.38 75.8306 45.14L75.5306 47.9C74.9866 48.18 74.3426 48.4 73.5986 48.56C72.8546 48.72 72.0346 48.8 71.1386 48.8ZM75.1226 43.784H66.7946V41.516H75.1226V43.784ZM82.2795 48.788C81.3435 48.788 80.4995 48.704 79.7475 48.536C78.9955 48.376 78.3515 48.188 77.8155 47.972L77.5035 44.888C78.1195 45.144 78.7995 45.376 79.5435 45.584C80.2955 45.784 81.1075 45.884 81.9795 45.884C82.6755 45.884 83.1675 45.812 83.4555 45.668C83.7515 45.516 83.8995 45.284 83.8995 44.972V44.924C83.8995 44.708 83.8235 44.532 83.6715 44.396C83.5275 44.252 83.2715 44.124 82.9035 44.012C82.5435 43.9 82.0355 43.768 81.3795 43.616C80.3955 43.384 79.6155 43.112 79.0395 42.8C78.4635 42.48 78.0515 42.092 77.8035 41.636C77.5635 41.172 77.4435 40.624 77.4435 39.992V39.896C77.4435 38.728 77.8595 37.856 78.6915 37.28C79.5235 36.696 80.7475 36.404 82.3635 36.404C83.2755 36.404 84.0955 36.488 84.8235 36.656C85.5515 36.824 86.1635 37.024 86.6595 37.256L86.9715 40.124C86.3955 39.868 85.7515 39.656 85.0395 39.488C84.3355 39.32 83.5955 39.236 82.8195 39.236C82.3475 39.236 81.9755 39.268 81.7035 39.332C81.4395 39.396 81.2515 39.488 81.1395 39.608C81.0355 39.728 80.9835 39.876 80.9835 40.052V40.088C80.9835 40.28 81.0475 40.444 81.1755 40.58C81.3035 40.716 81.5355 40.844 81.8715 40.964C82.2155 41.084 82.7075 41.22 83.3475 41.372C84.3395 41.588 85.1395 41.836 85.7475 42.116C86.3555 42.388 86.7995 42.744 87.0795 43.184C87.3595 43.616 87.4995 44.192 87.4995 44.912V45.02C87.4995 46.292 87.0715 47.24 86.2155 47.864C85.3595 48.48 84.0475 48.788 82.2795 48.788Z" fill="white"/>
<path d="M192.677 44.492H189.317L184.073 33.164H187.997L189.941 37.784L190.901 40.292H191.093L192.041 37.784L193.973 33.164H197.897L192.677 44.492ZM192.845 48.5H189.149V41.12H192.845V48.5ZM203.139 48.8C200.995 48.8 199.411 48.324 198.387 47.372C197.363 46.412 196.851 45.016 196.851 43.184V41.96C196.851 40.152 197.331 38.768 198.291 37.808C199.251 36.84 200.647 36.356 202.479 36.356C203.711 36.356 204.735 36.568 205.551 36.992C206.375 37.408 206.991 38.004 207.399 38.78C207.815 39.556 208.023 40.488 208.023 41.576V41.972C208.023 42.276 208.007 42.588 207.975 42.908C207.951 43.22 207.915 43.512 207.867 43.784H204.555C204.587 43.32 204.607 42.884 204.615 42.476C204.623 42.06 204.627 41.684 204.627 41.348C204.627 40.86 204.551 40.452 204.399 40.124C204.247 39.788 204.011 39.532 203.691 39.356C203.379 39.18 202.975 39.092 202.479 39.092C201.743 39.092 201.203 39.292 200.859 39.692C200.523 40.084 200.355 40.644 200.355 41.372V42.452L200.379 42.848V43.688C200.379 43.992 200.427 44.28 200.523 44.552C200.627 44.824 200.803 45.064 201.051 45.272C201.307 45.472 201.655 45.632 202.095 45.752C202.543 45.864 203.111 45.92 203.799 45.92C204.527 45.92 205.227 45.852 205.899 45.716C206.571 45.572 207.215 45.38 207.831 45.14L207.531 47.9C206.987 48.18 206.343 48.4 205.599 48.56C204.855 48.72 204.035 48.8 203.139 48.8ZM207.123 43.784H198.795V41.516H207.123V43.784ZM214.279 48.788C213.343 48.788 212.499 48.704 211.747 48.536C210.995 48.376 210.351 48.188 209.815 47.972L209.503 44.888C210.119 45.144 210.799 45.376 211.543 45.584C212.295 45.784 213.107 45.884 213.979 45.884C214.675 45.884 215.167 45.812 215.455 45.668C215.751 45.516 215.899 45.284 215.899 44.972V44.924C215.899 44.708 215.823 44.532 215.671 44.396C215.527 44.252 215.271 44.124 214.903 44.012C214.543 43.9 214.035 43.768 213.379 43.616C212.395 43.384 211.615 43.112 211.039 42.8C210.463 42.48 210.051 42.092 209.803 41.636C209.563 41.172 209.443 40.624 209.443 39.992V39.896C209.443 38.728 209.859 37.856 210.691 37.28C211.523 36.696 212.747 36.404 214.363 36.404C215.275 36.404 216.095 36.488 216.823 36.656C217.551 36.824 218.163 37.024 218.659 37.256L218.971 40.124C218.395 39.868 217.751 39.656 217.039 39.488C216.335 39.32 215.595 39.236 214.819 39.236C214.347 39.236 213.975 39.268 213.703 39.332C213.439 39.396 213.251 39.488 213.139 39.608C213.035 39.728 212.983 39.876 212.983 40.052V40.088C212.983 40.28 213.047 40.444 213.175 40.58C213.303 40.716 213.535 40.844 213.871 40.964C214.215 41.084 214.707 41.22 215.347 41.372C216.339 41.588 217.139 41.836 217.747 42.116C218.355 42.388 218.799 42.744 219.079 43.184C219.359 43.616 219.499 44.192 219.499 44.912V45.02C219.499 46.292 219.071 47.24 218.215 47.864C217.359 48.48 216.047 48.788 214.279 48.788Z" fill="#154734"/>
<rect x="0.5" y="0.5" width="271" height="89" rx="4.5" stroke="#9747FF" stroke-dasharray="10 5"/>
</svg>
