<svg width="250" height="150" viewBox="0 0 250 150" fill="none" xmlns="http://www.w3.org/2000/svg">
<rect width="250" height="150" rx="50" fill="#808080"/>
<rect x="40" y="20" width="170" height="50" rx="25" fill="#333333"/>
<path d="M70.4118 55.336C68.2278 55.336 66.5998 54.76 65.5278 53.608C64.4638 52.448 63.9318 50.796 63.9318 48.652V45.928C63.9318 43.824 64.4678 42.2 65.5398 41.056C66.6118 39.904 68.2278 39.328 70.3878 39.328C70.9638 39.328 71.4958 39.372 71.9838 39.46C72.4718 39.548 72.9158 39.668 73.3158 39.82C73.7158 39.964 74.0678 40.128 74.3718 40.312L74.6478 43.528C74.1758 43.28 73.6558 43.064 73.0878 42.88C72.5278 42.688 71.8758 42.592 71.1318 42.592C69.9878 42.592 69.1398 42.9 68.5878 43.516C68.0438 44.124 67.7718 44.98 67.7718 46.084V48.508C67.7718 49.604 68.0478 50.46 68.5998 51.076C69.1598 51.692 70.0518 52 71.2758 52C71.9958 52 72.6398 51.904 73.2078 51.712C73.7758 51.52 74.2958 51.288 74.7678 51.016L74.4918 54.304C74.1878 54.488 73.8318 54.66 73.4238 54.82C73.0158 54.972 72.5598 55.096 72.0558 55.192C71.5598 55.288 71.0118 55.336 70.4118 55.336ZM81.8296 55.336C79.9256 55.336 78.4856 54.864 77.5096 53.92C76.5416 52.968 76.0576 51.632 76.0576 49.912V48.364C76.0576 46.62 76.5456 45.268 77.5216 44.308C78.4976 43.34 79.9336 42.856 81.8296 42.856C83.7256 42.856 85.1576 43.34 86.1256 44.308C87.1016 45.268 87.5896 46.62 87.5896 48.364V49.912C87.5896 51.632 87.1056 52.968 86.1376 53.92C85.1696 54.864 83.7336 55.336 81.8296 55.336ZM81.8296 52.444C82.5096 52.444 83.0256 52.24 83.3776 51.832C83.7376 51.416 83.9176 50.828 83.9176 50.068V48.208C83.9176 47.408 83.7376 46.8 83.3776 46.384C83.0256 45.968 82.5096 45.76 81.8296 45.76C81.1496 45.76 80.6296 45.968 80.2696 46.384C79.9176 46.8 79.7416 47.408 79.7416 48.208V50.068C79.7416 50.828 79.9176 51.416 80.2696 51.832C80.6296 52.24 81.1496 52.444 81.8296 52.444ZM100.871 55H97.1986V48.064C97.1986 47.632 97.1426 47.26 97.0306 46.948C96.9186 46.628 96.7306 46.384 96.4666 46.216C96.2026 46.048 95.8426 45.964 95.3866 45.964C95.0106 45.964 94.6786 46.032 94.3906 46.168C94.1026 46.296 93.8586 46.476 93.6586 46.708C93.4666 46.932 93.3226 47.188 93.2266 47.476L92.6626 45.76H93.2866C93.4146 45.224 93.6226 44.744 93.9106 44.32C94.2066 43.896 94.6106 43.56 95.1226 43.312C95.6346 43.056 96.2826 42.928 97.0666 42.928C97.9466 42.928 98.6666 43.1 99.2266 43.444C99.7866 43.78 100.199 44.284 100.463 44.956C100.735 45.628 100.871 46.468 100.871 47.476V55ZM93.2866 55H89.6146V43.204H93.2626L93.1426 46.156L93.2866 46.504V55ZM107.878 55.264C106.83 55.264 105.994 55.108 105.37 54.796C104.754 54.476 104.31 54 104.038 53.368C103.766 52.736 103.63 51.956 103.63 51.028V44.44H107.278V50.44C107.278 51.016 107.406 51.44 107.662 51.712C107.926 51.976 108.414 52.108 109.126 52.108C109.518 52.108 109.906 52.064 110.29 51.976C110.674 51.888 111.022 51.776 111.334 51.64L111.022 54.676C110.614 54.852 110.142 54.992 109.606 55.096C109.078 55.208 108.502 55.264 107.878 55.264ZM110.902 46.132H102.046V43.252H111.226L110.902 46.132ZM107.17 43.516H103.678L103.666 40.468L107.302 40.12L107.17 43.516ZM123.397 55H119.785L119.893 52.048L119.809 51.868V48.184L119.785 47.704C119.785 47.048 119.593 46.564 119.209 46.252C118.825 45.94 118.181 45.784 117.277 45.784C116.485 45.784 115.733 45.884 115.021 46.084C114.309 46.284 113.637 46.512 113.005 46.768L113.317 43.924C113.693 43.748 114.113 43.584 114.577 43.432C115.049 43.272 115.569 43.144 116.137 43.048C116.705 42.952 117.313 42.904 117.961 42.904C118.993 42.904 119.857 43.024 120.553 43.264C121.249 43.504 121.805 43.844 122.221 44.284C122.637 44.724 122.937 45.252 123.121 45.868C123.305 46.476 123.397 47.148 123.397 47.884V55ZM116.029 55.276C114.853 55.276 113.961 54.98 113.353 54.388C112.745 53.796 112.441 52.952 112.441 51.856V51.532C112.441 50.372 112.797 49.516 113.509 48.964C114.229 48.404 115.369 48.024 116.929 47.824L120.097 47.404L120.313 49.612L117.505 50.02C116.937 50.092 116.537 50.224 116.305 50.416C116.073 50.608 115.957 50.892 115.957 51.268V51.352C115.957 51.712 116.073 52 116.305 52.216C116.537 52.424 116.909 52.528 117.421 52.528C117.869 52.528 118.253 52.46 118.573 52.324C118.901 52.188 119.169 52.012 119.377 51.796C119.585 51.572 119.741 51.324 119.845 51.052L120.361 52.54H119.761C119.633 53.052 119.433 53.516 119.161 53.932C118.897 54.348 118.513 54.676 118.009 54.916C117.505 55.156 116.845 55.276 116.029 55.276ZM130.75 55.312C128.878 55.312 127.49 54.82 126.586 53.836C125.682 52.852 125.229 51.468 125.229 49.684V48.46C125.229 46.708 125.682 45.34 126.586 44.356C127.49 43.372 128.874 42.88 130.738 42.88C131.218 42.88 131.666 42.916 132.082 42.988C132.498 43.052 132.882 43.144 133.234 43.264C133.586 43.384 133.894 43.512 134.158 43.648L134.458 46.684C134.066 46.46 133.634 46.276 133.162 46.132C132.69 45.98 132.158 45.904 131.566 45.904C130.638 45.904 129.966 46.128 129.55 46.576C129.134 47.024 128.926 47.672 128.926 48.52V49.54C128.926 50.404 129.146 51.068 129.586 51.532C130.026 51.996 130.714 52.228 131.65 52.228C132.234 52.228 132.758 52.16 133.222 52.024C133.694 51.88 134.142 51.696 134.566 51.472L134.278 54.52C133.862 54.744 133.35 54.932 132.742 55.084C132.134 55.236 131.47 55.312 130.75 55.312ZM141.299 55.264C140.251 55.264 139.415 55.108 138.791 54.796C138.175 54.476 137.731 54 137.459 53.368C137.187 52.736 137.051 51.956 137.051 51.028V44.44H140.699V50.44C140.699 51.016 140.827 51.44 141.083 51.712C141.347 51.976 141.835 52.108 142.547 52.108C142.939 52.108 143.327 52.064 143.711 51.976C144.095 51.888 144.443 51.776 144.755 51.64L144.443 54.676C144.035 54.852 143.563 54.992 143.027 55.096C142.499 55.208 141.923 55.264 141.299 55.264ZM144.323 46.132H135.467V43.252H144.647L144.323 46.132ZM140.591 43.516H137.099L137.087 40.468L140.723 40.12L140.591 43.516ZM158.671 55H154.915V40.384H158.671V55ZM162.895 42.796H150.679V39.664H162.895V42.796ZM165.748 55H161.956L166.348 39.664H171.988L176.356 55H172.564L169.312 42.136H169.036L165.748 55ZM172.6 51.388H165.688V48.472H172.6V51.388ZM180.466 49.828L178.786 50.128V46.996L179.938 46.768C180.602 46.64 181.118 46.476 181.486 46.276C181.862 46.076 182.13 45.832 182.29 45.544C182.45 45.256 182.53 44.92 182.53 44.536V44.236C182.53 43.652 182.354 43.212 182.002 42.916C181.65 42.62 181.05 42.472 180.202 42.472C179.522 42.472 178.854 42.552 178.198 42.712C177.542 42.864 176.902 43.064 176.278 43.312L176.686 40.204C176.99 40.06 177.358 39.924 177.79 39.796C178.222 39.668 178.706 39.564 179.242 39.484C179.778 39.396 180.346 39.352 180.946 39.352C182.746 39.352 184.086 39.744 184.966 40.528C185.846 41.312 186.286 42.448 186.286 43.936V44.428C186.286 45.516 186.066 46.42 185.626 47.14C185.194 47.86 184.546 48.432 183.682 48.856C182.818 49.28 181.746 49.604 180.466 49.828ZM180.202 55.324C179.53 55.324 179.034 55.148 178.714 54.796C178.394 54.444 178.234 53.96 178.234 53.344V53.212C178.234 52.596 178.394 52.112 178.714 51.76C179.034 51.408 179.53 51.232 180.202 51.232C180.874 51.232 181.37 51.408 181.69 51.76C182.018 52.112 182.182 52.596 182.182 53.212V53.344C182.182 53.96 182.018 54.444 181.69 54.796C181.37 55.148 180.874 55.324 180.202 55.324Z" fill="#D9D9D9"/>
<rect x="20" y="80" width="100" height="50" rx="25" fill="#154734"/>
<path d="M60.6768 104.492H57.3168L52.0728 93.164H55.9968L57.9408 97.784L58.9008 100.292H59.0928L60.0408 97.784L61.9728 93.164H65.8968L60.6768 104.492ZM60.8448 108.5H57.1488V101.12H60.8448V108.5ZM71.1386 108.8C68.9946 108.8 67.4106 108.324 66.3866 107.372C65.3626 106.412 64.8506 105.016 64.8506 103.184V101.96C64.8506 100.152 65.3306 98.768 66.2906 97.808C67.2506 96.84 68.6466 96.356 70.4786 96.356C71.7106 96.356 72.7346 96.568 73.5506 96.992C74.3746 97.408 74.9906 98.004 75.3986 98.78C75.8146 99.556 76.0226 100.488 76.0226 101.576V101.972C76.0226 102.276 76.0066 102.588 75.9746 102.908C75.9506 103.22 75.9146 103.512 75.8666 103.784H72.5546C72.5866 103.32 72.6066 102.884 72.6146 102.476C72.6226 102.06 72.6266 101.684 72.6266 101.348C72.6266 100.86 72.5506 100.452 72.3986 100.124C72.2466 99.788 72.0106 99.532 71.6906 99.356C71.3786 99.18 70.9746 99.092 70.4786 99.092C69.7426 99.092 69.2026 99.292 68.8586 99.692C68.5226 100.084 68.3546 100.644 68.3546 101.372V102.452L68.3786 102.848V103.688C68.3786 103.992 68.4266 104.28 68.5226 104.552C68.6266 104.824 68.8026 105.064 69.0506 105.272C69.3066 105.472 69.6546 105.632 70.0946 105.752C70.5426 105.864 71.1106 105.92 71.7986 105.92C72.5266 105.92 73.2266 105.852 73.8986 105.716C74.5706 105.572 75.2146 105.38 75.8306 105.14L75.5306 107.9C74.9866 108.18 74.3426 108.4 73.5986 108.56C72.8546 108.72 72.0346 108.8 71.1386 108.8ZM75.1226 103.784H66.7946V101.516H75.1226V103.784ZM82.2795 108.788C81.3435 108.788 80.4995 108.704 79.7475 108.536C78.9955 108.376 78.3515 108.188 77.8155 107.972L77.5035 104.888C78.1195 105.144 78.7995 105.376 79.5435 105.584C80.2955 105.784 81.1075 105.884 81.9795 105.884C82.6755 105.884 83.1675 105.812 83.4555 105.668C83.7515 105.516 83.8995 105.284 83.8995 104.972V104.924C83.8995 104.708 83.8235 104.532 83.6715 104.396C83.5275 104.252 83.2715 104.124 82.9035 104.012C82.5435 103.9 82.0355 103.768 81.3795 103.616C80.3955 103.384 79.6155 103.112 79.0395 102.8C78.4635 102.48 78.0515 102.092 77.8035 101.636C77.5635 101.172 77.4435 100.624 77.4435 99.992V99.896C77.4435 98.728 77.8595 97.856 78.6915 97.28C79.5235 96.696 80.7475 96.404 82.3635 96.404C83.2755 96.404 84.0955 96.488 84.8235 96.656C85.5515 96.824 86.1635 97.024 86.6595 97.256L86.9715 100.124C86.3955 99.868 85.7515 99.656 85.0395 99.488C84.3355 99.32 83.5955 99.236 82.8195 99.236C82.3475 99.236 81.9755 99.268 81.7035 99.332C81.4395 99.396 81.2515 99.488 81.1395 99.608C81.0355 99.728 80.9835 99.876 80.9835 100.052V100.088C80.9835 100.28 81.0475 100.444 81.1755 100.58C81.3035 100.716 81.5355 100.844 81.8715 100.964C82.2155 101.084 82.7075 101.22 83.3475 101.372C84.3395 101.588 85.1395 101.836 85.7475 102.116C86.3555 102.388 86.7995 102.744 87.0795 103.184C87.3595 103.616 87.4995 104.192 87.4995 104.912V105.02C87.4995 106.292 87.0715 107.24 86.2155 107.864C85.3595 108.48 84.0475 108.788 82.2795 108.788Z" fill="#E87500"/>
<rect x="130" y="80" width="100" height="50" rx="25" fill="#154734"/>
<path d="M167.001 93.152H172.173L176.325 104.408H176.493L176.325 97.928V93.152H179.901V108.5H174.873L170.565 96.992H170.409L170.577 103.616V108.5H167.001V93.152ZM187.83 108.836C185.926 108.836 184.486 108.364 183.51 107.42C182.542 106.468 182.058 105.132 182.058 103.412V101.864C182.058 100.12 182.546 98.768 183.522 97.808C184.498 96.84 185.934 96.356 187.83 96.356C189.726 96.356 191.158 96.84 192.126 97.808C193.102 98.768 193.59 100.12 193.59 101.864V103.412C193.59 105.132 193.106 106.468 192.138 107.42C191.17 108.364 189.734 108.836 187.83 108.836ZM187.83 105.944C188.51 105.944 189.026 105.74 189.378 105.332C189.738 104.916 189.918 104.328 189.918 103.568V101.708C189.918 100.908 189.738 100.3 189.378 99.884C189.026 99.468 188.51 99.26 187.83 99.26C187.15 99.26 186.63 99.468 186.27 99.884C185.918 100.3 185.742 100.908 185.742 101.708V103.568C185.742 104.328 185.918 104.916 186.27 105.332C186.63 105.74 187.15 105.944 187.83 105.944Z" fill="#E87500"/>
</svg>
