<svg width="190" height="190" viewBox="0 0 190 190" fill="none" xmlns="http://www.w3.org/2000/svg">
<path d="M0 0H190V165C190 178.807 178.807 190 165 190H0V0Z" fill="#808080"/>
<rect x="10" y="10" width="170" height="50" rx="25" fill="#333333"/>
<path d="M66.0993 45.336C63.9153 45.336 62.2873 44.76 61.2153 43.608C60.1513 42.448 59.6193 40.796 59.6193 38.652V35.928C59.6193 33.824 60.1553 32.2 61.2273 31.056C62.2993 29.904 63.9153 29.328 66.0753 29.328C66.6513 29.328 67.1833 29.372 67.6713 29.46C68.1593 29.548 68.6033 29.668 69.0033 29.82C69.4033 29.964 69.7553 30.128 70.0593 30.312L70.3353 33.528C69.8633 33.28 69.3433 33.064 68.7753 32.88C68.2153 32.688 67.5633 32.592 66.8193 32.592C65.6753 32.592 64.8273 32.9 64.2753 33.516C63.7313 34.124 63.4593 34.98 63.4593 36.084V38.508C63.4593 39.604 63.7353 40.46 64.2873 41.076C64.8473 41.692 65.7393 42 66.9633 42C67.6833 42 68.3273 41.904 68.8953 41.712C69.4633 41.52 69.9833 41.288 70.4553 41.016L70.1793 44.304C69.8753 44.488 69.5193 44.66 69.1113 44.82C68.7033 44.972 68.2473 45.096 67.7433 45.192C67.2473 45.288 66.6993 45.336 66.0993 45.336ZM77.5171 45.336C75.6131 45.336 74.1731 44.864 73.1971 43.92C72.2291 42.968 71.7451 41.632 71.7451 39.912V38.364C71.7451 36.62 72.2331 35.268 73.2091 34.308C74.1851 33.34 75.6211 32.856 77.5171 32.856C79.4131 32.856 80.8451 33.34 81.8131 34.308C82.7891 35.268 83.2771 36.62 83.2771 38.364V39.912C83.2771 41.632 82.7931 42.968 81.8251 43.92C80.8571 44.864 79.4211 45.336 77.5171 45.336ZM77.5171 42.444C78.1971 42.444 78.7131 42.24 79.0651 41.832C79.4251 41.416 79.6051 40.828 79.6051 40.068V38.208C79.6051 37.408 79.4251 36.8 79.0651 36.384C78.7131 35.968 78.1971 35.76 77.5171 35.76C76.8371 35.76 76.3171 35.968 75.9571 36.384C75.6051 36.8 75.4291 37.408 75.4291 38.208V40.068C75.4291 40.828 75.6051 41.416 75.9571 41.832C76.3171 42.24 76.8371 42.444 77.5171 42.444ZM85.1941 33.204H88.8661V40.14C88.8661 40.572 88.9221 40.948 89.0341 41.268C89.1461 41.58 89.3341 41.824 89.5981 42C89.8621 42.168 90.2221 42.252 90.6781 42.252C91.0621 42.252 91.3941 42.184 91.6741 42.048C91.9621 41.912 92.2021 41.728 92.3941 41.496C92.5941 41.264 92.7421 41.008 92.8381 40.728L93.4021 42.444H92.7781C92.6501 42.972 92.4381 43.452 92.1421 43.884C91.8541 44.316 91.4541 44.656 90.9421 44.904C90.4381 45.152 89.7901 45.276 88.9981 45.276C88.1261 45.276 87.4061 45.108 86.8381 44.772C86.2781 44.428 85.8621 43.92 85.5901 43.248C85.3261 42.576 85.1941 41.736 85.1941 40.728V33.204ZM92.7781 33.204H96.4501V45H92.8021L92.9221 42.048L92.7781 41.712V33.204ZM102.496 38.376L101.488 36.144H102.352C102.544 35.168 102.916 34.404 103.468 33.852C104.028 33.292 104.816 33.012 105.832 33.012C106.008 33.012 106.168 33.024 106.312 33.048C106.464 33.072 106.608 33.1 106.744 33.132L106.924 36.84C106.756 36.792 106.56 36.76 106.336 36.744C106.112 36.72 105.884 36.708 105.652 36.708C104.868 36.708 104.208 36.856 103.672 37.152C103.136 37.44 102.744 37.848 102.496 38.376ZM102.568 45H98.8959V33.204H102.352L102.196 36.972L102.568 37.02V45ZM112.846 45.288C111.91 45.288 111.066 45.204 110.314 45.036C109.562 44.876 108.918 44.688 108.382 44.472L108.07 41.388C108.686 41.644 109.366 41.876 110.11 42.084C110.862 42.284 111.674 42.384 112.546 42.384C113.242 42.384 113.734 42.312 114.022 42.168C114.318 42.016 114.466 41.784 114.466 41.472V41.424C114.466 41.208 114.39 41.032 114.238 40.896C114.094 40.752 113.838 40.624 113.47 40.512C113.11 40.4 112.602 40.268 111.946 40.116C110.962 39.884 110.182 39.612 109.606 39.3C109.03 38.98 108.618 38.592 108.37 38.136C108.13 37.672 108.01 37.124 108.01 36.492V36.396C108.01 35.228 108.426 34.356 109.258 33.78C110.09 33.196 111.314 32.904 112.93 32.904C113.842 32.904 114.662 32.988 115.39 33.156C116.118 33.324 116.73 33.524 117.226 33.756L117.538 36.624C116.962 36.368 116.318 36.156 115.606 35.988C114.902 35.82 114.162 35.736 113.386 35.736C112.914 35.736 112.542 35.768 112.27 35.832C112.006 35.896 111.818 35.988 111.706 36.108C111.602 36.228 111.55 36.376 111.55 36.552V36.588C111.55 36.78 111.614 36.944 111.742 37.08C111.87 37.216 112.102 37.344 112.438 37.464C112.782 37.584 113.274 37.72 113.914 37.872C114.906 38.088 115.706 38.336 116.314 38.616C116.922 38.888 117.366 39.244 117.646 39.684C117.926 40.116 118.066 40.692 118.066 41.412V41.52C118.066 42.792 117.638 43.74 116.782 44.364C115.926 44.98 114.614 45.288 112.846 45.288ZM125.658 45.3C123.514 45.3 121.93 44.824 120.906 43.872C119.882 42.912 119.37 41.516 119.37 39.684V38.46C119.37 36.652 119.85 35.268 120.81 34.308C121.77 33.34 123.166 32.856 124.998 32.856C126.23 32.856 127.254 33.068 128.07 33.492C128.894 33.908 129.51 34.504 129.918 35.28C130.334 36.056 130.542 36.988 130.542 38.076V38.472C130.542 38.776 130.526 39.088 130.494 39.408C130.47 39.72 130.434 40.012 130.386 40.284H127.074C127.106 39.82 127.126 39.384 127.134 38.976C127.142 38.56 127.146 38.184 127.146 37.848C127.146 37.36 127.07 36.952 126.918 36.624C126.766 36.288 126.53 36.032 126.21 35.856C125.898 35.68 125.494 35.592 124.998 35.592C124.262 35.592 123.722 35.792 123.378 36.192C123.042 36.584 122.874 37.144 122.874 37.872V38.952L122.898 39.348V40.188C122.898 40.492 122.946 40.78 123.042 41.052C123.146 41.324 123.322 41.564 123.57 41.772C123.826 41.972 124.174 42.132 124.614 42.252C125.062 42.364 125.63 42.42 126.318 42.42C127.046 42.42 127.746 42.352 128.418 42.216C129.09 42.072 129.734 41.88 130.35 41.64L130.05 44.4C129.506 44.68 128.862 44.9 128.118 45.06C127.374 45.22 126.554 45.3 125.658 45.3ZM129.642 40.284H121.314V38.016H129.642V40.284Z" fill="#D9D9D9"/>
<rect x="10" y="70" width="170" height="50" rx="25" fill="#154734"/>
<path d="M56.906 98.824C56.194 98.824 55.526 98.776 54.902 98.68C54.286 98.592 53.722 98.476 53.21 98.332C52.706 98.18 52.262 98.024 51.878 97.864L51.554 94.408C52.186 94.704 52.934 94.98 53.798 95.236C54.662 95.484 55.578 95.608 56.546 95.608C57.482 95.608 58.146 95.492 58.538 95.26C58.938 95.02 59.138 94.648 59.138 94.144V94.06C59.138 93.724 59.046 93.452 58.862 93.244C58.686 93.028 58.386 92.832 57.962 92.656C57.546 92.472 56.982 92.276 56.27 92.068C55.198 91.748 54.302 91.392 53.582 91C52.87 90.608 52.338 90.12 51.986 89.536C51.634 88.944 51.458 88.196 51.458 87.292V87.136C51.458 85.744 51.93 84.68 52.874 83.944C53.826 83.208 55.222 82.84 57.062 82.84C58.166 82.84 59.118 82.936 59.918 83.128C60.726 83.32 61.41 83.548 61.97 83.812L62.294 87.028C61.678 86.732 60.978 86.484 60.194 86.284C59.418 86.076 58.586 85.972 57.698 85.972C57.074 85.972 56.582 86.024 56.222 86.128C55.87 86.232 55.622 86.384 55.478 86.584C55.334 86.776 55.262 87.012 55.262 87.292V87.34C55.262 87.628 55.342 87.88 55.502 88.096C55.67 88.312 55.966 88.52 56.39 88.72C56.822 88.92 57.434 89.136 58.226 89.368C59.29 89.68 60.17 90.016 60.866 90.376C61.57 90.728 62.094 91.188 62.438 91.756C62.79 92.316 62.966 93.064 62.966 94V94.192C62.966 95.736 62.466 96.896 61.466 97.672C60.466 98.44 58.946 98.824 56.906 98.824ZM69.3136 95.56H71.2336L69.2656 96.412L71.9176 86.704H75.6736L70.8616 102.628H67.1896L69.0256 96.628L70.7536 97.996H66.6856L63.4936 86.704H67.2736L69.3136 95.56ZM80.8064 98.5H77.1344V82.648H80.8064V98.5ZM86.9939 98.5H83.3219V82.648H86.9939V98.5ZM99.8186 98.5H96.2066L96.3146 95.548L96.2306 95.368V91.684L96.2066 91.204C96.2066 90.548 96.0146 90.064 95.6306 89.752C95.2466 89.44 94.6026 89.284 93.6986 89.284C92.9066 89.284 92.1546 89.384 91.4426 89.584C90.7306 89.784 90.0586 90.012 89.4266 90.268L89.7386 87.424C90.1146 87.248 90.5346 87.084 90.9986 86.932C91.4706 86.772 91.9906 86.644 92.5586 86.548C93.1266 86.452 93.7346 86.404 94.3826 86.404C95.4146 86.404 96.2786 86.524 96.9746 86.764C97.6706 87.004 98.2266 87.344 98.6426 87.784C99.0586 88.224 99.3586 88.752 99.5426 89.368C99.7266 89.976 99.8186 90.648 99.8186 91.384V98.5ZM92.4506 98.776C91.2746 98.776 90.3826 98.48 89.7746 97.888C89.1666 97.296 88.8626 96.452 88.8626 95.356V95.032C88.8626 93.872 89.2186 93.016 89.9306 92.464C90.6506 91.904 91.7906 91.524 93.3506 91.324L96.5186 90.904L96.7346 93.112L93.9266 93.52C93.3586 93.592 92.9586 93.724 92.7266 93.916C92.4946 94.108 92.3786 94.392 92.3786 94.768V94.852C92.3786 95.212 92.4946 95.5 92.7266 95.716C92.9586 95.924 93.3306 96.028 93.8426 96.028C94.2906 96.028 94.6746 95.96 94.9946 95.824C95.3226 95.688 95.5906 95.512 95.7986 95.296C96.0066 95.072 96.1626 94.824 96.2666 94.552L96.7826 96.04H96.1826C96.0546 96.552 95.8546 97.016 95.5826 97.432C95.3186 97.848 94.9346 98.176 94.4306 98.416C93.9266 98.656 93.2666 98.776 92.4506 98.776ZM109.319 98.776C108.615 98.776 108.023 98.66 107.543 98.428C107.063 98.196 106.679 97.868 106.391 97.444C106.103 97.012 105.899 96.512 105.779 95.944H104.831L105.707 93.472C105.723 93.96 105.819 94.372 105.995 94.708C106.171 95.044 106.423 95.304 106.751 95.488C107.079 95.664 107.463 95.752 107.903 95.752C108.575 95.752 109.083 95.556 109.427 95.164C109.771 94.764 109.943 94.168 109.943 93.376V91.708C109.943 90.924 109.771 90.336 109.427 89.944C109.091 89.552 108.587 89.356 107.915 89.356C107.539 89.356 107.195 89.428 106.883 89.572C106.579 89.716 106.319 89.908 106.103 90.148C105.895 90.38 105.743 90.648 105.647 90.952L104.819 89.26H105.827C105.947 88.732 106.143 88.256 106.415 87.832C106.687 87.4 107.067 87.06 107.555 86.812C108.051 86.556 108.679 86.428 109.439 86.428C110.815 86.428 111.855 86.88 112.559 87.784C113.271 88.68 113.627 90.028 113.627 91.828V93.268C113.627 95.084 113.271 96.456 112.559 97.384C111.847 98.312 110.767 98.776 109.319 98.776ZM105.755 98.5H102.107V82.648H105.755V86.176L105.695 89.956L105.707 90.28V94.804L105.647 95.512L105.755 98.5ZM115.593 86.704H119.265V93.64C119.265 94.072 119.321 94.448 119.433 94.768C119.545 95.08 119.733 95.324 119.997 95.5C120.261 95.668 120.621 95.752 121.077 95.752C121.461 95.752 121.793 95.684 122.073 95.548C122.361 95.412 122.601 95.228 122.793 94.996C122.993 94.764 123.141 94.508 123.237 94.228L123.801 95.944H123.177C123.049 96.472 122.837 96.952 122.541 97.384C122.253 97.816 121.853 98.156 121.341 98.404C120.837 98.652 120.189 98.776 119.397 98.776C118.525 98.776 117.805 98.608 117.237 98.272C116.677 97.928 116.261 97.42 115.989 96.748C115.725 96.076 115.593 95.236 115.593 94.228V86.704ZM123.177 86.704H126.849V98.5H123.201L123.321 95.548L123.177 95.212V86.704ZM133.494 98.788C132.558 98.788 131.714 98.704 130.962 98.536C130.21 98.376 129.566 98.188 129.03 97.972L128.718 94.888C129.334 95.144 130.014 95.376 130.758 95.584C131.51 95.784 132.322 95.884 133.194 95.884C133.89 95.884 134.382 95.812 134.67 95.668C134.966 95.516 135.114 95.284 135.114 94.972V94.924C135.114 94.708 135.038 94.532 134.886 94.396C134.742 94.252 134.486 94.124 134.118 94.012C133.758 93.9 133.25 93.768 132.594 93.616C131.61 93.384 130.83 93.112 130.254 92.8C129.678 92.48 129.266 92.092 129.018 91.636C128.778 91.172 128.658 90.624 128.658 89.992V89.896C128.658 88.728 129.074 87.856 129.906 87.28C130.738 86.696 131.962 86.404 133.578 86.404C134.49 86.404 135.31 86.488 136.038 86.656C136.766 86.824 137.378 87.024 137.874 87.256L138.186 90.124C137.61 89.868 136.966 89.656 136.254 89.488C135.55 89.32 134.81 89.236 134.034 89.236C133.562 89.236 133.19 89.268 132.918 89.332C132.654 89.396 132.466 89.488 132.354 89.608C132.25 89.728 132.198 89.876 132.198 90.052V90.088C132.198 90.28 132.262 90.444 132.39 90.58C132.518 90.716 132.75 90.844 133.086 90.964C133.43 91.084 133.922 91.22 134.562 91.372C135.554 91.588 136.354 91.836 136.962 92.116C137.57 92.388 138.014 92.744 138.294 93.184C138.574 93.616 138.714 94.192 138.714 94.912V95.02C138.714 96.292 138.286 97.24 137.43 97.864C136.574 98.48 135.262 98.788 133.494 98.788Z" fill="#E87500"/>
<rect x="10" y="130" width="170" height="50" rx="25" fill="#154734"/>
<path d="M42.105 143.164V158.5H38.349V143.164H42.105ZM51.249 143.164V158.5H47.481V143.164H51.249ZM40.509 152.224V149.092H48.897V152.224H40.509ZM59.1773 158.836C57.2733 158.836 55.8333 158.364 54.8573 157.42C53.8893 156.468 53.4053 155.132 53.4053 153.412V151.864C53.4053 150.12 53.8933 148.768 54.8693 147.808C55.8453 146.84 57.2813 146.356 59.1773 146.356C61.0733 146.356 62.5053 146.84 63.4733 147.808C64.4493 148.768 64.9373 150.12 64.9373 151.864V153.412C64.9373 155.132 64.4533 156.468 63.4853 157.42C62.5173 158.364 61.0813 158.836 59.1773 158.836ZM59.1773 155.944C59.8573 155.944 60.3733 155.74 60.7253 155.332C61.0853 154.916 61.2653 154.328 61.2653 153.568V151.708C61.2653 150.908 61.0853 150.3 60.7253 149.884C60.3733 149.468 59.8573 149.26 59.1773 149.26C58.4973 149.26 57.9773 149.468 57.6173 149.884C57.2653 150.3 57.0893 150.908 57.0893 151.708V153.568C57.0893 154.328 57.2653 154.916 57.6173 155.332C57.9773 155.74 58.4973 155.944 59.1773 155.944ZM85.0823 158.5H81.4103V151.468C81.4103 151.052 81.3583 150.696 81.2543 150.4C81.1583 150.096 80.9903 149.864 80.7503 149.704C80.5183 149.544 80.1943 149.464 79.7783 149.464C79.4263 149.464 79.1183 149.532 78.8543 149.668C78.5903 149.796 78.3703 149.976 78.1943 150.208C78.0183 150.432 77.8863 150.688 77.7983 150.976L77.4503 149.26H77.7743C77.9023 148.732 78.1063 148.256 78.3863 147.832C78.6663 147.4 79.0543 147.06 79.5503 146.812C80.0463 146.556 80.6823 146.428 81.4583 146.428C82.2983 146.428 82.9823 146.596 83.5103 146.932C84.0463 147.26 84.4423 147.756 84.6983 148.42C84.9543 149.076 85.0823 149.896 85.0823 150.88V158.5ZM70.6343 158.5H66.9623V146.704H70.6103L70.4903 149.884L70.6343 150.004V158.5ZM77.8583 158.5H74.1863V151.468C74.1863 151.052 74.1343 150.696 74.0303 150.4C73.9343 150.096 73.7663 149.864 73.5263 149.704C73.2863 149.544 72.9623 149.464 72.5543 149.464C72.1943 149.464 71.8823 149.532 71.6183 149.668C71.3543 149.796 71.1343 149.976 70.9583 150.208C70.7903 150.432 70.6623 150.688 70.5743 150.976L70.0103 149.26H70.6343C70.7543 148.724 70.9503 148.244 71.2223 147.82C71.5023 147.396 71.8863 147.06 72.3743 146.812C72.8623 146.556 73.4783 146.428 74.2223 146.428C75.3183 146.428 76.1423 146.712 76.6943 147.28C77.2543 147.84 77.6063 148.656 77.7503 149.728C77.7743 149.888 77.7983 150.084 77.8223 150.316C77.8463 150.548 77.8583 150.756 77.8583 150.94V158.5ZM93.2792 158.8C91.1352 158.8 89.5512 158.324 88.5272 157.372C87.5032 156.412 86.9912 155.016 86.9912 153.184V151.96C86.9912 150.152 87.4712 148.768 88.4312 147.808C89.3912 146.84 90.7872 146.356 92.6192 146.356C93.8512 146.356 94.8752 146.568 95.6912 146.992C96.5152 147.408 97.1312 148.004 97.5392 148.78C97.9552 149.556 98.1632 150.488 98.1632 151.576V151.972C98.1632 152.276 98.1472 152.588 98.1152 152.908C98.0912 153.22 98.0552 153.512 98.0072 153.784H94.6952C94.7272 153.32 94.7472 152.884 94.7552 152.476C94.7632 152.06 94.7672 151.684 94.7672 151.348C94.7672 150.86 94.6912 150.452 94.5392 150.124C94.3872 149.788 94.1512 149.532 93.8312 149.356C93.5192 149.18 93.1152 149.092 92.6192 149.092C91.8832 149.092 91.3432 149.292 90.9992 149.692C90.6632 150.084 90.4952 150.644 90.4952 151.372V152.452L90.5192 152.848V153.688C90.5192 153.992 90.5672 154.28 90.6632 154.552C90.7672 154.824 90.9432 155.064 91.1912 155.272C91.4472 155.472 91.7952 155.632 92.2352 155.752C92.6832 155.864 93.2512 155.92 93.9392 155.92C94.6672 155.92 95.3672 155.852 96.0392 155.716C96.7112 155.572 97.3552 155.38 97.9712 155.14L97.6712 157.9C97.1272 158.18 96.4832 158.4 95.7392 158.56C94.9952 158.72 94.1752 158.8 93.2792 158.8ZM97.2632 153.784H88.9352V151.516H97.2632V153.784ZM106.729 158.5H101.485L99.1206 146.704H102.841L104.305 155.908H104.521L105.961 146.992H110.449L111.913 155.908H112.117L113.593 146.704H117.277L114.913 158.5H109.693L108.505 150.988L108.301 149.668H108.133L107.917 150.988L106.729 158.5ZM123.912 158.836C122.008 158.836 120.568 158.364 119.592 157.42C118.624 156.468 118.14 155.132 118.14 153.412V151.864C118.14 150.12 118.628 148.768 119.604 147.808C120.58 146.84 122.016 146.356 123.912 146.356C125.808 146.356 127.24 146.84 128.208 147.808C129.184 148.768 129.672 150.12 129.672 151.864V153.412C129.672 155.132 129.188 156.468 128.22 157.42C127.252 158.364 125.816 158.836 123.912 158.836ZM123.912 155.944C124.592 155.944 125.108 155.74 125.46 155.332C125.82 154.916 126 154.328 126 153.568V151.708C126 150.908 125.82 150.3 125.46 149.884C125.108 149.468 124.592 149.26 123.912 149.26C123.232 149.26 122.712 149.468 122.352 149.884C122 150.3 121.824 150.908 121.824 151.708V153.568C121.824 154.328 122 154.916 122.352 155.332C122.712 155.74 123.232 155.944 123.912 155.944ZM135.297 151.876L134.289 149.644H135.153C135.345 148.668 135.717 147.904 136.269 147.352C136.829 146.792 137.617 146.512 138.633 146.512C138.809 146.512 138.969 146.524 139.113 146.548C139.265 146.572 139.409 146.6 139.545 146.632L139.725 150.34C139.557 150.292 139.361 150.26 139.137 150.244C138.913 150.22 138.685 150.208 138.453 150.208C137.669 150.208 137.009 150.356 136.473 150.652C135.937 150.94 135.545 151.348 135.297 151.876ZM135.369 158.5H131.697V146.704H135.153L134.997 150.472L135.369 150.52V158.5ZM153.008 158.5H148.724L145.244 153.412H144.284V151.252H145.244L148.628 146.704H152.84L148.352 152.56V151.864L153.008 158.5ZM144.86 158.5H141.212V142.648H144.86V158.5Z" fill="#E87500"/>
</svg>
