<svg width="397" height="90" viewBox="0 0 397 90" fill="none" xmlns="http://www.w3.org/2000/svg">
<rect width="170" height="50" rx="25" transform="matrix(-1 0 0 1 190 20)" fill="#808080"/>
<path d="M86.148 37.664V53H82.392V37.664H86.148ZM95.292 37.664V53H91.524V37.664H95.292ZM84.552 46.724V43.592H92.94V46.724H84.552ZM103.736 53.3C101.592 53.3 100.008 52.824 98.9843 51.872C97.9603 50.912 97.4482 49.516 97.4482 47.684V46.46C97.4482 44.652 97.9283 43.268 98.8883 42.308C99.8483 41.34 101.244 40.856 103.076 40.856C104.308 40.856 105.332 41.068 106.148 41.492C106.972 41.908 107.588 42.504 107.996 43.28C108.412 44.056 108.62 44.988 108.62 46.076V46.472C108.62 46.776 108.604 47.088 108.572 47.408C108.548 47.72 108.512 48.012 108.464 48.284H105.152C105.184 47.82 105.204 47.384 105.212 46.976C105.22 46.56 105.224 46.184 105.224 45.848C105.224 45.36 105.148 44.952 104.996 44.624C104.844 44.288 104.608 44.032 104.288 43.856C103.976 43.68 103.572 43.592 103.076 43.592C102.34 43.592 101.8 43.792 101.456 44.192C101.12 44.584 100.952 45.144 100.952 45.872V46.952L100.976 47.348V48.188C100.976 48.492 101.024 48.78 101.12 49.052C101.224 49.324 101.4 49.564 101.648 49.772C101.904 49.972 102.252 50.132 102.692 50.252C103.14 50.364 103.708 50.42 104.396 50.42C105.124 50.42 105.824 50.352 106.496 50.216C107.168 50.072 107.812 49.88 108.428 49.64L108.128 52.4C107.584 52.68 106.94 52.9 106.196 53.06C105.452 53.22 104.632 53.3 103.736 53.3ZM107.72 48.284H99.3923V46.016H107.72V48.284ZM114.291 53H110.619V37.148H114.291V53ZM123.959 53.276C123.255 53.276 122.663 53.16 122.183 52.928C121.703 52.696 121.319 52.368 121.031 51.944C120.751 51.512 120.551 51.012 120.431 50.444H119.483L120.347 47.972C120.363 48.46 120.455 48.872 120.623 49.208C120.799 49.544 121.047 49.804 121.367 49.988C121.695 50.164 122.083 50.252 122.531 50.252C123.203 50.252 123.711 50.056 124.055 49.664C124.407 49.264 124.583 48.672 124.583 47.888V46.208C124.583 45.424 124.411 44.836 124.067 44.444C123.731 44.052 123.227 43.856 122.555 43.856C122.179 43.856 121.835 43.928 121.523 44.072C121.219 44.216 120.959 44.408 120.743 44.648C120.535 44.88 120.383 45.148 120.287 45.452L119.447 43.76H120.419C120.539 43.232 120.739 42.756 121.019 42.332C121.299 41.9 121.687 41.56 122.183 41.312C122.679 41.056 123.311 40.928 124.079 40.928C125.455 40.928 126.495 41.38 127.199 42.284C127.911 43.18 128.267 44.528 128.267 46.328V47.768C128.267 49.584 127.911 50.956 127.199 51.884C126.495 52.812 125.415 53.276 123.959 53.276ZM120.395 57.128H116.747V41.204H120.395L120.275 44.384L120.347 44.804V49.34L120.299 49.964L120.395 53.12V57.128Z" fill="white"/>
<path d="M273.148 37.664V53H269.392V37.664H273.148ZM282.292 37.664V53H278.524V37.664H282.292ZM271.552 46.724V43.592H279.94V46.724H271.552ZM290.736 53.3C288.592 53.3 287.008 52.824 285.984 51.872C284.96 50.912 284.448 49.516 284.448 47.684V46.46C284.448 44.652 284.928 43.268 285.888 42.308C286.848 41.34 288.244 40.856 290.076 40.856C291.308 40.856 292.332 41.068 293.148 41.492C293.972 41.908 294.588 42.504 294.996 43.28C295.412 44.056 295.62 44.988 295.62 46.076V46.472C295.62 46.776 295.604 47.088 295.572 47.408C295.548 47.72 295.512 48.012 295.464 48.284H292.152C292.184 47.82 292.204 47.384 292.212 46.976C292.22 46.56 292.224 46.184 292.224 45.848C292.224 45.36 292.148 44.952 291.996 44.624C291.844 44.288 291.608 44.032 291.288 43.856C290.976 43.68 290.572 43.592 290.076 43.592C289.34 43.592 288.8 43.792 288.456 44.192C288.12 44.584 287.952 45.144 287.952 45.872V46.952L287.976 47.348V48.188C287.976 48.492 288.024 48.78 288.12 49.052C288.224 49.324 288.4 49.564 288.648 49.772C288.904 49.972 289.252 50.132 289.692 50.252C290.14 50.364 290.708 50.42 291.396 50.42C292.124 50.42 292.824 50.352 293.496 50.216C294.168 50.072 294.812 49.88 295.428 49.64L295.128 52.4C294.584 52.68 293.94 52.9 293.196 53.06C292.452 53.22 291.632 53.3 290.736 53.3ZM294.72 48.284H286.392V46.016H294.72V48.284ZM301.291 53H297.619V37.148H301.291V53ZM310.959 53.276C310.255 53.276 309.663 53.16 309.183 52.928C308.703 52.696 308.319 52.368 308.031 51.944C307.751 51.512 307.551 51.012 307.431 50.444H306.483L307.347 47.972C307.363 48.46 307.455 48.872 307.623 49.208C307.799 49.544 308.047 49.804 308.367 49.988C308.695 50.164 309.083 50.252 309.531 50.252C310.203 50.252 310.711 50.056 311.055 49.664C311.407 49.264 311.583 48.672 311.583 47.888V46.208C311.583 45.424 311.411 44.836 311.067 44.444C310.731 44.052 310.227 43.856 309.555 43.856C309.179 43.856 308.835 43.928 308.523 44.072C308.219 44.216 307.959 44.408 307.743 44.648C307.535 44.88 307.383 45.148 307.287 45.452L306.447 43.76H307.419C307.539 43.232 307.739 42.756 308.019 42.332C308.299 41.9 308.687 41.56 309.183 41.312C309.679 41.056 310.311 40.928 311.079 40.928C312.455 40.928 313.495 41.38 314.199 42.284C314.911 43.18 315.267 44.528 315.267 46.328V47.768C315.267 49.584 314.911 50.956 314.199 51.884C313.495 52.812 312.415 53.276 310.959 53.276ZM307.395 57.128H303.747V41.204H307.395L307.275 44.384L307.347 44.804V49.34L307.299 49.964L307.395 53.12V57.128Z" fill="#154734"/>
<rect x="0.5" y="0.5" width="396" height="89" rx="4.5" stroke="#9747FF" stroke-dasharray="10 5"/>
</svg>
