<svg width="440" height="150" viewBox="0 0 440 150" fill="none" xmlns="http://www.w3.org/2000/svg">
<rect width="440" height="150" rx="50" fill="#D9D9D9"/>
<g clip-path="url(#clip0_104_180)">
<rect x="20" y="20" width="400" height="50" rx="25" fill="#154734"/>
<path d="M47.2789 56.5H43.4869L47.8789 41.164H53.5189L57.8869 56.5H54.0949L50.8429 43.636H50.5669L47.2789 56.5ZM54.1309 52.888H47.2189V49.972H54.1309V52.888ZM62.9881 49.876L61.9801 47.644H62.8441C63.0361 46.668 63.4081 45.904 63.9601 45.352C64.5201 44.792 65.3081 44.512 66.3241 44.512C66.5001 44.512 66.6601 44.524 66.8041 44.548C66.9561 44.572 67.1001 44.6 67.2361 44.632L67.4161 48.34C67.2481 48.292 67.0521 48.26 66.8281 48.244C66.6041 48.22 66.3761 48.208 66.1441 48.208C65.3601 48.208 64.7001 48.356 64.1641 48.652C63.6281 48.94 63.2361 49.348 62.9881 49.876ZM63.0601 56.5H59.3881V44.704H62.8441L62.6881 48.472L63.0601 48.52V56.5ZM74.6191 56.8C72.4751 56.8 70.8911 56.324 69.8671 55.372C68.8431 54.412 68.3311 53.016 68.3311 51.184V49.96C68.3311 48.152 68.8111 46.768 69.7711 45.808C70.7311 44.84 72.1271 44.356 73.9591 44.356C75.1911 44.356 76.2151 44.568 77.0311 44.992C77.8551 45.408 78.4711 46.004 78.8791 46.78C79.2951 47.556 79.5031 48.488 79.5031 49.576V49.972C79.5031 50.276 79.4871 50.588 79.4551 50.908C79.4311 51.22 79.3951 51.512 79.3471 51.784H76.0351C76.0671 51.32 76.0871 50.884 76.0951 50.476C76.1031 50.06 76.1071 49.684 76.1071 49.348C76.1071 48.86 76.0311 48.452 75.8791 48.124C75.7271 47.788 75.4911 47.532 75.1711 47.356C74.8591 47.18 74.4551 47.092 73.9591 47.092C73.2231 47.092 72.6831 47.292 72.3391 47.692C72.0031 48.084 71.8351 48.644 71.8351 49.372V50.452L71.8591 50.848V51.688C71.8591 51.992 71.9071 52.28 72.0031 52.552C72.1071 52.824 72.2831 53.064 72.5311 53.272C72.7871 53.472 73.1351 53.632 73.5751 53.752C74.0231 53.864 74.5911 53.92 75.2791 53.92C76.0071 53.92 76.7071 53.852 77.3791 53.716C78.0511 53.572 78.6951 53.38 79.3111 53.14L79.0111 55.9C78.4671 56.18 77.8231 56.4 77.0791 56.56C76.3351 56.72 75.5151 56.8 74.6191 56.8ZM78.6031 51.784H70.2751V49.516H78.6031V51.784ZM91.2824 53.56H93.2024L91.2344 54.412L93.8864 44.704H97.6424L92.8304 60.628H89.1584L90.9944 54.628L92.7224 55.996H88.6544L85.4624 44.704H89.2424L91.2824 53.56ZM104.056 56.836C102.152 56.836 100.712 56.364 99.7362 55.42C98.7682 54.468 98.2842 53.132 98.2842 51.412V49.864C98.2842 48.12 98.7722 46.768 99.7482 45.808C100.724 44.84 102.16 44.356 104.056 44.356C105.952 44.356 107.384 44.84 108.352 45.808C109.328 46.768 109.816 48.12 109.816 49.864V51.412C109.816 53.132 109.332 54.468 108.364 55.42C107.396 56.364 105.96 56.836 104.056 56.836ZM104.056 53.944C104.736 53.944 105.252 53.74 105.604 53.332C105.964 52.916 106.144 52.328 106.144 51.568V49.708C106.144 48.908 105.964 48.3 105.604 47.884C105.252 47.468 104.736 47.26 104.056 47.26C103.376 47.26 102.856 47.468 102.496 47.884C102.144 48.3 101.968 48.908 101.968 49.708V51.568C101.968 52.328 102.144 52.916 102.496 53.332C102.856 53.74 103.376 53.944 104.056 53.944ZM111.733 44.704H115.405V51.64C115.405 52.072 115.461 52.448 115.573 52.768C115.685 53.08 115.873 53.324 116.137 53.5C116.401 53.668 116.761 53.752 117.217 53.752C117.601 53.752 117.933 53.684 118.213 53.548C118.501 53.412 118.741 53.228 118.933 52.996C119.133 52.764 119.281 52.508 119.377 52.228L119.941 53.944H119.317C119.189 54.472 118.977 54.952 118.681 55.384C118.393 55.816 117.993 56.156 117.481 56.404C116.977 56.652 116.329 56.776 115.537 56.776C114.665 56.776 113.945 56.608 113.377 56.272C112.817 55.928 112.401 55.42 112.129 54.748C111.865 54.076 111.733 53.236 111.733 52.228V44.704ZM119.317 44.704H122.989V56.5H119.341L119.461 53.548L119.317 53.212V44.704ZM134.604 56.788C133.668 56.788 132.824 56.704 132.072 56.536C131.32 56.376 130.676 56.188 130.14 55.972L129.828 52.888C130.444 53.144 131.124 53.376 131.868 53.584C132.62 53.784 133.432 53.884 134.304 53.884C135 53.884 135.492 53.812 135.78 53.668C136.076 53.516 136.224 53.284 136.224 52.972V52.924C136.224 52.708 136.148 52.532 135.996 52.396C135.852 52.252 135.596 52.124 135.228 52.012C134.868 51.9 134.36 51.768 133.704 51.616C132.72 51.384 131.94 51.112 131.364 50.8C130.788 50.48 130.376 50.092 130.128 49.636C129.888 49.172 129.768 48.624 129.768 47.992V47.896C129.768 46.728 130.184 45.856 131.016 45.28C131.848 44.696 133.072 44.404 134.688 44.404C135.6 44.404 136.42 44.488 137.148 44.656C137.876 44.824 138.488 45.024 138.984 45.256L139.296 48.124C138.72 47.868 138.076 47.656 137.364 47.488C136.66 47.32 135.92 47.236 135.144 47.236C134.672 47.236 134.3 47.268 134.028 47.332C133.764 47.396 133.576 47.488 133.464 47.608C133.36 47.728 133.308 47.876 133.308 48.052V48.088C133.308 48.28 133.372 48.444 133.5 48.58C133.628 48.716 133.86 48.844 134.196 48.964C134.54 49.084 135.032 49.22 135.672 49.372C136.664 49.588 137.464 49.836 138.072 50.116C138.68 50.388 139.124 50.744 139.404 51.184C139.684 51.616 139.824 52.192 139.824 52.912V53.02C139.824 54.292 139.396 55.24 138.54 55.864C137.684 56.48 136.372 56.788 134.604 56.788ZM141.382 44.704H145.054V51.64C145.054 52.072 145.11 52.448 145.222 52.768C145.334 53.08 145.522 53.324 145.786 53.5C146.05 53.668 146.41 53.752 146.866 53.752C147.25 53.752 147.582 53.684 147.862 53.548C148.15 53.412 148.39 53.228 148.582 52.996C148.782 52.764 148.93 52.508 149.026 52.228L149.59 53.944H148.966C148.838 54.472 148.626 54.952 148.33 55.384C148.042 55.816 147.642 56.156 147.13 56.404C146.626 56.652 145.978 56.776 145.186 56.776C144.314 56.776 143.594 56.608 143.026 56.272C142.466 55.928 142.05 55.42 141.778 54.748C141.514 54.076 141.382 53.236 141.382 52.228V44.704ZM148.966 44.704H152.638V56.5H148.99L149.11 53.548L148.966 53.212V44.704ZM158.683 49.876L157.675 47.644H158.539C158.731 46.668 159.103 45.904 159.655 45.352C160.215 44.792 161.003 44.512 162.019 44.512C162.195 44.512 162.355 44.524 162.499 44.548C162.651 44.572 162.795 44.6 162.931 44.632L163.111 48.34C162.943 48.292 162.747 48.26 162.523 48.244C162.299 48.22 162.071 48.208 161.839 48.208C161.055 48.208 160.395 48.356 159.859 48.652C159.323 48.94 158.931 49.348 158.683 49.876ZM158.755 56.5H155.083V44.704H158.539L158.383 48.472L158.755 48.52V56.5ZM170.314 56.8C168.17 56.8 166.586 56.324 165.562 55.372C164.538 54.412 164.026 53.016 164.026 51.184V49.96C164.026 48.152 164.506 46.768 165.466 45.808C166.426 44.84 167.822 44.356 169.654 44.356C170.886 44.356 171.91 44.568 172.726 44.992C173.55 45.408 174.166 46.004 174.574 46.78C174.99 47.556 175.198 48.488 175.198 49.576V49.972C175.198 50.276 175.182 50.588 175.15 50.908C175.126 51.22 175.09 51.512 175.042 51.784H171.73C171.762 51.32 171.782 50.884 171.79 50.476C171.798 50.06 171.802 49.684 171.802 49.348C171.802 48.86 171.726 48.452 171.574 48.124C171.422 47.788 171.186 47.532 170.866 47.356C170.554 47.18 170.15 47.092 169.654 47.092C168.918 47.092 168.378 47.292 168.034 47.692C167.698 48.084 167.53 48.644 167.53 49.372V50.452L167.554 50.848V51.688C167.554 51.992 167.602 52.28 167.698 52.552C167.802 52.824 167.978 53.064 168.226 53.272C168.482 53.472 168.83 53.632 169.27 53.752C169.718 53.864 170.286 53.92 170.974 53.92C171.702 53.92 172.402 53.852 173.074 53.716C173.746 53.572 174.39 53.38 175.006 53.14L174.706 55.9C174.162 56.18 173.518 56.4 172.774 56.56C172.03 56.72 171.21 56.8 170.314 56.8ZM174.298 51.784H165.97V49.516H174.298V51.784ZM186.978 53.56H188.898L186.93 54.412L189.582 44.704H193.338L188.526 60.628H184.854L186.69 54.628L188.418 55.996H184.35L181.158 44.704H184.938L186.978 53.56ZM199.752 56.836C197.848 56.836 196.408 56.364 195.432 55.42C194.464 54.468 193.979 53.132 193.979 51.412V49.864C193.979 48.12 194.468 46.768 195.444 45.808C196.42 44.84 197.856 44.356 199.752 44.356C201.648 44.356 203.08 44.84 204.048 45.808C205.024 46.768 205.512 48.12 205.512 49.864V51.412C205.512 53.132 205.028 54.468 204.06 55.42C203.092 56.364 201.656 56.836 199.752 56.836ZM199.752 53.944C200.432 53.944 200.948 53.74 201.3 53.332C201.66 52.916 201.84 52.328 201.84 51.568V49.708C201.84 48.908 201.66 48.3 201.3 47.884C200.948 47.468 200.432 47.26 199.752 47.26C199.072 47.26 198.552 47.468 198.192 47.884C197.84 48.3 197.664 48.908 197.664 49.708V51.568C197.664 52.328 197.84 52.916 198.192 53.332C198.552 53.74 199.072 53.944 199.752 53.944ZM207.429 44.704H211.101V51.64C211.101 52.072 211.157 52.448 211.269 52.768C211.381 53.08 211.569 53.324 211.833 53.5C212.097 53.668 212.457 53.752 212.913 53.752C213.297 53.752 213.629 53.684 213.909 53.548C214.197 53.412 214.437 53.228 214.629 52.996C214.829 52.764 214.977 52.508 215.073 52.228L215.637 53.944H215.013C214.885 54.472 214.673 54.952 214.377 55.384C214.089 55.816 213.689 56.156 213.177 56.404C212.673 56.652 212.025 56.776 211.233 56.776C210.361 56.776 209.641 56.608 209.073 56.272C208.513 55.928 208.097 55.42 207.825 54.748C207.561 54.076 207.429 53.236 207.429 52.228V44.704ZM215.013 44.704H218.685V56.5H215.037L215.157 53.548L215.013 53.212V44.704ZM232.795 56.5H227.551L225.187 44.704H228.907L230.371 53.908H230.587L232.027 44.992H236.515L237.979 53.908H238.183L239.659 44.704H243.343L240.979 56.5H235.759L234.571 48.988L234.367 47.668H234.199L233.983 48.988L232.795 56.5ZM254.912 56.5H251.3L251.408 53.548L251.324 53.368V49.684L251.3 49.204C251.3 48.548 251.108 48.064 250.724 47.752C250.34 47.44 249.696 47.284 248.792 47.284C248 47.284 247.248 47.384 246.536 47.584C245.824 47.784 245.152 48.012 244.52 48.268L244.832 45.424C245.208 45.248 245.628 45.084 246.092 44.932C246.564 44.772 247.084 44.644 247.652 44.548C248.22 44.452 248.828 44.404 249.476 44.404C250.508 44.404 251.372 44.524 252.068 44.764C252.764 45.004 253.32 45.344 253.736 45.784C254.152 46.224 254.452 46.752 254.636 47.368C254.82 47.976 254.912 48.648 254.912 49.384V56.5ZM247.544 56.776C246.368 56.776 245.476 56.48 244.868 55.888C244.26 55.296 243.956 54.452 243.956 53.356V53.032C243.956 51.872 244.312 51.016 245.024 50.464C245.744 49.904 246.884 49.524 248.444 49.324L251.612 48.904L251.828 51.112L249.02 51.52C248.452 51.592 248.052 51.724 247.82 51.916C247.588 52.108 247.472 52.392 247.472 52.768V52.852C247.472 53.212 247.588 53.5 247.82 53.716C248.052 53.924 248.424 54.028 248.936 54.028C249.384 54.028 249.768 53.96 250.088 53.824C250.416 53.688 250.684 53.512 250.892 53.296C251.1 53.072 251.256 52.824 251.36 52.552L251.876 54.04H251.276C251.148 54.552 250.948 55.016 250.676 55.432C250.412 55.848 250.028 56.176 249.524 56.416C249.02 56.656 248.36 56.776 247.544 56.776ZM268.457 56.5H264.785V49.564C264.785 49.132 264.729 48.76 264.617 48.448C264.505 48.128 264.317 47.884 264.053 47.716C263.789 47.548 263.429 47.464 262.973 47.464C262.597 47.464 262.265 47.532 261.977 47.668C261.689 47.796 261.445 47.976 261.245 48.208C261.053 48.432 260.909 48.688 260.813 48.976L260.249 47.26H260.873C261.001 46.724 261.209 46.244 261.497 45.82C261.793 45.396 262.197 45.06 262.709 44.812C263.221 44.556 263.869 44.428 264.653 44.428C265.533 44.428 266.253 44.6 266.813 44.944C267.373 45.28 267.785 45.784 268.049 46.456C268.321 47.128 268.457 47.968 268.457 48.976V56.5ZM260.873 56.5H257.201V44.704H260.849L260.729 47.656L260.873 48.004V56.5ZM275.463 56.764C274.415 56.764 273.579 56.608 272.955 56.296C272.339 55.976 271.895 55.5 271.623 54.868C271.351 54.236 271.215 53.456 271.215 52.528V45.94H274.863V51.94C274.863 52.516 274.991 52.94 275.247 53.212C275.511 53.476 275.999 53.608 276.711 53.608C277.103 53.608 277.491 53.564 277.875 53.476C278.259 53.388 278.607 53.276 278.919 53.14L278.607 56.176C278.199 56.352 277.727 56.492 277.191 56.596C276.663 56.708 276.087 56.764 275.463 56.764ZM278.487 47.632H269.631V44.752H278.811L278.487 47.632ZM274.755 45.016H271.263L271.251 41.968L274.887 41.62L274.755 45.016ZM290.159 56.764C289.111 56.764 288.275 56.608 287.651 56.296C287.035 55.976 286.591 55.5 286.319 54.868C286.047 54.236 285.911 53.456 285.911 52.528V45.94H289.559V51.94C289.559 52.516 289.687 52.94 289.943 53.212C290.207 53.476 290.695 53.608 291.407 53.608C291.799 53.608 292.187 53.564 292.571 53.476C292.955 53.388 293.303 53.276 293.615 53.14L293.303 56.176C292.895 56.352 292.423 56.492 291.887 56.596C291.359 56.708 290.783 56.764 290.159 56.764ZM293.183 47.632H284.327V44.752H293.507L293.183 47.632ZM289.451 45.016H285.959L285.947 41.968L289.583 41.62L289.451 45.016ZM300.345 56.836C298.441 56.836 297.001 56.364 296.025 55.42C295.057 54.468 294.573 53.132 294.573 51.412V49.864C294.573 48.12 295.061 46.768 296.037 45.808C297.013 44.84 298.449 44.356 300.345 44.356C302.241 44.356 303.673 44.84 304.641 45.808C305.617 46.768 306.105 48.12 306.105 49.864V51.412C306.105 53.132 305.621 54.468 304.653 55.42C303.685 56.364 302.249 56.836 300.345 56.836ZM300.345 53.944C301.025 53.944 301.541 53.74 301.893 53.332C302.253 52.916 302.433 52.328 302.433 51.568V49.708C302.433 48.908 302.253 48.3 301.893 47.884C301.541 47.468 301.025 47.26 300.345 47.26C299.665 47.26 299.145 47.468 298.785 47.884C298.433 48.3 298.257 48.908 298.257 49.708V51.568C298.257 52.328 298.433 52.916 298.785 53.332C299.145 53.74 299.665 53.944 300.345 53.944ZM316.783 56.5H313.111V40.648H316.783V56.5ZM324.58 56.836C322.676 56.836 321.236 56.364 320.26 55.42C319.292 54.468 318.808 53.132 318.808 51.412V49.864C318.808 48.12 319.296 46.768 320.272 45.808C321.248 44.84 322.684 44.356 324.58 44.356C326.476 44.356 327.908 44.84 328.876 45.808C329.852 46.768 330.34 48.12 330.34 49.864V51.412C330.34 53.132 329.856 54.468 328.888 55.42C327.92 56.364 326.484 56.836 324.58 56.836ZM324.58 53.944C325.26 53.944 325.776 53.74 326.128 53.332C326.488 52.916 326.668 52.328 326.668 51.568V49.708C326.668 48.908 326.488 48.3 326.128 47.884C325.776 47.468 325.26 47.26 324.58 47.26C323.9 47.26 323.38 47.468 323.02 47.884C322.668 48.3 322.492 48.908 322.492 49.708V51.568C322.492 52.328 322.668 52.916 323.02 53.332C323.38 53.74 323.9 53.944 324.58 53.944ZM337.608 52.828C335.712 52.828 334.288 52.476 333.336 51.772C332.384 51.068 331.908 50.08 331.908 48.808V48.652C331.908 47.788 332.1 47.06 332.484 46.468C332.876 45.868 333.476 45.404 334.284 45.076C335.092 44.748 336.128 44.552 337.392 44.488L343.692 44.2V46.792L340.56 46.708V46.828C341.096 46.916 341.536 47.068 341.88 47.284C342.232 47.492 342.492 47.768 342.66 48.112C342.836 48.448 342.924 48.864 342.924 49.36V49.444C342.924 50.54 342.488 51.38 341.616 51.964C340.752 52.54 339.416 52.828 337.608 52.828ZM337.428 58.408H337.788C338.364 58.408 338.828 58.372 339.18 58.3C339.54 58.228 339.804 58.12 339.972 57.976C340.14 57.832 340.224 57.652 340.224 57.436V57.412C340.224 57.132 340.104 56.932 339.864 56.812C339.632 56.692 339.28 56.612 338.808 56.572L335.328 56.224L336.132 56.176C335.892 56.216 335.684 56.284 335.508 56.38C335.34 56.476 335.204 56.596 335.1 56.74C335.004 56.884 334.956 57.06 334.956 57.268V57.292C334.956 57.532 335.044 57.736 335.22 57.904C335.396 58.072 335.664 58.196 336.024 58.276C336.392 58.364 336.86 58.408 337.428 58.408ZM337.704 61.096H337.248C336.064 61.096 335.052 61 334.212 60.808C333.38 60.624 332.748 60.328 332.316 59.92C331.884 59.512 331.668 58.972 331.668 58.3V58.252C331.668 57.796 331.768 57.412 331.968 57.1C332.168 56.788 332.456 56.544 332.832 56.368C333.208 56.192 333.648 56.084 334.152 56.044V55.924C333.536 55.812 333.06 55.616 332.724 55.336C332.396 55.056 332.232 54.664 332.232 54.16V54.148C332.232 53.788 332.312 53.484 332.472 53.236C332.64 52.988 332.884 52.8 333.204 52.672C333.524 52.536 333.916 52.456 334.38 52.432V52.036L337.092 52.72L336.3 52.708C336.02 52.708 335.82 52.744 335.7 52.816C335.588 52.888 335.532 52.996 335.532 53.14V53.152C335.532 53.328 335.624 53.456 335.808 53.536C336 53.608 336.308 53.668 336.732 53.716L339.528 54.04C340.888 54.2 341.9 54.536 342.564 55.048C343.228 55.56 343.56 56.352 343.56 57.424V57.496C343.56 58.312 343.328 58.984 342.864 59.512C342.408 60.048 341.744 60.444 340.872 60.7C340.008 60.964 338.952 61.096 337.704 61.096ZM337.488 50.356C337.96 50.356 338.348 50.296 338.652 50.176C338.964 50.048 339.196 49.864 339.348 49.624C339.508 49.376 339.588 49.08 339.588 48.736V48.628C339.588 48.284 339.512 47.992 339.36 47.752C339.208 47.512 338.976 47.332 338.664 47.212C338.36 47.084 337.968 47.02 337.488 47.02H337.476C336.988 47.02 336.588 47.084 336.276 47.212C335.964 47.34 335.732 47.524 335.58 47.764C335.436 48.004 335.364 48.296 335.364 48.64V48.736C335.364 49.08 335.44 49.376 335.592 49.624C335.752 49.864 335.988 50.048 336.3 50.176C336.612 50.296 337.008 50.356 337.488 50.356ZM355.447 56.836C353.543 56.836 352.103 56.364 351.127 55.42C350.159 54.468 349.675 53.132 349.675 51.412V49.864C349.675 48.12 350.163 46.768 351.139 45.808C352.115 44.84 353.551 44.356 355.447 44.356C357.343 44.356 358.775 44.84 359.743 45.808C360.719 46.768 361.207 48.12 361.207 49.864V51.412C361.207 53.132 360.723 54.468 359.755 55.42C358.787 56.364 357.351 56.836 355.447 56.836ZM355.447 53.944C356.127 53.944 356.643 53.74 356.995 53.332C357.355 52.916 357.535 52.328 357.535 51.568V49.708C357.535 48.908 357.355 48.3 356.995 47.884C356.643 47.468 356.127 47.26 355.447 47.26C354.767 47.26 354.247 47.468 353.887 47.884C353.535 48.3 353.359 48.908 353.359 49.708V51.568C353.359 52.328 353.535 52.916 353.887 53.332C354.247 53.74 354.767 53.944 355.447 53.944ZM363.124 44.704H366.796V51.64C366.796 52.072 366.852 52.448 366.964 52.768C367.076 53.08 367.264 53.324 367.528 53.5C367.792 53.668 368.152 53.752 368.608 53.752C368.992 53.752 369.324 53.684 369.604 53.548C369.892 53.412 370.132 53.228 370.324 52.996C370.524 52.764 370.672 52.508 370.768 52.228L371.332 53.944H370.708C370.58 54.472 370.368 54.952 370.072 55.384C369.784 55.816 369.384 56.156 368.872 56.404C368.368 56.652 367.72 56.776 366.928 56.776C366.056 56.776 365.336 56.608 364.768 56.272C364.208 55.928 363.792 55.42 363.52 54.748C363.256 54.076 363.124 53.236 363.124 52.228V44.704ZM370.708 44.704H374.38V56.5H370.732L370.852 53.548L370.708 53.212V44.704ZM381.612 56.764C380.564 56.764 379.728 56.608 379.104 56.296C378.488 55.976 378.044 55.5 377.772 54.868C377.5 54.236 377.364 53.456 377.364 52.528V45.94H381.012V51.94C381.012 52.516 381.14 52.94 381.396 53.212C381.66 53.476 382.148 53.608 382.86 53.608C383.252 53.608 383.64 53.564 384.024 53.476C384.408 53.388 384.756 53.276 385.068 53.14L384.756 56.176C384.348 56.352 383.876 56.492 383.34 56.596C382.812 56.708 382.236 56.764 381.612 56.764ZM384.636 47.632H375.78V44.752H384.96L384.636 47.632ZM380.904 45.016H377.412L377.4 41.968L381.036 41.62L380.904 45.016ZM390.263 51.328L388.583 51.628V48.496L389.735 48.268C390.399 48.14 390.915 47.976 391.283 47.776C391.659 47.576 391.927 47.332 392.087 47.044C392.247 46.756 392.327 46.42 392.327 46.036V45.736C392.327 45.152 392.151 44.712 391.799 44.416C391.447 44.12 390.847 43.972 389.999 43.972C389.319 43.972 388.651 44.052 387.995 44.212C387.339 44.364 386.699 44.564 386.075 44.812L386.483 41.704C386.787 41.56 387.155 41.424 387.587 41.296C388.019 41.168 388.503 41.064 389.039 40.984C389.575 40.896 390.143 40.852 390.743 40.852C392.543 40.852 393.883 41.244 394.763 42.028C395.643 42.812 396.083 43.948 396.083 45.436V45.928C396.083 47.016 395.863 47.92 395.423 48.64C394.991 49.36 394.343 49.932 393.479 50.356C392.615 50.78 391.543 51.104 390.263 51.328ZM389.999 56.824C389.327 56.824 388.831 56.648 388.511 56.296C388.191 55.944 388.031 55.46 388.031 54.844V54.712C388.031 54.096 388.191 53.612 388.511 53.26C388.831 52.908 389.327 52.732 389.999 52.732C390.671 52.732 391.167 52.908 391.487 53.26C391.815 53.612 391.979 54.096 391.979 54.712V54.844C391.979 55.46 391.815 55.944 391.487 56.296C391.167 56.648 390.671 56.824 389.999 56.824Z" fill="white"/>
</g>
<rect x="115" y="80" width="100" height="50" rx="25" fill="#808080"/>
<path d="M155.677 104.492H152.317L147.073 93.164H150.997L152.941 97.784L153.901 100.292H154.093L155.041 97.784L156.973 93.164H160.897L155.677 104.492ZM155.845 108.5H152.149V101.12H155.845V108.5ZM166.139 108.8C163.995 108.8 162.411 108.324 161.387 107.372C160.363 106.412 159.851 105.016 159.851 103.184V101.96C159.851 100.152 160.331 98.768 161.291 97.808C162.251 96.84 163.647 96.356 165.479 96.356C166.711 96.356 167.735 96.568 168.551 96.992C169.375 97.408 169.991 98.004 170.399 98.78C170.815 99.556 171.023 100.488 171.023 101.576V101.972C171.023 102.276 171.007 102.588 170.975 102.908C170.951 103.22 170.915 103.512 170.867 103.784H167.555C167.587 103.32 167.607 102.884 167.615 102.476C167.623 102.06 167.627 101.684 167.627 101.348C167.627 100.86 167.551 100.452 167.399 100.124C167.247 99.788 167.011 99.532 166.691 99.356C166.379 99.18 165.975 99.092 165.479 99.092C164.743 99.092 164.203 99.292 163.859 99.692C163.523 100.084 163.355 100.644 163.355 101.372V102.452L163.379 102.848V103.688C163.379 103.992 163.427 104.28 163.523 104.552C163.627 104.824 163.803 105.064 164.051 105.272C164.307 105.472 164.655 105.632 165.095 105.752C165.543 105.864 166.111 105.92 166.799 105.92C167.527 105.92 168.227 105.852 168.899 105.716C169.571 105.572 170.215 105.38 170.831 105.14L170.531 107.9C169.987 108.18 169.343 108.4 168.599 108.56C167.855 108.72 167.035 108.8 166.139 108.8ZM170.123 103.784H161.795V101.516H170.123V103.784ZM177.279 108.788C176.343 108.788 175.499 108.704 174.747 108.536C173.995 108.376 173.351 108.188 172.815 107.972L172.503 104.888C173.119 105.144 173.799 105.376 174.543 105.584C175.295 105.784 176.107 105.884 176.979 105.884C177.675 105.884 178.167 105.812 178.455 105.668C178.751 105.516 178.899 105.284 178.899 104.972V104.924C178.899 104.708 178.823 104.532 178.671 104.396C178.527 104.252 178.271 104.124 177.903 104.012C177.543 103.9 177.035 103.768 176.379 103.616C175.395 103.384 174.615 103.112 174.039 102.8C173.463 102.48 173.051 102.092 172.803 101.636C172.563 101.172 172.443 100.624 172.443 99.992V99.896C172.443 98.728 172.859 97.856 173.691 97.28C174.523 96.696 175.747 96.404 177.363 96.404C178.275 96.404 179.095 96.488 179.823 96.656C180.551 96.824 181.163 97.024 181.659 97.256L181.971 100.124C181.395 99.868 180.751 99.656 180.039 99.488C179.335 99.32 178.595 99.236 177.819 99.236C177.347 99.236 176.975 99.268 176.703 99.332C176.439 99.396 176.251 99.488 176.139 99.608C176.035 99.728 175.983 99.876 175.983 100.052V100.088C175.983 100.28 176.047 100.444 176.175 100.58C176.303 100.716 176.535 100.844 176.871 100.964C177.215 101.084 177.707 101.22 178.347 101.372C179.339 101.588 180.139 101.836 180.747 102.116C181.355 102.388 181.799 102.744 182.079 103.184C182.359 103.616 182.499 104.192 182.499 104.912V105.02C182.499 106.292 182.071 107.24 181.215 107.864C180.359 108.48 179.047 108.788 177.279 108.788Z" fill="white"/>
<rect x="225" y="80" width="100" height="50" rx="25" fill="#808080"/>
<path d="M262.001 93.152H267.173L271.325 104.408H271.493L271.325 97.928V93.152H274.901V108.5H269.873L265.565 96.992H265.409L265.577 103.616V108.5H262.001V93.152ZM282.83 108.836C280.926 108.836 279.486 108.364 278.51 107.42C277.542 106.468 277.058 105.132 277.058 103.412V101.864C277.058 100.12 277.546 98.768 278.522 97.808C279.498 96.84 280.934 96.356 282.83 96.356C284.726 96.356 286.158 96.84 287.126 97.808C288.102 98.768 288.59 100.12 288.59 101.864V103.412C288.59 105.132 288.106 106.468 287.138 107.42C286.17 108.364 284.734 108.836 282.83 108.836ZM282.83 105.944C283.51 105.944 284.026 105.74 284.378 105.332C284.738 104.916 284.918 104.328 284.918 103.568V101.708C284.918 100.908 284.738 100.3 284.378 99.884C284.026 99.468 283.51 99.26 282.83 99.26C282.15 99.26 281.63 99.468 281.27 99.884C280.918 100.3 280.742 100.908 280.742 101.708V103.568C280.742 104.328 280.918 104.916 281.27 105.332C281.63 105.74 282.15 105.944 282.83 105.944Z" fill="white"/>
<defs>
<clipPath id="clip0_104_180">
<rect x="20" y="20" width="400" height="50" rx="25" fill="white"/>
</clipPath>
</defs>
</svg>
