<svg width="80" height="80" viewBox="0 0 80 80" fill="none" xmlns="http://www.w3.org/2000/svg">
    <g clip-path="url(#clip0_86_447)">
        <path fill-rule="evenodd" clip-rule="evenodd" d="M22.8571 30C22.0994 30 21.3727 30.301 20.8368 30.8368C20.301 31.3727 20 32.0994 20 32.8571C20 33.6149 20.301 34.3416 20.8368 34.8774C21.3727 35.4133 22.0994 35.7143 22.8571 35.7143H57.1429C57.9006 35.7143 58.6273 35.4133 59.1632 34.8774C59.699 34.3416 60 33.6149 60 32.8571C60 32.0994 59.699 31.3727 59.1632 30.8368C58.6273 30.301 57.9006 30 57.1429 30H22.8571ZM22.8571 44.2857C22.0994 44.2857 21.3727 44.5867 20.8368 45.1226C20.301 45.6584 20 46.3851 20 47.1429C20 47.9006 20.301 48.6273 20.8368 49.1632C21.3727 49.699 22.0994 50 22.8571 50H57.1429C57.9006 50 58.6273 49.699 59.1632 49.1632C59.699 48.6273 60 47.9006 60 47.1429C60 46.3851 59.699 45.6584 59.1632 45.1226C58.6273 44.5867 57.9006 44.2857 57.1429 44.2857H22.8571Z" fill="white"/>
    </g>
    <defs>
        <clipPath id="clip0_86_447">
            <rect width="40" height="40" fill="white" transform="translate(20 20)"/>
        </clipPath>
    </defs>
</svg>
