<svg width="397" height="90" viewBox="0 0 397 90" fill="none" xmlns="http://www.w3.org/2000/svg">
<rect width="170" height="50" rx="25" transform="matrix(-1 0 0 1 190 20)" fill="#808080"/>
<path d="M40.392 37.652H45.564L49.716 48.908H49.884L49.716 42.428V37.652H53.292V53H48.264L43.956 41.492H43.8L43.968 48.116V53H40.392V37.652ZM61.7363 53.3C59.5923 53.3 58.0083 52.824 56.9843 51.872C55.9603 50.912 55.4482 49.516 55.4482 47.684V46.46C55.4482 44.652 55.9283 43.268 56.8883 42.308C57.8483 41.34 59.2443 40.856 61.0763 40.856C62.3083 40.856 63.3323 41.068 64.1483 41.492C64.9723 41.908 65.5883 42.504 65.9963 43.28C66.4123 44.056 66.6203 44.988 66.6203 46.076V46.472C66.6203 46.776 66.6043 47.088 66.5723 47.408C66.5483 47.72 66.5123 48.012 66.4643 48.284H63.1523C63.1843 47.82 63.2043 47.384 63.2123 46.976C63.2203 46.56 63.2243 46.184 63.2243 45.848C63.2243 45.36 63.1483 44.952 62.9963 44.624C62.8443 44.288 62.6083 44.032 62.2883 43.856C61.9763 43.68 61.5723 43.592 61.0763 43.592C60.3403 43.592 59.8003 43.792 59.4563 44.192C59.1203 44.584 58.9523 45.144 58.9523 45.872V46.952L58.9763 47.348V48.188C58.9763 48.492 59.0243 48.78 59.1203 49.052C59.2243 49.324 59.4003 49.564 59.6483 49.772C59.9043 49.972 60.2523 50.132 60.6923 50.252C61.1403 50.364 61.7083 50.42 62.3963 50.42C63.1243 50.42 63.8243 50.352 64.4963 50.216C65.1683 50.072 65.8123 49.88 66.4283 49.64L66.1283 52.4C65.5843 52.68 64.9403 52.9 64.1963 53.06C63.4523 53.22 62.6323 53.3 61.7363 53.3ZM65.7203 48.284H57.3923V46.016H65.7203V48.284ZM75.1856 53H69.9416L67.5776 41.204H71.2976L72.7616 50.408H72.9776L74.4176 41.492H78.9056L80.3696 50.408H80.5736L82.0496 41.204H85.7336L83.3696 53H78.1496L76.9616 45.488L76.7576 44.168H76.5896L76.3736 45.488L75.1856 53ZM97.1638 53.324C96.4518 53.324 95.7838 53.276 95.1598 53.18C94.5438 53.092 93.9798 52.976 93.4678 52.832C92.9638 52.68 92.5198 52.524 92.1358 52.364L91.8118 48.908C92.4438 49.204 93.1918 49.48 94.0558 49.736C94.9198 49.984 95.8358 50.108 96.8038 50.108C97.7398 50.108 98.4038 49.992 98.7958 49.76C99.1958 49.52 99.3958 49.148 99.3958 48.644V48.56C99.3958 48.224 99.3038 47.952 99.1198 47.744C98.9438 47.528 98.6438 47.332 98.2198 47.156C97.8038 46.972 97.2398 46.776 96.5278 46.568C95.4558 46.248 94.5598 45.892 93.8398 45.5C93.1278 45.108 92.5958 44.62 92.2438 44.036C91.8918 43.444 91.7158 42.696 91.7158 41.792V41.636C91.7158 40.244 92.1878 39.18 93.1318 38.444C94.0838 37.708 95.4798 37.34 97.3198 37.34C98.4238 37.34 99.3758 37.436 100.176 37.628C100.984 37.82 101.668 38.048 102.228 38.312L102.552 41.528C101.936 41.232 101.236 40.984 100.452 40.784C99.6758 40.576 98.8438 40.472 97.9558 40.472C97.3318 40.472 96.8398 40.524 96.4798 40.628C96.1278 40.732 95.8798 40.884 95.7358 41.084C95.5918 41.276 95.5198 41.512 95.5198 41.792V41.84C95.5198 42.128 95.5998 42.38 95.7598 42.596C95.9278 42.812 96.2238 43.02 96.6478 43.22C97.0798 43.42 97.6918 43.636 98.4838 43.868C99.5478 44.18 100.428 44.516 101.124 44.876C101.828 45.228 102.352 45.688 102.696 46.256C103.048 46.816 103.224 47.564 103.224 48.5V48.692C103.224 50.236 102.724 51.396 101.724 52.172C100.724 52.94 99.2038 53.324 97.1638 53.324ZM111.072 53.3C108.928 53.3 107.344 52.824 106.32 51.872C105.296 50.912 104.784 49.516 104.784 47.684V46.46C104.784 44.652 105.264 43.268 106.224 42.308C107.184 41.34 108.58 40.856 110.412 40.856C111.644 40.856 112.668 41.068 113.484 41.492C114.308 41.908 114.924 42.504 115.332 43.28C115.748 44.056 115.956 44.988 115.956 46.076V46.472C115.956 46.776 115.94 47.088 115.908 47.408C115.884 47.72 115.848 48.012 115.8 48.284H112.488C112.52 47.82 112.54 47.384 112.548 46.976C112.556 46.56 112.56 46.184 112.56 45.848C112.56 45.36 112.484 44.952 112.332 44.624C112.18 44.288 111.944 44.032 111.624 43.856C111.312 43.68 110.908 43.592 110.412 43.592C109.676 43.592 109.136 43.792 108.792 44.192C108.456 44.584 108.288 45.144 108.288 45.872V46.952L108.312 47.348V48.188C108.312 48.492 108.36 48.78 108.456 49.052C108.56 49.324 108.736 49.564 108.984 49.772C109.24 49.972 109.588 50.132 110.028 50.252C110.476 50.364 111.044 50.42 111.732 50.42C112.46 50.42 113.16 50.352 113.832 50.216C114.504 50.072 115.148 49.88 115.764 49.64L115.464 52.4C114.92 52.68 114.276 52.9 113.532 53.06C112.788 53.22 111.968 53.3 111.072 53.3ZM115.056 48.284H106.728V46.016H115.056V48.284ZM122.213 53.288C121.277 53.288 120.433 53.204 119.681 53.036C118.929 52.876 118.285 52.688 117.749 52.472L117.437 49.388C118.053 49.644 118.733 49.876 119.477 50.084C120.229 50.284 121.041 50.384 121.913 50.384C122.609 50.384 123.101 50.312 123.389 50.168C123.685 50.016 123.833 49.784 123.833 49.472V49.424C123.833 49.208 123.757 49.032 123.605 48.896C123.461 48.752 123.205 48.624 122.837 48.512C122.477 48.4 121.969 48.268 121.313 48.116C120.329 47.884 119.549 47.612 118.973 47.3C118.397 46.98 117.985 46.592 117.737 46.136C117.497 45.672 117.377 45.124 117.377 44.492V44.396C117.377 43.228 117.793 42.356 118.625 41.78C119.457 41.196 120.681 40.904 122.297 40.904C123.209 40.904 124.029 40.988 124.757 41.156C125.485 41.324 126.097 41.524 126.593 41.756L126.905 44.624C126.329 44.368 125.685 44.156 124.973 43.988C124.269 43.82 123.529 43.736 122.753 43.736C122.281 43.736 121.909 43.768 121.637 43.832C121.373 43.896 121.185 43.988 121.073 44.108C120.969 44.228 120.917 44.376 120.917 44.552V44.588C120.917 44.78 120.981 44.944 121.109 45.08C121.237 45.216 121.469 45.344 121.805 45.464C122.149 45.584 122.641 45.72 123.281 45.872C124.273 46.088 125.073 46.336 125.681 46.616C126.289 46.888 126.733 47.244 127.013 47.684C127.293 48.116 127.433 48.692 127.433 49.412V49.52C127.433 50.792 127.005 51.74 126.149 52.364C125.293 52.98 123.981 53.288 122.213 53.288ZM133.346 53.288C132.41 53.288 131.566 53.204 130.814 53.036C130.062 52.876 129.418 52.688 128.882 52.472L128.57 49.388C129.186 49.644 129.866 49.876 130.61 50.084C131.362 50.284 132.174 50.384 133.046 50.384C133.742 50.384 134.234 50.312 134.522 50.168C134.818 50.016 134.966 49.784 134.966 49.472V49.424C134.966 49.208 134.89 49.032 134.738 48.896C134.594 48.752 134.338 48.624 133.97 48.512C133.61 48.4 133.102 48.268 132.446 48.116C131.462 47.884 130.682 47.612 130.106 47.3C129.53 46.98 129.118 46.592 128.87 46.136C128.63 45.672 128.51 45.124 128.51 44.492V44.396C128.51 43.228 128.926 42.356 129.758 41.78C130.59 41.196 131.814 40.904 133.43 40.904C134.342 40.904 135.162 40.988 135.89 41.156C136.618 41.324 137.23 41.524 137.726 41.756L138.038 44.624C137.462 44.368 136.818 44.156 136.106 43.988C135.402 43.82 134.662 43.736 133.886 43.736C133.414 43.736 133.042 43.768 132.77 43.832C132.506 43.896 132.318 43.988 132.206 44.108C132.102 44.228 132.05 44.376 132.05 44.552V44.588C132.05 44.78 132.114 44.944 132.242 45.08C132.37 45.216 132.602 45.344 132.938 45.464C133.282 45.584 133.774 45.72 134.414 45.872C135.406 46.088 136.206 46.336 136.814 46.616C137.422 46.888 137.866 47.244 138.146 47.684C138.426 48.116 138.566 48.692 138.566 49.412V49.52C138.566 50.792 138.138 51.74 137.282 52.364C136.426 52.98 135.114 53.288 133.346 53.288ZM144.01 53H140.338V41.204H144.01V53ZM142.174 40.088C141.486 40.088 140.986 39.932 140.674 39.62C140.362 39.3 140.206 38.872 140.206 38.336V38.252C140.206 37.716 140.362 37.292 140.674 36.98C140.986 36.668 141.486 36.512 142.174 36.512C142.846 36.512 143.338 36.668 143.65 36.98C143.97 37.292 144.13 37.716 144.13 38.252V38.336C144.13 38.88 143.97 39.308 143.65 39.62C143.338 39.932 142.846 40.088 142.174 40.088ZM151.806 53.336C149.902 53.336 148.462 52.864 147.486 51.92C146.518 50.968 146.034 49.632 146.034 47.912V46.364C146.034 44.62 146.522 43.268 147.498 42.308C148.474 41.34 149.91 40.856 151.806 40.856C153.702 40.856 155.134 41.34 156.102 42.308C157.078 43.268 157.566 44.62 157.566 46.364V47.912C157.566 49.632 157.082 50.968 156.114 51.92C155.146 52.864 153.71 53.336 151.806 53.336ZM151.806 50.444C152.486 50.444 153.002 50.24 153.354 49.832C153.714 49.416 153.894 48.828 153.894 48.068V46.208C153.894 45.408 153.714 44.8 153.354 44.384C153.002 43.968 152.486 43.76 151.806 43.76C151.126 43.76 150.606 43.968 150.246 44.384C149.894 44.8 149.718 45.408 149.718 46.208V48.068C149.718 48.828 149.894 49.416 150.246 49.832C150.606 50.24 151.126 50.444 151.806 50.444ZM170.847 53H167.175V46.064C167.175 45.632 167.119 45.26 167.007 44.948C166.895 44.628 166.707 44.384 166.443 44.216C166.179 44.048 165.819 43.964 165.363 43.964C164.987 43.964 164.655 44.032 164.367 44.168C164.079 44.296 163.835 44.476 163.635 44.708C163.443 44.932 163.299 45.188 163.203 45.476L162.639 43.76H163.263C163.391 43.224 163.599 42.744 163.887 42.32C164.183 41.896 164.587 41.56 165.099 41.312C165.611 41.056 166.259 40.928 167.043 40.928C167.923 40.928 168.643 41.1 169.203 41.444C169.763 41.78 170.175 42.284 170.439 42.956C170.711 43.628 170.847 44.468 170.847 45.476V53ZM163.263 53H159.591V41.204H163.239L163.119 44.156L163.263 44.504V53Z" fill="white"/>
<path d="M227.392 37.652H232.564L236.716 48.908H236.884L236.716 42.428V37.652H240.292V53H235.264L230.956 41.492H230.8L230.968 48.116V53H227.392V37.652ZM248.736 53.3C246.592 53.3 245.008 52.824 243.984 51.872C242.96 50.912 242.448 49.516 242.448 47.684V46.46C242.448 44.652 242.928 43.268 243.888 42.308C244.848 41.34 246.244 40.856 248.076 40.856C249.308 40.856 250.332 41.068 251.148 41.492C251.972 41.908 252.588 42.504 252.996 43.28C253.412 44.056 253.62 44.988 253.62 46.076V46.472C253.62 46.776 253.604 47.088 253.572 47.408C253.548 47.72 253.512 48.012 253.464 48.284H250.152C250.184 47.82 250.204 47.384 250.212 46.976C250.22 46.56 250.224 46.184 250.224 45.848C250.224 45.36 250.148 44.952 249.996 44.624C249.844 44.288 249.608 44.032 249.288 43.856C248.976 43.68 248.572 43.592 248.076 43.592C247.34 43.592 246.8 43.792 246.456 44.192C246.12 44.584 245.952 45.144 245.952 45.872V46.952L245.976 47.348V48.188C245.976 48.492 246.024 48.78 246.12 49.052C246.224 49.324 246.4 49.564 246.648 49.772C246.904 49.972 247.252 50.132 247.692 50.252C248.14 50.364 248.708 50.42 249.396 50.42C250.124 50.42 250.824 50.352 251.496 50.216C252.168 50.072 252.812 49.88 253.428 49.64L253.128 52.4C252.584 52.68 251.94 52.9 251.196 53.06C250.452 53.22 249.632 53.3 248.736 53.3ZM252.72 48.284H244.392V46.016H252.72V48.284ZM262.186 53H256.942L254.578 41.204H258.298L259.762 50.408H259.978L261.418 41.492H265.906L267.37 50.408H267.574L269.05 41.204H272.734L270.37 53H265.15L263.962 45.488L263.758 44.168H263.59L263.374 45.488L262.186 53ZM284.164 53.324C283.452 53.324 282.784 53.276 282.16 53.18C281.544 53.092 280.98 52.976 280.468 52.832C279.964 52.68 279.52 52.524 279.136 52.364L278.812 48.908C279.444 49.204 280.192 49.48 281.056 49.736C281.92 49.984 282.836 50.108 283.804 50.108C284.74 50.108 285.404 49.992 285.796 49.76C286.196 49.52 286.396 49.148 286.396 48.644V48.56C286.396 48.224 286.304 47.952 286.12 47.744C285.944 47.528 285.644 47.332 285.22 47.156C284.804 46.972 284.24 46.776 283.528 46.568C282.456 46.248 281.56 45.892 280.84 45.5C280.128 45.108 279.596 44.62 279.244 44.036C278.892 43.444 278.716 42.696 278.716 41.792V41.636C278.716 40.244 279.188 39.18 280.132 38.444C281.084 37.708 282.48 37.34 284.32 37.34C285.424 37.34 286.376 37.436 287.176 37.628C287.984 37.82 288.668 38.048 289.228 38.312L289.552 41.528C288.936 41.232 288.236 40.984 287.452 40.784C286.676 40.576 285.844 40.472 284.956 40.472C284.332 40.472 283.84 40.524 283.48 40.628C283.128 40.732 282.88 40.884 282.736 41.084C282.592 41.276 282.52 41.512 282.52 41.792V41.84C282.52 42.128 282.6 42.38 282.76 42.596C282.928 42.812 283.224 43.02 283.648 43.22C284.08 43.42 284.692 43.636 285.484 43.868C286.548 44.18 287.428 44.516 288.124 44.876C288.828 45.228 289.352 45.688 289.696 46.256C290.048 46.816 290.224 47.564 290.224 48.5V48.692C290.224 50.236 289.724 51.396 288.724 52.172C287.724 52.94 286.204 53.324 284.164 53.324ZM298.072 53.3C295.928 53.3 294.344 52.824 293.32 51.872C292.296 50.912 291.784 49.516 291.784 47.684V46.46C291.784 44.652 292.264 43.268 293.224 42.308C294.184 41.34 295.58 40.856 297.412 40.856C298.644 40.856 299.668 41.068 300.484 41.492C301.308 41.908 301.924 42.504 302.332 43.28C302.748 44.056 302.956 44.988 302.956 46.076V46.472C302.956 46.776 302.94 47.088 302.908 47.408C302.884 47.72 302.848 48.012 302.8 48.284H299.488C299.52 47.82 299.54 47.384 299.548 46.976C299.556 46.56 299.56 46.184 299.56 45.848C299.56 45.36 299.484 44.952 299.332 44.624C299.18 44.288 298.944 44.032 298.624 43.856C298.312 43.68 297.908 43.592 297.412 43.592C296.676 43.592 296.136 43.792 295.792 44.192C295.456 44.584 295.288 45.144 295.288 45.872V46.952L295.312 47.348V48.188C295.312 48.492 295.36 48.78 295.456 49.052C295.56 49.324 295.736 49.564 295.984 49.772C296.24 49.972 296.588 50.132 297.028 50.252C297.476 50.364 298.044 50.42 298.732 50.42C299.46 50.42 300.16 50.352 300.832 50.216C301.504 50.072 302.148 49.88 302.764 49.64L302.464 52.4C301.92 52.68 301.276 52.9 300.532 53.06C299.788 53.22 298.968 53.3 298.072 53.3ZM302.056 48.284H293.728V46.016H302.056V48.284ZM309.213 53.288C308.277 53.288 307.433 53.204 306.681 53.036C305.929 52.876 305.285 52.688 304.749 52.472L304.437 49.388C305.053 49.644 305.733 49.876 306.477 50.084C307.229 50.284 308.041 50.384 308.913 50.384C309.609 50.384 310.101 50.312 310.389 50.168C310.685 50.016 310.833 49.784 310.833 49.472V49.424C310.833 49.208 310.757 49.032 310.605 48.896C310.461 48.752 310.205 48.624 309.837 48.512C309.477 48.4 308.969 48.268 308.313 48.116C307.329 47.884 306.549 47.612 305.973 47.3C305.397 46.98 304.985 46.592 304.737 46.136C304.497 45.672 304.377 45.124 304.377 44.492V44.396C304.377 43.228 304.793 42.356 305.625 41.78C306.457 41.196 307.681 40.904 309.297 40.904C310.209 40.904 311.029 40.988 311.757 41.156C312.485 41.324 313.097 41.524 313.593 41.756L313.905 44.624C313.329 44.368 312.685 44.156 311.973 43.988C311.269 43.82 310.529 43.736 309.753 43.736C309.281 43.736 308.909 43.768 308.637 43.832C308.373 43.896 308.185 43.988 308.073 44.108C307.969 44.228 307.917 44.376 307.917 44.552V44.588C307.917 44.78 307.981 44.944 308.109 45.08C308.237 45.216 308.469 45.344 308.805 45.464C309.149 45.584 309.641 45.72 310.281 45.872C311.273 46.088 312.073 46.336 312.681 46.616C313.289 46.888 313.733 47.244 314.013 47.684C314.293 48.116 314.433 48.692 314.433 49.412V49.52C314.433 50.792 314.005 51.74 313.149 52.364C312.293 52.98 310.981 53.288 309.213 53.288ZM320.346 53.288C319.41 53.288 318.566 53.204 317.814 53.036C317.062 52.876 316.418 52.688 315.882 52.472L315.57 49.388C316.186 49.644 316.866 49.876 317.61 50.084C318.362 50.284 319.174 50.384 320.046 50.384C320.742 50.384 321.234 50.312 321.522 50.168C321.818 50.016 321.966 49.784 321.966 49.472V49.424C321.966 49.208 321.89 49.032 321.738 48.896C321.594 48.752 321.338 48.624 320.97 48.512C320.61 48.4 320.102 48.268 319.446 48.116C318.462 47.884 317.682 47.612 317.106 47.3C316.53 46.98 316.118 46.592 315.87 46.136C315.63 45.672 315.51 45.124 315.51 44.492V44.396C315.51 43.228 315.926 42.356 316.758 41.78C317.59 41.196 318.814 40.904 320.43 40.904C321.342 40.904 322.162 40.988 322.89 41.156C323.618 41.324 324.23 41.524 324.726 41.756L325.038 44.624C324.462 44.368 323.818 44.156 323.106 43.988C322.402 43.82 321.662 43.736 320.886 43.736C320.414 43.736 320.042 43.768 319.77 43.832C319.506 43.896 319.318 43.988 319.206 44.108C319.102 44.228 319.05 44.376 319.05 44.552V44.588C319.05 44.78 319.114 44.944 319.242 45.08C319.37 45.216 319.602 45.344 319.938 45.464C320.282 45.584 320.774 45.72 321.414 45.872C322.406 46.088 323.206 46.336 323.814 46.616C324.422 46.888 324.866 47.244 325.146 47.684C325.426 48.116 325.566 48.692 325.566 49.412V49.52C325.566 50.792 325.138 51.74 324.282 52.364C323.426 52.98 322.114 53.288 320.346 53.288ZM331.01 53H327.338V41.204H331.01V53ZM329.174 40.088C328.486 40.088 327.986 39.932 327.674 39.62C327.362 39.3 327.206 38.872 327.206 38.336V38.252C327.206 37.716 327.362 37.292 327.674 36.98C327.986 36.668 328.486 36.512 329.174 36.512C329.846 36.512 330.338 36.668 330.65 36.98C330.97 37.292 331.13 37.716 331.13 38.252V38.336C331.13 38.88 330.97 39.308 330.65 39.62C330.338 39.932 329.846 40.088 329.174 40.088ZM338.806 53.336C336.902 53.336 335.462 52.864 334.486 51.92C333.518 50.968 333.034 49.632 333.034 47.912V46.364C333.034 44.62 333.522 43.268 334.498 42.308C335.474 41.34 336.91 40.856 338.806 40.856C340.702 40.856 342.134 41.34 343.102 42.308C344.078 43.268 344.566 44.62 344.566 46.364V47.912C344.566 49.632 344.082 50.968 343.114 51.92C342.146 52.864 340.71 53.336 338.806 53.336ZM338.806 50.444C339.486 50.444 340.002 50.24 340.354 49.832C340.714 49.416 340.894 48.828 340.894 48.068V46.208C340.894 45.408 340.714 44.8 340.354 44.384C340.002 43.968 339.486 43.76 338.806 43.76C338.126 43.76 337.606 43.968 337.246 44.384C336.894 44.8 336.718 45.408 336.718 46.208V48.068C336.718 48.828 336.894 49.416 337.246 49.832C337.606 50.24 338.126 50.444 338.806 50.444ZM357.847 53H354.175V46.064C354.175 45.632 354.119 45.26 354.007 44.948C353.895 44.628 353.707 44.384 353.443 44.216C353.179 44.048 352.819 43.964 352.363 43.964C351.987 43.964 351.655 44.032 351.367 44.168C351.079 44.296 350.835 44.476 350.635 44.708C350.443 44.932 350.299 45.188 350.203 45.476L349.639 43.76H350.263C350.391 43.224 350.599 42.744 350.887 42.32C351.183 41.896 351.587 41.56 352.099 41.312C352.611 41.056 353.259 40.928 354.043 40.928C354.923 40.928 355.643 41.1 356.203 41.444C356.763 41.78 357.175 42.284 357.439 42.956C357.711 43.628 357.847 44.468 357.847 45.476V53ZM350.263 53H346.591V41.204H350.239L350.119 44.156L350.263 44.504V53Z" fill="#154734"/>
<rect x="0.5" y="0.5" width="396" height="89" rx="4.5" stroke="#9747FF" stroke-dasharray="10 5"/>
</svg>
