<svg width="108" height="71" viewBox="0 0 108 71" fill="none" xmlns="http://www.w3.org/2000/svg">
<path d="M20 36C20 39.9782 21.5804 43.7936 24.3934 46.6066C27.2064 49.4196 31.0218 51 35 51C38.9782 51 42.7936 49.4196 45.6066 46.6066C48.4196 43.7936 50 39.9782 50 36C50 32.0218 48.4196 28.2064 45.6066 25.3934C42.7936 22.5804 38.9782 21 35 21C31.0218 21 27.2064 22.5804 24.3934 25.3934C21.5804 28.2064 20 32.0218 20 36Z" fill="white"/>
<path fill-rule="evenodd" clip-rule="evenodd" d="M29.9107 34.9286C29.9107 33.863 30.334 32.841 31.0875 32.0875C31.841 31.334 32.863 30.9107 33.9286 30.9107C34.9942 30.9107 36.0161 31.334 36.7696 32.0875C37.5231 32.841 37.9464 33.863 37.9464 34.9286C37.9464 35.9942 37.5231 37.0161 36.7696 37.7696C36.0161 38.5231 34.9942 38.9464 33.9286 38.9464C32.863 38.9464 31.841 38.5231 31.0875 37.7696C30.334 37.0161 29.9107 35.9942 29.9107 34.9286ZM33.9286 28.2322C32.8844 28.2324 31.8548 28.4769 30.9219 28.946C29.9891 29.4151 29.1789 30.0959 28.556 30.9339C27.9331 31.772 27.5148 32.744 27.3346 33.7725C27.1543 34.801 27.217 35.8574 27.5178 36.8573C27.8185 37.8572 28.3489 38.773 29.0666 39.5314C29.7843 40.2898 30.6694 40.8698 31.6513 41.2252C32.6331 41.5806 33.6844 41.7015 34.7213 41.5782C35.7581 41.4548 36.7518 41.0908 37.6229 40.515L40.4814 43.3757C40.7326 43.6269 41.0733 43.768 41.4286 43.768C41.7838 43.768 42.1245 43.6269 42.3757 43.3757C42.6269 43.1245 42.768 42.7838 42.768 42.4286C42.768 42.0733 42.6269 41.7326 42.3757 41.4814L39.515 38.6207C40.182 37.6115 40.5632 36.4404 40.6179 35.2319C40.6727 34.0233 40.3991 32.8225 39.8262 31.7571C39.2532 30.6916 38.4023 29.8012 37.3639 29.1806C36.3255 28.5599 35.1383 28.2322 33.9286 28.2322Z" fill="#E87500"/>
<path d="M69 36C69 39.9782 70.5804 43.7936 73.3934 46.6066C76.2064 49.4196 80.0218 51 84 51C87.9782 51 91.7936 49.4196 94.6066 46.6066C97.4196 43.7936 99 39.9782 99 36C99 32.0218 97.4196 28.2064 94.6066 25.3934C91.7936 22.5804 87.9782 21 84 21C80.0218 21 76.2064 22.5804 73.3934 25.3934C70.5804 28.2064 69 32.0218 69 36Z" fill="#D9D9D9"/>
<path fill-rule="evenodd" clip-rule="evenodd" d="M78.9107 34.9286C78.9107 33.863 79.334 32.841 80.0875 32.0875C80.841 31.334 81.863 30.9107 82.9286 30.9107C83.9942 30.9107 85.0161 31.334 85.7696 32.0875C86.5231 32.841 86.9464 33.863 86.9464 34.9286C86.9464 35.9942 86.5231 37.0161 85.7696 37.7696C85.0161 38.5231 83.9942 38.9464 82.9286 38.9464C81.863 38.9464 80.841 38.5231 80.0875 37.7696C79.334 37.0161 78.9107 35.9942 78.9107 34.9286ZM82.9286 28.2322C81.8844 28.2324 80.8548 28.4769 79.9219 28.946C78.9891 29.4151 78.1789 30.0959 77.556 30.9339C76.9331 31.772 76.5148 32.744 76.3346 33.7725C76.1543 34.801 76.217 35.8574 76.5178 36.8573C76.8185 37.8572 77.3489 38.773 78.0666 39.5314C78.7843 40.2898 79.6694 40.8698 80.6513 41.2252C81.6331 41.5806 82.6844 41.7015 83.7213 41.5782C84.7581 41.4548 85.7518 41.0908 86.6229 40.515L89.4814 43.3757C89.7326 43.6269 90.0733 43.768 90.4286 43.768C90.7838 43.768 91.1245 43.6269 91.3757 43.3757C91.6269 43.1245 91.768 42.7838 91.768 42.4286C91.768 42.0733 91.6269 41.7326 91.3757 41.4814L88.515 38.6207C89.182 37.6115 89.5632 36.4404 89.6179 35.2319C89.6727 34.0233 89.3991 32.8225 88.8262 31.7571C88.2532 30.6916 87.4023 29.8012 86.3639 29.1806C85.3255 28.5599 84.1383 28.2322 82.9286 28.2322Z" fill="#154734"/>
<rect x="0.5" y="0.5" width="107" height="70" rx="4.5" stroke="#9747FF" stroke-dasharray="10 5"/>
</svg>
