<svg width="397" height="90" viewBox="0 0 397 90" fill="none" xmlns="http://www.w3.org/2000/svg">
<rect width="170" height="50" rx="25" transform="matrix(-1 0 0 1 190 20)" fill="#808080"/>
<path d="M85.156 53.324C84.444 53.324 83.776 53.276 83.152 53.18C82.536 53.092 81.972 52.976 81.46 52.832C80.956 52.68 80.512 52.524 80.128 52.364L79.804 48.908C80.436 49.204 81.184 49.48 82.048 49.736C82.912 49.984 83.828 50.108 84.796 50.108C85.732 50.108 86.396 49.992 86.788 49.76C87.188 49.52 87.388 49.148 87.388 48.644V48.56C87.388 48.224 87.296 47.952 87.112 47.744C86.936 47.528 86.636 47.332 86.212 47.156C85.796 46.972 85.232 46.776 84.52 46.568C83.448 46.248 82.552 45.892 81.832 45.5C81.12 45.108 80.588 44.62 80.236 44.036C79.884 43.444 79.708 42.696 79.708 41.792V41.636C79.708 40.244 80.18 39.18 81.124 38.444C82.076 37.708 83.472 37.34 85.312 37.34C86.416 37.34 87.368 37.436 88.168 37.628C88.976 37.82 89.66 38.048 90.22 38.312L90.544 41.528C89.928 41.232 89.228 40.984 88.444 40.784C87.668 40.576 86.836 40.472 85.948 40.472C85.324 40.472 84.832 40.524 84.472 40.628C84.12 40.732 83.872 40.884 83.728 41.084C83.584 41.276 83.512 41.512 83.512 41.792V41.84C83.512 42.128 83.592 42.38 83.752 42.596C83.92 42.812 84.216 43.02 84.64 43.22C85.072 43.42 85.684 43.636 86.476 43.868C87.54 44.18 88.42 44.516 89.116 44.876C89.82 45.228 90.344 45.688 90.688 46.256C91.04 46.816 91.216 47.564 91.216 48.5V48.692C91.216 50.236 90.716 51.396 89.716 52.172C88.716 52.94 87.196 53.324 85.156 53.324ZM99.0644 53.3C96.9204 53.3 95.3364 52.824 94.3124 51.872C93.2884 50.912 92.7764 49.516 92.7764 47.684V46.46C92.7764 44.652 93.2564 43.268 94.2164 42.308C95.1764 41.34 96.5724 40.856 98.4044 40.856C99.6364 40.856 100.66 41.068 101.476 41.492C102.3 41.908 102.916 42.504 103.324 43.28C103.74 44.056 103.948 44.988 103.948 46.076V46.472C103.948 46.776 103.932 47.088 103.9 47.408C103.876 47.72 103.84 48.012 103.792 48.284H100.48C100.512 47.82 100.532 47.384 100.54 46.976C100.548 46.56 100.552 46.184 100.552 45.848C100.552 45.36 100.476 44.952 100.324 44.624C100.172 44.288 99.9364 44.032 99.6164 43.856C99.3044 43.68 98.9004 43.592 98.4044 43.592C97.6684 43.592 97.1284 43.792 96.7844 44.192C96.4484 44.584 96.2804 45.144 96.2804 45.872V46.952L96.3044 47.348V48.188C96.3044 48.492 96.3524 48.78 96.4484 49.052C96.5524 49.324 96.7284 49.564 96.9764 49.772C97.2324 49.972 97.5804 50.132 98.0204 50.252C98.4684 50.364 99.0364 50.42 99.7244 50.42C100.452 50.42 101.152 50.352 101.824 50.216C102.496 50.072 103.14 49.88 103.756 49.64L103.456 52.4C102.912 52.68 102.268 52.9 101.524 53.06C100.78 53.22 99.9604 53.3 99.0644 53.3ZM103.048 48.284H94.7204V46.016H103.048V48.284ZM117.191 53H113.519V46.064C113.519 45.632 113.463 45.26 113.351 44.948C113.239 44.628 113.051 44.384 112.787 44.216C112.523 44.048 112.163 43.964 111.707 43.964C111.331 43.964 110.999 44.032 110.711 44.168C110.423 44.296 110.179 44.476 109.979 44.708C109.787 44.932 109.643 45.188 109.547 45.476L108.983 43.76H109.607C109.735 43.224 109.943 42.744 110.231 42.32C110.527 41.896 110.931 41.56 111.443 41.312C111.955 41.056 112.603 40.928 113.387 40.928C114.267 40.928 114.987 41.1 115.547 41.444C116.107 41.78 116.519 42.284 116.783 42.956C117.055 43.628 117.191 44.468 117.191 45.476V53ZM109.607 53H105.935V41.204H109.583L109.463 44.156L109.607 44.504V53ZM123.333 53.276C121.957 53.276 120.913 52.824 120.201 51.92C119.497 51.016 119.145 49.672 119.145 47.888V46.436C119.145 44.62 119.501 43.248 120.213 42.32C120.925 41.392 122.001 40.928 123.441 40.928C124.145 40.928 124.733 41.044 125.205 41.276C125.677 41.508 126.053 41.836 126.333 42.26C126.621 42.684 126.821 43.184 126.933 43.76H127.929L127.065 46.136C127.049 45.648 126.953 45.236 126.777 44.9C126.601 44.564 126.353 44.308 126.033 44.132C125.721 43.948 125.341 43.856 124.893 43.856C124.221 43.856 123.709 44.052 123.357 44.444C123.005 44.836 122.829 45.424 122.829 46.208V47.9C122.829 48.676 123.005 49.264 123.357 49.664C123.717 50.056 124.245 50.252 124.941 50.252C125.309 50.252 125.637 50.184 125.925 50.048C126.221 49.912 126.469 49.724 126.669 49.484C126.877 49.244 127.029 48.972 127.125 48.668L128.025 50.444H126.993C126.873 50.972 126.673 51.452 126.393 51.884C126.113 52.316 125.725 52.656 125.229 52.904C124.733 53.152 124.101 53.276 123.333 53.276ZM130.665 53H127.017L127.125 50.012L127.065 49.388V44.612V44.096L127.017 40.676V37.148H130.665V53Z" fill="white"/>
<path d="M272.156 53.324C271.444 53.324 270.776 53.276 270.152 53.18C269.536 53.092 268.972 52.976 268.46 52.832C267.956 52.68 267.512 52.524 267.128 52.364L266.804 48.908C267.436 49.204 268.184 49.48 269.048 49.736C269.912 49.984 270.828 50.108 271.796 50.108C272.732 50.108 273.396 49.992 273.788 49.76C274.188 49.52 274.388 49.148 274.388 48.644V48.56C274.388 48.224 274.296 47.952 274.112 47.744C273.936 47.528 273.636 47.332 273.212 47.156C272.796 46.972 272.232 46.776 271.52 46.568C270.448 46.248 269.552 45.892 268.832 45.5C268.12 45.108 267.588 44.62 267.236 44.036C266.884 43.444 266.708 42.696 266.708 41.792V41.636C266.708 40.244 267.18 39.18 268.124 38.444C269.076 37.708 270.472 37.34 272.312 37.34C273.416 37.34 274.368 37.436 275.168 37.628C275.976 37.82 276.66 38.048 277.22 38.312L277.544 41.528C276.928 41.232 276.228 40.984 275.444 40.784C274.668 40.576 273.836 40.472 272.948 40.472C272.324 40.472 271.832 40.524 271.472 40.628C271.12 40.732 270.872 40.884 270.728 41.084C270.584 41.276 270.512 41.512 270.512 41.792V41.84C270.512 42.128 270.592 42.38 270.752 42.596C270.92 42.812 271.216 43.02 271.64 43.22C272.072 43.42 272.684 43.636 273.476 43.868C274.54 44.18 275.42 44.516 276.116 44.876C276.82 45.228 277.344 45.688 277.688 46.256C278.04 46.816 278.216 47.564 278.216 48.5V48.692C278.216 50.236 277.716 51.396 276.716 52.172C275.716 52.94 274.196 53.324 272.156 53.324ZM286.064 53.3C283.92 53.3 282.336 52.824 281.312 51.872C280.288 50.912 279.776 49.516 279.776 47.684V46.46C279.776 44.652 280.256 43.268 281.216 42.308C282.176 41.34 283.572 40.856 285.404 40.856C286.636 40.856 287.66 41.068 288.476 41.492C289.3 41.908 289.916 42.504 290.324 43.28C290.74 44.056 290.948 44.988 290.948 46.076V46.472C290.948 46.776 290.932 47.088 290.9 47.408C290.876 47.72 290.84 48.012 290.792 48.284H287.48C287.512 47.82 287.532 47.384 287.54 46.976C287.548 46.56 287.552 46.184 287.552 45.848C287.552 45.36 287.476 44.952 287.324 44.624C287.172 44.288 286.936 44.032 286.616 43.856C286.304 43.68 285.9 43.592 285.404 43.592C284.668 43.592 284.128 43.792 283.784 44.192C283.448 44.584 283.28 45.144 283.28 45.872V46.952L283.304 47.348V48.188C283.304 48.492 283.352 48.78 283.448 49.052C283.552 49.324 283.728 49.564 283.976 49.772C284.232 49.972 284.58 50.132 285.02 50.252C285.468 50.364 286.036 50.42 286.724 50.42C287.452 50.42 288.152 50.352 288.824 50.216C289.496 50.072 290.14 49.88 290.756 49.64L290.456 52.4C289.912 52.68 289.268 52.9 288.524 53.06C287.78 53.22 286.96 53.3 286.064 53.3ZM290.048 48.284H281.72V46.016H290.048V48.284ZM304.191 53H300.519V46.064C300.519 45.632 300.463 45.26 300.351 44.948C300.239 44.628 300.051 44.384 299.787 44.216C299.523 44.048 299.163 43.964 298.707 43.964C298.331 43.964 297.999 44.032 297.711 44.168C297.423 44.296 297.179 44.476 296.979 44.708C296.787 44.932 296.643 45.188 296.547 45.476L295.983 43.76H296.607C296.735 43.224 296.943 42.744 297.231 42.32C297.527 41.896 297.931 41.56 298.443 41.312C298.955 41.056 299.603 40.928 300.387 40.928C301.267 40.928 301.987 41.1 302.547 41.444C303.107 41.78 303.519 42.284 303.783 42.956C304.055 43.628 304.191 44.468 304.191 45.476V53ZM296.607 53H292.935V41.204H296.583L296.463 44.156L296.607 44.504V53ZM310.333 53.276C308.957 53.276 307.913 52.824 307.201 51.92C306.497 51.016 306.145 49.672 306.145 47.888V46.436C306.145 44.62 306.501 43.248 307.213 42.32C307.925 41.392 309.001 40.928 310.441 40.928C311.145 40.928 311.733 41.044 312.205 41.276C312.677 41.508 313.053 41.836 313.333 42.26C313.621 42.684 313.821 43.184 313.933 43.76H314.929L314.065 46.136C314.049 45.648 313.953 45.236 313.777 44.9C313.601 44.564 313.353 44.308 313.033 44.132C312.721 43.948 312.341 43.856 311.893 43.856C311.221 43.856 310.709 44.052 310.357 44.444C310.005 44.836 309.829 45.424 309.829 46.208V47.9C309.829 48.676 310.005 49.264 310.357 49.664C310.717 50.056 311.245 50.252 311.941 50.252C312.309 50.252 312.637 50.184 312.925 50.048C313.221 49.912 313.469 49.724 313.669 49.484C313.877 49.244 314.029 48.972 314.125 48.668L315.025 50.444H313.993C313.873 50.972 313.673 51.452 313.393 51.884C313.113 52.316 312.725 52.656 312.229 52.904C311.733 53.152 311.101 53.276 310.333 53.276ZM317.665 53H314.017L314.125 50.012L314.065 49.388V44.612V44.096L314.017 40.676V37.148H317.665V53Z" fill="#154734"/>
<rect x="0.5" y="0.5" width="396" height="89" rx="4.5" stroke="#9747FF" stroke-dasharray="10 5"/>
</svg>
