<svg width="190" height="400" viewBox="0 0 190 400" fill="none" xmlns="http://www.w3.org/2000/svg">
<path d="M0 0H190V400H25C11.1929 400 0 388.807 0 375V0Z" fill="#D9D9D9"/>
<rect x="10" y="10" width="170" height="50" rx="25" fill="#154734"/>
<path d="M57.3396 45.324C56.6276 45.324 55.9596 45.276 55.3356 45.18C54.7196 45.092 54.1556 44.976 53.6436 44.832C53.1396 44.68 52.6956 44.524 52.3116 44.364L51.9876 40.908C52.6196 41.204 53.3676 41.48 54.2316 41.736C55.0956 41.984 56.0116 42.108 56.9796 42.108C57.9156 42.108 58.5796 41.992 58.9716 41.76C59.3716 41.52 59.5716 41.148 59.5716 40.644V40.56C59.5716 40.224 59.4796 39.952 59.2956 39.744C59.1196 39.528 58.8196 39.332 58.3956 39.156C57.9796 38.972 57.4156 38.776 56.7036 38.568C55.6316 38.248 54.7356 37.892 54.0156 37.5C53.3036 37.108 52.7716 36.62 52.4196 36.036C52.0676 35.444 51.8916 34.696 51.8916 33.792V33.636C51.8916 32.244 52.3636 31.18 53.3076 30.444C54.2596 29.708 55.6556 29.34 57.4956 29.34C58.5996 29.34 59.5516 29.436 60.3516 29.628C61.1596 29.82 61.8436 30.048 62.4036 30.312L62.7276 33.528C62.1116 33.232 61.4116 32.984 60.6276 32.784C59.8516 32.576 59.0196 32.472 58.1316 32.472C57.5076 32.472 57.0156 32.524 56.6556 32.628C56.3036 32.732 56.0556 32.884 55.9116 33.084C55.7676 33.276 55.6956 33.512 55.6956 33.792V33.84C55.6956 34.128 55.7756 34.38 55.9356 34.596C56.1036 34.812 56.3996 35.02 56.8236 35.22C57.2556 35.42 57.8676 35.636 58.6596 35.868C59.7236 36.18 60.6036 36.516 61.2996 36.876C62.0036 37.228 62.5276 37.688 62.8716 38.256C63.2236 38.816 63.3996 39.564 63.3996 40.5V40.692C63.3996 42.236 62.8996 43.396 61.8996 44.172C60.8996 44.94 59.3796 45.324 57.3396 45.324ZM71.248 45.3C69.104 45.3 67.52 44.824 66.496 43.872C65.472 42.912 64.96 41.516 64.96 39.684V38.46C64.96 36.652 65.44 35.268 66.4 34.308C67.36 33.34 68.756 32.856 70.588 32.856C71.82 32.856 72.844 33.068 73.66 33.492C74.484 33.908 75.1 34.504 75.508 35.28C75.924 36.056 76.132 36.988 76.132 38.076V38.472C76.132 38.776 76.116 39.088 76.084 39.408C76.06 39.72 76.024 40.012 75.976 40.284H72.664C72.696 39.82 72.716 39.384 72.724 38.976C72.732 38.56 72.736 38.184 72.736 37.848C72.736 37.36 72.66 36.952 72.508 36.624C72.356 36.288 72.12 36.032 71.8 35.856C71.488 35.68 71.084 35.592 70.588 35.592C69.852 35.592 69.312 35.792 68.968 36.192C68.632 36.584 68.464 37.144 68.464 37.872V38.952L68.488 39.348V40.188C68.488 40.492 68.536 40.78 68.632 41.052C68.736 41.324 68.912 41.564 69.16 41.772C69.416 41.972 69.764 42.132 70.204 42.252C70.652 42.364 71.22 42.42 71.908 42.42C72.636 42.42 73.336 42.352 74.008 42.216C74.68 42.072 75.324 41.88 75.94 41.64L75.64 44.4C75.096 44.68 74.452 44.9 73.708 45.06C72.964 45.22 72.144 45.3 71.248 45.3ZM75.232 40.284H66.904V38.016H75.232V40.284ZM82.9048 45.264C81.8568 45.264 81.0208 45.108 80.3968 44.796C79.7808 44.476 79.3368 44 79.0648 43.368C78.7928 42.736 78.6568 41.956 78.6568 41.028V34.44H82.3048V40.44C82.3048 41.016 82.4328 41.44 82.6888 41.712C82.9528 41.976 83.4408 42.108 84.1528 42.108C84.5448 42.108 84.9328 42.064 85.3168 41.976C85.7008 41.888 86.0488 41.776 86.3608 41.64L86.0488 44.676C85.6408 44.852 85.1688 44.992 84.6328 45.096C84.1048 45.208 83.5288 45.264 82.9048 45.264ZM85.9288 36.132H77.0728V33.252H86.2528L85.9288 36.132ZM82.1968 33.516H78.7048L78.6928 30.468L82.3288 30.12L82.1968 33.516ZM91.3658 45.264C90.3178 45.264 89.4818 45.108 88.8578 44.796C88.2418 44.476 87.7978 44 87.5258 43.368C87.2538 42.736 87.1178 41.956 87.1178 41.028V34.44H90.7658V40.44C90.7658 41.016 90.8938 41.44 91.1498 41.712C91.4138 41.976 91.9018 42.108 92.6138 42.108C93.0058 42.108 93.3938 42.064 93.7778 41.976C94.1618 41.888 94.5098 41.776 94.8218 41.64L94.5098 44.676C94.1018 44.852 93.6298 44.992 93.0938 45.096C92.5658 45.208 91.9898 45.264 91.3658 45.264ZM94.3898 36.132H85.5338V33.252H94.7138L94.3898 36.132ZM90.6578 33.516H87.1658L87.1538 30.468L90.7898 30.12L90.6578 33.516ZM100.06 45H96.3883V33.204H100.06V45ZM98.2243 32.088C97.5363 32.088 97.0363 31.932 96.7243 31.62C96.4123 31.3 96.2563 30.872 96.2563 30.336V30.252C96.2563 29.716 96.4123 29.292 96.7243 28.98C97.0363 28.668 97.5363 28.512 98.2243 28.512C98.8963 28.512 99.3883 28.668 99.7003 28.98C100.02 29.292 100.18 29.716 100.18 30.252V30.336C100.18 30.88 100.02 31.308 99.7003 31.62C99.3883 31.932 98.8963 32.088 98.2243 32.088ZM113.773 45H110.101V38.064C110.101 37.632 110.045 37.26 109.933 36.948C109.821 36.628 109.633 36.384 109.369 36.216C109.105 36.048 108.745 35.964 108.289 35.964C107.913 35.964 107.581 36.032 107.293 36.168C107.005 36.296 106.761 36.476 106.561 36.708C106.369 36.932 106.225 37.188 106.129 37.476L105.565 35.76H106.189C106.317 35.224 106.525 34.744 106.813 34.32C107.109 33.896 107.513 33.56 108.025 33.312C108.537 33.056 109.185 32.928 109.969 32.928C110.849 32.928 111.569 33.1 112.129 33.444C112.689 33.78 113.101 34.284 113.365 34.956C113.637 35.628 113.773 36.468 113.773 37.476V45ZM106.189 45H102.517V33.204H106.165L106.045 36.156L106.189 36.504V45ZM121.331 41.328C119.435 41.328 118.011 40.976 117.059 40.272C116.107 39.568 115.631 38.58 115.631 37.308V37.152C115.631 36.288 115.823 35.56 116.207 34.968C116.599 34.368 117.199 33.904 118.007 33.576C118.815 33.248 119.851 33.052 121.115 32.988L127.415 32.7V35.292L124.283 35.208V35.328C124.819 35.416 125.259 35.568 125.603 35.784C125.955 35.992 126.215 36.268 126.383 36.612C126.559 36.948 126.647 37.364 126.647 37.86V37.944C126.647 39.04 126.211 39.88 125.339 40.464C124.475 41.04 123.139 41.328 121.331 41.328ZM121.151 46.908H121.511C122.087 46.908 122.551 46.872 122.903 46.8C123.263 46.728 123.527 46.62 123.695 46.476C123.863 46.332 123.947 46.152 123.947 45.936V45.912C123.947 45.632 123.827 45.432 123.587 45.312C123.355 45.192 123.003 45.112 122.531 45.072L119.051 44.724L119.855 44.676C119.615 44.716 119.407 44.784 119.231 44.88C119.063 44.976 118.927 45.096 118.823 45.24C118.727 45.384 118.679 45.56 118.679 45.768V45.792C118.679 46.032 118.767 46.236 118.943 46.404C119.119 46.572 119.387 46.696 119.747 46.776C120.115 46.864 120.583 46.908 121.151 46.908ZM121.427 49.596H120.971C119.787 49.596 118.775 49.5 117.935 49.308C117.103 49.124 116.471 48.828 116.039 48.42C115.607 48.012 115.391 47.472 115.391 46.8V46.752C115.391 46.296 115.491 45.912 115.691 45.6C115.891 45.288 116.179 45.044 116.555 44.868C116.931 44.692 117.371 44.584 117.875 44.544V44.424C117.259 44.312 116.783 44.116 116.447 43.836C116.119 43.556 115.955 43.164 115.955 42.66V42.648C115.955 42.288 116.035 41.984 116.195 41.736C116.363 41.488 116.607 41.3 116.927 41.172C117.247 41.036 117.639 40.956 118.103 40.932V40.536L120.815 41.22L120.023 41.208C119.743 41.208 119.543 41.244 119.423 41.316C119.311 41.388 119.255 41.496 119.255 41.64V41.652C119.255 41.828 119.347 41.956 119.531 42.036C119.723 42.108 120.031 42.168 120.455 42.216L123.251 42.54C124.611 42.7 125.623 43.036 126.287 43.548C126.951 44.06 127.283 44.852 127.283 45.924V45.996C127.283 46.812 127.051 47.484 126.587 48.012C126.131 48.548 125.467 48.944 124.595 49.2C123.731 49.464 122.675 49.596 121.427 49.596ZM121.211 38.856C121.683 38.856 122.071 38.796 122.375 38.676C122.687 38.548 122.919 38.364 123.071 38.124C123.231 37.876 123.311 37.58 123.311 37.236V37.128C123.311 36.784 123.235 36.492 123.083 36.252C122.931 36.012 122.699 35.832 122.387 35.712C122.083 35.584 121.691 35.52 121.211 35.52H121.199C120.711 35.52 120.311 35.584 119.999 35.712C119.687 35.84 119.455 36.024 119.303 36.264C119.159 36.504 119.087 36.796 119.087 37.14V37.236C119.087 37.58 119.163 37.876 119.315 38.124C119.475 38.364 119.711 38.548 120.023 38.676C120.335 38.796 120.731 38.856 121.211 38.856ZM133.061 45.288C132.125 45.288 131.281 45.204 130.529 45.036C129.777 44.876 129.133 44.688 128.597 44.472L128.285 41.388C128.901 41.644 129.581 41.876 130.325 42.084C131.077 42.284 131.889 42.384 132.761 42.384C133.457 42.384 133.949 42.312 134.237 42.168C134.533 42.016 134.681 41.784 134.681 41.472V41.424C134.681 41.208 134.605 41.032 134.453 40.896C134.309 40.752 134.053 40.624 133.685 40.512C133.325 40.4 132.817 40.268 132.161 40.116C131.177 39.884 130.397 39.612 129.821 39.3C129.245 38.98 128.833 38.592 128.585 38.136C128.345 37.672 128.225 37.124 128.225 36.492V36.396C128.225 35.228 128.641 34.356 129.473 33.78C130.305 33.196 131.529 32.904 133.145 32.904C134.057 32.904 134.877 32.988 135.605 33.156C136.333 33.324 136.945 33.524 137.441 33.756L137.753 36.624C137.177 36.368 136.533 36.156 135.821 35.988C135.117 35.82 134.377 35.736 133.601 35.736C133.129 35.736 132.757 35.768 132.485 35.832C132.221 35.896 132.033 35.988 131.921 36.108C131.817 36.228 131.765 36.376 131.765 36.552V36.588C131.765 36.78 131.829 36.944 131.957 37.08C132.085 37.216 132.317 37.344 132.653 37.464C132.997 37.584 133.489 37.72 134.129 37.872C135.121 38.088 135.921 38.336 136.529 38.616C137.137 38.888 137.581 39.244 137.861 39.684C138.141 40.116 138.281 40.692 138.281 41.412V41.52C138.281 42.792 137.853 43.74 136.997 44.364C136.141 44.98 134.829 45.288 133.061 45.288Z" fill="white"/>
<g clip-path="url(#clip0_73_190)">
<path d="M55 110C55 120.609 59.2143 130.783 66.7157 138.284C74.2172 145.786 84.3913 150 95 150C105.609 150 115.783 145.786 123.284 138.284C130.786 130.783 135 120.609 135 110C135 99.3913 130.786 89.2172 123.284 81.7157C115.783 74.2143 105.609 70 95 70C84.3913 70 74.2172 74.2143 66.7157 81.7157C59.2143 89.2172 55 99.3913 55 110Z" fill="#808080"/>
<path d="M80.7141 98.5714C80.7141 102.36 82.2192 105.994 84.8983 108.673C87.5774 111.352 91.211 112.857 94.9998 112.857C98.7886 112.857 102.422 111.352 105.101 108.673C107.78 105.994 109.286 102.36 109.286 98.5714C109.286 94.7826 107.78 91.149 105.101 88.4699C102.422 85.7908 98.7886 84.2857 94.9998 84.2857C91.211 84.2857 87.5774 85.7908 84.8983 88.4699C82.2192 91.149 80.7141 94.7826 80.7141 98.5714Z" fill="white"/>
<path d="M119.246 130C116.3 126.422 112.598 123.541 108.405 121.565C104.213 119.589 99.6348 118.567 95.0001 118.571C90.3654 118.567 85.7873 119.589 81.595 121.565C77.4027 123.541 73.7004 126.422 70.7544 130C73.7004 133.578 77.4027 136.459 81.595 138.435C85.7873 140.411 90.3654 141.433 95.0001 141.429C99.6348 141.433 104.213 140.411 108.405 138.435C112.598 136.459 116.3 133.578 119.246 130Z" fill="white"/>
</g>
<rect x="35" y="160" width="120" height="50" rx="25" fill="#808080"/>
<rect x="49" y="170" width="50" height="30" rx="15" fill="white"/>
<rect x="10" y="220" width="170" height="50" rx="25" fill="#808080"/>
<path d="M35.404 252.336C33.22 252.336 31.592 251.76 30.52 250.608C29.456 249.448 28.924 247.796 28.924 245.652V242.928C28.924 240.824 29.46 239.2 30.532 238.056C31.604 236.904 33.22 236.328 35.38 236.328C35.956 236.328 36.488 236.372 36.976 236.46C37.464 236.548 37.908 236.668 38.308 236.82C38.708 236.964 39.06 237.128 39.364 237.312L39.64 240.528C39.168 240.28 38.648 240.064 38.08 239.88C37.52 239.688 36.868 239.592 36.124 239.592C34.98 239.592 34.132 239.9 33.58 240.516C33.036 241.124 32.764 241.98 32.764 243.084V245.508C32.764 246.604 33.04 247.46 33.592 248.076C34.152 248.692 35.044 249 36.268 249C36.988 249 37.632 248.904 38.2 248.712C38.768 248.52 39.288 248.288 39.76 248.016L39.484 251.304C39.18 251.488 38.824 251.66 38.416 251.82C38.008 251.972 37.552 252.096 37.048 252.192C36.552 252.288 36.004 252.336 35.404 252.336ZM45.3533 252H41.6813V236.148H45.3533V252ZM53.6659 252.3C51.5219 252.3 49.9379 251.824 48.9139 250.872C47.8899 249.912 47.3779 248.516 47.3779 246.684V245.46C47.3779 243.652 47.8579 242.268 48.8179 241.308C49.7779 240.34 51.1739 239.856 53.0059 239.856C54.2379 239.856 55.2619 240.068 56.0779 240.492C56.9019 240.908 57.5179 241.504 57.9259 242.28C58.3419 243.056 58.5499 243.988 58.5499 245.076V245.472C58.5499 245.776 58.5339 246.088 58.5019 246.408C58.4779 246.72 58.4419 247.012 58.3939 247.284H55.0819C55.1139 246.82 55.1339 246.384 55.1419 245.976C55.1499 245.56 55.1539 245.184 55.1539 244.848C55.1539 244.36 55.0779 243.952 54.9259 243.624C54.7739 243.288 54.5379 243.032 54.2179 242.856C53.9059 242.68 53.5019 242.592 53.0059 242.592C52.2699 242.592 51.7299 242.792 51.3859 243.192C51.0499 243.584 50.8819 244.144 50.8819 244.872V245.952L50.9059 246.348V247.188C50.9059 247.492 50.9539 247.78 51.0499 248.052C51.1539 248.324 51.3299 248.564 51.5779 248.772C51.8339 248.972 52.1819 249.132 52.6219 249.252C53.0699 249.364 53.6379 249.42 54.3259 249.42C55.0539 249.42 55.7539 249.352 56.4259 249.216C57.0979 249.072 57.7419 248.88 58.3579 248.64L58.0579 251.4C57.5139 251.68 56.8699 251.9 56.1259 252.06C55.3819 252.22 54.5619 252.3 53.6659 252.3ZM57.6499 247.284H49.3219V245.016H57.6499V247.284ZM70.8342 252H67.2222L67.3302 249.048L67.2462 248.868V245.184L67.2222 244.704C67.2222 244.048 67.0302 243.564 66.6462 243.252C66.2622 242.94 65.6182 242.784 64.7142 242.784C63.9222 242.784 63.1702 242.884 62.4582 243.084C61.7462 243.284 61.0742 243.512 60.4422 243.768L60.7542 240.924C61.1302 240.748 61.5502 240.584 62.0142 240.432C62.4862 240.272 63.0062 240.144 63.5742 240.048C64.1422 239.952 64.7502 239.904 65.3982 239.904C66.4302 239.904 67.2942 240.024 67.9902 240.264C68.6862 240.504 69.2422 240.844 69.6582 241.284C70.0742 241.724 70.3742 242.252 70.5582 242.868C70.7422 243.476 70.8342 244.148 70.8342 244.884V252ZM63.4662 252.276C62.2902 252.276 61.3982 251.98 60.7902 251.388C60.1822 250.796 59.8782 249.952 59.8782 248.856V248.532C59.8782 247.372 60.2342 246.516 60.9462 245.964C61.6662 245.404 62.8062 245.024 64.3662 244.824L67.5342 244.404L67.7502 246.612L64.9422 247.02C64.3742 247.092 63.9742 247.224 63.7422 247.416C63.5102 247.608 63.3942 247.892 63.3942 248.268V248.352C63.3942 248.712 63.5102 249 63.7422 249.216C63.9742 249.424 64.3462 249.528 64.8582 249.528C65.3062 249.528 65.6902 249.46 66.0102 249.324C66.3382 249.188 66.6062 249.012 66.8142 248.796C67.0222 248.572 67.1782 248.324 67.2822 248.052L67.7982 249.54H67.1982C67.0702 250.052 66.8702 250.516 66.5982 250.932C66.3342 251.348 65.9502 251.676 65.4462 251.916C64.9422 252.156 64.2822 252.276 63.4662 252.276ZM76.7224 245.376L75.7144 243.144H76.5784C76.7704 242.168 77.1424 241.404 77.6944 240.852C78.2544 240.292 79.0424 240.012 80.0584 240.012C80.2344 240.012 80.3944 240.024 80.5384 240.048C80.6904 240.072 80.8344 240.1 80.9704 240.132L81.1504 243.84C80.9824 243.792 80.7864 243.76 80.5624 243.744C80.3384 243.72 80.1104 243.708 79.8784 243.708C79.0944 243.708 78.4344 243.856 77.8984 244.152C77.3624 244.44 76.9704 244.848 76.7224 245.376ZM76.7944 252H73.1224V240.204H76.5784L76.4224 243.972L76.7944 244.02V252ZM91.5308 236.664V252H87.7748V236.664H91.5308ZM100.675 236.664V252H96.9068V236.664H100.675ZM89.9348 245.724V242.592H98.3228V245.724H89.9348ZM106.971 252H103.299V240.204H106.971V252ZM105.135 239.088C104.447 239.088 103.947 238.932 103.635 238.62C103.323 238.3 103.167 237.872 103.167 237.336V237.252C103.167 236.716 103.323 236.292 103.635 235.98C103.947 235.668 104.447 235.512 105.135 235.512C105.807 235.512 106.299 235.668 106.611 235.98C106.931 236.292 107.091 236.716 107.091 237.252V237.336C107.091 237.88 106.931 238.308 106.611 238.62C106.299 238.932 105.807 239.088 105.135 239.088ZM113.604 252.288C112.668 252.288 111.824 252.204 111.072 252.036C110.32 251.876 109.676 251.688 109.14 251.472L108.828 248.388C109.444 248.644 110.124 248.876 110.868 249.084C111.62 249.284 112.432 249.384 113.304 249.384C114 249.384 114.492 249.312 114.78 249.168C115.076 249.016 115.224 248.784 115.224 248.472V248.424C115.224 248.208 115.148 248.032 114.996 247.896C114.852 247.752 114.596 247.624 114.228 247.512C113.868 247.4 113.36 247.268 112.704 247.116C111.72 246.884 110.94 246.612 110.364 246.3C109.788 245.98 109.376 245.592 109.128 245.136C108.888 244.672 108.768 244.124 108.768 243.492V243.396C108.768 242.228 109.184 241.356 110.016 240.78C110.848 240.196 112.072 239.904 113.688 239.904C114.6 239.904 115.42 239.988 116.148 240.156C116.876 240.324 117.488 240.524 117.984 240.756L118.296 243.624C117.72 243.368 117.076 243.156 116.364 242.988C115.66 242.82 114.92 242.736 114.144 242.736C113.672 242.736 113.3 242.768 113.028 242.832C112.764 242.896 112.576 242.988 112.464 243.108C112.36 243.228 112.308 243.376 112.308 243.552V243.588C112.308 243.78 112.372 243.944 112.5 244.08C112.628 244.216 112.86 244.344 113.196 244.464C113.54 244.584 114.032 244.72 114.672 244.872C115.664 245.088 116.464 245.336 117.072 245.616C117.68 245.888 118.124 246.244 118.404 246.684C118.684 247.116 118.824 247.692 118.824 248.412V248.52C118.824 249.792 118.396 250.74 117.54 251.364C116.684 251.98 115.372 252.288 113.604 252.288ZM125.159 252.264C124.111 252.264 123.275 252.108 122.651 251.796C122.035 251.476 121.591 251 121.319 250.368C121.047 249.736 120.911 248.956 120.911 248.028V241.44H124.559V247.44C124.559 248.016 124.687 248.44 124.943 248.712C125.207 248.976 125.695 249.108 126.407 249.108C126.799 249.108 127.187 249.064 127.571 248.976C127.955 248.888 128.303 248.776 128.615 248.64L128.303 251.676C127.895 251.852 127.423 251.992 126.887 252.096C126.359 252.208 125.783 252.264 125.159 252.264ZM128.183 243.132H119.327V240.252H128.507L128.183 243.132ZM124.451 240.516H120.959L120.947 237.468L124.583 237.12L124.451 240.516ZM135.345 252.336C133.441 252.336 132.001 251.864 131.025 250.92C130.057 249.968 129.573 248.632 129.573 246.912V245.364C129.573 243.62 130.061 242.268 131.037 241.308C132.013 240.34 133.449 239.856 135.345 239.856C137.241 239.856 138.673 240.34 139.641 241.308C140.617 242.268 141.105 243.62 141.105 245.364V246.912C141.105 248.632 140.621 249.968 139.653 250.92C138.685 251.864 137.249 252.336 135.345 252.336ZM135.345 249.444C136.025 249.444 136.541 249.24 136.893 248.832C137.253 248.416 137.433 247.828 137.433 247.068V245.208C137.433 244.408 137.253 243.8 136.893 243.384C136.541 242.968 136.025 242.76 135.345 242.76C134.665 242.76 134.145 242.968 133.785 243.384C133.433 243.8 133.257 244.408 133.257 245.208V247.068C133.257 247.828 133.433 248.416 133.785 248.832C134.145 249.24 134.665 249.444 135.345 249.444ZM146.73 245.376L145.722 243.144H146.586C146.778 242.168 147.15 241.404 147.702 240.852C148.262 240.292 149.05 240.012 150.066 240.012C150.242 240.012 150.402 240.024 150.546 240.048C150.698 240.072 150.842 240.1 150.978 240.132L151.158 243.84C150.99 243.792 150.794 243.76 150.57 243.744C150.346 243.72 150.118 243.708 149.886 243.708C149.102 243.708 148.442 243.856 147.906 244.152C147.37 244.44 146.978 244.848 146.73 245.376ZM146.802 252H143.13V240.204H146.586L146.43 243.972L146.802 244.02V252ZM157.611 249.06H159.531L157.562 249.912L160.215 240.204H163.971L159.159 256.128H155.487L157.323 250.128L159.051 251.496H154.983L151.791 240.204H155.571L157.611 249.06Z" fill="white"/>
<rect x="10" y="280" width="170" height="50" rx="25" fill="#808080"/>
<path d="M62.908 312H59.236V296.148H62.908V312ZM70.7046 312.336C68.8006 312.336 67.3606 311.864 66.3846 310.92C65.4166 309.968 64.9326 308.632 64.9326 306.912V305.364C64.9326 303.62 65.4206 302.268 66.3966 301.308C67.3726 300.34 68.8086 299.856 70.7046 299.856C72.6006 299.856 74.0326 300.34 75.0006 301.308C75.9766 302.268 76.4646 303.62 76.4646 305.364V306.912C76.4646 308.632 75.9806 309.968 75.0126 310.92C74.0446 311.864 72.6086 312.336 70.7046 312.336ZM70.7046 309.444C71.3846 309.444 71.9006 309.24 72.2526 308.832C72.6126 308.416 72.7926 307.828 72.7926 307.068V305.208C72.7926 304.408 72.6126 303.8 72.2526 303.384C71.9006 302.968 71.3846 302.76 70.7046 302.76C70.0246 302.76 69.5046 302.968 69.1446 303.384C68.7926 303.8 68.6166 304.408 68.6166 305.208V307.068C68.6166 307.828 68.7926 308.416 69.1446 308.832C69.5046 309.24 70.0246 309.444 70.7046 309.444ZM83.7331 308.328C81.8371 308.328 80.4131 307.976 79.4611 307.272C78.5091 306.568 78.0331 305.58 78.0331 304.308V304.152C78.0331 303.288 78.2251 302.56 78.6091 301.968C79.0011 301.368 79.6011 300.904 80.4091 300.576C81.2171 300.248 82.2531 300.052 83.5171 299.988L89.8171 299.7V302.292L86.6851 302.208V302.328C87.2211 302.416 87.6611 302.568 88.0051 302.784C88.3571 302.992 88.6171 303.268 88.7851 303.612C88.9611 303.948 89.0491 304.364 89.0491 304.86V304.944C89.0491 306.04 88.6131 306.88 87.7411 307.464C86.8771 308.04 85.5411 308.328 83.7331 308.328ZM83.5531 313.908H83.9131C84.4891 313.908 84.9531 313.872 85.3051 313.8C85.6651 313.728 85.9291 313.62 86.0971 313.476C86.2651 313.332 86.3491 313.152 86.3491 312.936V312.912C86.3491 312.632 86.2291 312.432 85.9891 312.312C85.7571 312.192 85.4051 312.112 84.9331 312.072L81.4531 311.724L82.2571 311.676C82.0171 311.716 81.8091 311.784 81.6331 311.88C81.4651 311.976 81.3291 312.096 81.2251 312.24C81.1291 312.384 81.0811 312.56 81.0811 312.768V312.792C81.0811 313.032 81.1691 313.236 81.3451 313.404C81.5211 313.572 81.7891 313.696 82.1491 313.776C82.5171 313.864 82.9851 313.908 83.5531 313.908ZM83.8291 316.596H83.3731C82.1891 316.596 81.1771 316.5 80.3371 316.308C79.5051 316.124 78.8731 315.828 78.4411 315.42C78.0091 315.012 77.7931 314.472 77.7931 313.8V313.752C77.7931 313.296 77.8931 312.912 78.0931 312.6C78.2931 312.288 78.5811 312.044 78.9571 311.868C79.3331 311.692 79.7731 311.584 80.2771 311.544V311.424C79.6611 311.312 79.1851 311.116 78.8491 310.836C78.5211 310.556 78.3571 310.164 78.3571 309.66V309.648C78.3571 309.288 78.4371 308.984 78.5971 308.736C78.7651 308.488 79.0091 308.3 79.3291 308.172C79.6491 308.036 80.0411 307.956 80.5051 307.932V307.536L83.2171 308.22L82.4251 308.208C82.1451 308.208 81.9451 308.244 81.8251 308.316C81.7131 308.388 81.6571 308.496 81.6571 308.64V308.652C81.6571 308.828 81.7491 308.956 81.9331 309.036C82.1251 309.108 82.4331 309.168 82.8571 309.216L85.6531 309.54C87.0131 309.7 88.0251 310.036 88.6891 310.548C89.3531 311.06 89.6851 311.852 89.6851 312.924V312.996C89.6851 313.812 89.4531 314.484 88.9891 315.012C88.5331 315.548 87.8691 315.944 86.9971 316.2C86.1331 316.464 85.0771 316.596 83.8291 316.596ZM83.6131 305.856C84.0851 305.856 84.4731 305.796 84.7771 305.676C85.0891 305.548 85.3211 305.364 85.4731 305.124C85.6331 304.876 85.7131 304.58 85.7131 304.236V304.128C85.7131 303.784 85.6371 303.492 85.4851 303.252C85.3331 303.012 85.1011 302.832 84.7891 302.712C84.4851 302.584 84.0931 302.52 83.6131 302.52H83.6011C83.1131 302.52 82.7131 302.584 82.4011 302.712C82.0891 302.84 81.8571 303.024 81.7051 303.264C81.5611 303.504 81.4891 303.796 81.4891 304.14V304.236C81.4891 304.58 81.5651 304.876 81.7171 305.124C81.8771 305.364 82.1131 305.548 82.4251 305.676C82.7371 305.796 83.1331 305.856 83.6131 305.856ZM101.572 312.336C99.6678 312.336 98.2278 311.864 97.2518 310.92C96.2838 309.968 95.7998 308.632 95.7998 306.912V305.364C95.7998 303.62 96.2878 302.268 97.2638 301.308C98.2398 300.34 99.6758 299.856 101.572 299.856C103.468 299.856 104.9 300.34 105.868 301.308C106.844 302.268 107.332 303.62 107.332 305.364V306.912C107.332 308.632 106.848 309.968 105.88 310.92C104.912 311.864 103.476 312.336 101.572 312.336ZM101.572 309.444C102.252 309.444 102.768 309.24 103.12 308.832C103.48 308.416 103.66 307.828 103.66 307.068V305.208C103.66 304.408 103.48 303.8 103.12 303.384C102.768 302.968 102.252 302.76 101.572 302.76C100.892 302.76 100.372 302.968 100.012 303.384C99.6598 303.8 99.4838 304.408 99.4838 305.208V307.068C99.4838 307.828 99.6598 308.416 100.012 308.832C100.372 309.24 100.892 309.444 101.572 309.444ZM109.249 300.204H112.921V307.14C112.921 307.572 112.977 307.948 113.089 308.268C113.201 308.58 113.389 308.824 113.653 309C113.917 309.168 114.277 309.252 114.733 309.252C115.117 309.252 115.449 309.184 115.729 309.048C116.017 308.912 116.257 308.728 116.449 308.496C116.649 308.264 116.797 308.008 116.893 307.728L117.457 309.444H116.833C116.705 309.972 116.493 310.452 116.197 310.884C115.909 311.316 115.509 311.656 114.997 311.904C114.493 312.152 113.845 312.276 113.053 312.276C112.181 312.276 111.461 312.108 110.893 311.772C110.333 311.428 109.917 310.92 109.645 310.248C109.381 309.576 109.249 308.736 109.249 307.728V300.204ZM116.833 300.204H120.505V312H116.857L116.977 309.048L116.833 308.712V300.204ZM127.737 312.264C126.689 312.264 125.853 312.108 125.229 311.796C124.613 311.476 124.169 311 123.897 310.368C123.625 309.736 123.489 308.956 123.489 308.028V301.44H127.137V307.44C127.137 308.016 127.265 308.44 127.521 308.712C127.785 308.976 128.273 309.108 128.985 309.108C129.377 309.108 129.765 309.064 130.149 308.976C130.533 308.888 130.881 308.776 131.193 308.64L130.881 311.676C130.473 311.852 130.001 311.992 129.465 312.096C128.937 312.208 128.361 312.264 127.737 312.264ZM130.761 303.132H121.905V300.252H131.085L130.761 303.132ZM127.029 300.516H123.537L123.525 297.468L127.161 297.12L127.029 300.516Z" fill="white"/>
<rect width="170" height="50" rx="25" transform="matrix(-1 0 0 1 180 340)" fill="#808080"/>
<path d="M76.148 357.664V373H72.392V357.664H76.148ZM85.292 357.664V373H81.524V357.664H85.292ZM74.552 366.724V363.592H82.94V366.724H74.552ZM93.7363 373.3C91.5923 373.3 90.0083 372.824 88.9843 371.872C87.9603 370.912 87.4482 369.516 87.4482 367.684V366.46C87.4482 364.652 87.9283 363.268 88.8883 362.308C89.8483 361.34 91.2443 360.856 93.0763 360.856C94.3083 360.856 95.3323 361.068 96.1483 361.492C96.9723 361.908 97.5883 362.504 97.9963 363.28C98.4123 364.056 98.6203 364.988 98.6203 366.076V366.472C98.6203 366.776 98.6043 367.088 98.5723 367.408C98.5483 367.72 98.5123 368.012 98.4643 368.284H95.1523C95.1843 367.82 95.2043 367.384 95.2123 366.976C95.2203 366.56 95.2243 366.184 95.2243 365.848C95.2243 365.36 95.1483 364.952 94.9963 364.624C94.8443 364.288 94.6083 364.032 94.2883 363.856C93.9763 363.68 93.5723 363.592 93.0763 363.592C92.3403 363.592 91.8003 363.792 91.4563 364.192C91.1203 364.584 90.9523 365.144 90.9523 365.872V366.952L90.9763 367.348V368.188C90.9763 368.492 91.0243 368.78 91.1203 369.052C91.2243 369.324 91.4003 369.564 91.6483 369.772C91.9043 369.972 92.2523 370.132 92.6923 370.252C93.1403 370.364 93.7083 370.42 94.3963 370.42C95.1243 370.42 95.8243 370.352 96.4963 370.216C97.1683 370.072 97.8123 369.88 98.4283 369.64L98.1283 372.4C97.5843 372.68 96.9403 372.9 96.1963 373.06C95.4523 373.22 94.6323 373.3 93.7363 373.3ZM97.7203 368.284H89.3923V366.016H97.7203V368.284ZM104.291 373H100.619V357.148H104.291V373ZM113.959 373.276C113.255 373.276 112.663 373.16 112.183 372.928C111.703 372.696 111.319 372.368 111.031 371.944C110.751 371.512 110.551 371.012 110.431 370.444H109.483L110.347 367.972C110.363 368.46 110.455 368.872 110.623 369.208C110.799 369.544 111.047 369.804 111.367 369.988C111.695 370.164 112.083 370.252 112.531 370.252C113.203 370.252 113.711 370.056 114.055 369.664C114.407 369.264 114.583 368.672 114.583 367.888V366.208C114.583 365.424 114.411 364.836 114.067 364.444C113.731 364.052 113.227 363.856 112.555 363.856C112.179 363.856 111.835 363.928 111.523 364.072C111.219 364.216 110.959 364.408 110.743 364.648C110.535 364.88 110.383 365.148 110.287 365.452L109.447 363.76H110.419C110.539 363.232 110.739 362.756 111.019 362.332C111.299 361.9 111.687 361.56 112.183 361.312C112.679 361.056 113.311 360.928 114.079 360.928C115.455 360.928 116.495 361.38 117.199 362.284C117.911 363.18 118.267 364.528 118.267 366.328V367.768C118.267 369.584 117.911 370.956 117.199 371.884C116.495 372.812 115.415 373.276 113.959 373.276ZM110.395 377.128H106.747V361.204H110.395L110.275 364.384L110.347 364.804V369.34L110.299 369.964L110.395 373.12V377.128Z" fill="white"/>
<defs>
<clipPath id="clip0_73_190">
<rect width="80" height="80" fill="white" transform="translate(55 70)"/>
</clipPath>
</defs>
</svg>
