<svg width="190" height="340" viewBox="0 0 190 340" fill="none" xmlns="http://www.w3.org/2000/svg">
<path d="M0 0H190V340H25C11.1929 340 0 328.807 0 315V0Z" fill="#808080"/>
<g clip-path="url(#clip0_86_421)">
<path d="M55 50C55 60.6087 59.2143 70.7828 66.7157 78.2843C74.2172 85.7857 84.3913 90 95 90C105.609 90 115.783 85.7857 123.284 78.2843C130.786 70.7828 135 60.6087 135 50C135 39.3913 130.786 29.2172 123.284 21.7157C115.783 14.2143 105.609 10 95 10C84.3913 10 74.2172 14.2143 66.7157 21.7157C59.2143 29.2172 55 39.3913 55 50Z" fill="#154734"/>
<path d="M80.7141 38.5714C80.7141 42.3602 82.2192 45.9939 84.8983 48.673C87.5774 51.3521 91.211 52.8571 94.9998 52.8571C98.7886 52.8571 102.422 51.3521 105.101 48.673C107.78 45.9939 109.286 42.3602 109.286 38.5714C109.286 34.7826 107.78 31.149 105.101 28.4699C102.422 25.7908 98.7886 24.2857 94.9998 24.2857C91.211 24.2857 87.5774 25.7908 84.8983 28.4699C82.2192 31.149 80.7141 34.7826 80.7141 38.5714Z" fill="#E87500"/>
<path d="M119.246 70C116.3 66.4221 112.598 63.5414 108.405 61.5653C104.213 59.5892 99.6348 58.5667 95.0001 58.5714C90.3654 58.5667 85.7873 59.5892 81.595 61.5653C77.4027 63.5414 73.7004 66.4221 70.7544 70C73.7004 73.5779 77.4027 76.4586 81.595 78.4347C85.7873 80.4108 90.3654 81.4333 95.0001 81.4286C99.6348 81.4333 104.213 80.4108 108.405 78.4347C112.598 76.4586 116.3 73.5779 119.246 70Z" fill="#E87500"/>
</g>
<rect x="35" y="100" width="120" height="50" rx="25" fill="#154734"/>
<rect x="91" y="110" width="50" height="30" rx="15" fill="#E87500"/>
<rect x="10" y="160" width="170" height="50" rx="25" fill="#154734"/>
<path d="M35.404 192.336C33.22 192.336 31.592 191.76 30.52 190.608C29.456 189.448 28.924 187.796 28.924 185.652V182.928C28.924 180.824 29.46 179.2 30.532 178.056C31.604 176.904 33.22 176.328 35.38 176.328C35.956 176.328 36.488 176.372 36.976 176.46C37.464 176.548 37.908 176.668 38.308 176.82C38.708 176.964 39.06 177.128 39.364 177.312L39.64 180.528C39.168 180.28 38.648 180.064 38.08 179.88C37.52 179.688 36.868 179.592 36.124 179.592C34.98 179.592 34.132 179.9 33.58 180.516C33.036 181.124 32.764 181.98 32.764 183.084V185.508C32.764 186.604 33.04 187.46 33.592 188.076C34.152 188.692 35.044 189 36.268 189C36.988 189 37.632 188.904 38.2 188.712C38.768 188.52 39.288 188.288 39.76 188.016L39.484 191.304C39.18 191.488 38.824 191.66 38.416 191.82C38.008 191.972 37.552 192.096 37.048 192.192C36.552 192.288 36.004 192.336 35.404 192.336ZM45.3533 192H41.6813V176.148H45.3533V192ZM53.6659 192.3C51.5219 192.3 49.9379 191.824 48.9139 190.872C47.8899 189.912 47.3779 188.516 47.3779 186.684V185.46C47.3779 183.652 47.8579 182.268 48.8179 181.308C49.7779 180.34 51.1739 179.856 53.0059 179.856C54.2379 179.856 55.2619 180.068 56.0779 180.492C56.9019 180.908 57.5179 181.504 57.9259 182.28C58.3419 183.056 58.5499 183.988 58.5499 185.076V185.472C58.5499 185.776 58.5339 186.088 58.5019 186.408C58.4779 186.72 58.4419 187.012 58.3939 187.284H55.0819C55.1139 186.82 55.1339 186.384 55.1419 185.976C55.1499 185.56 55.1539 185.184 55.1539 184.848C55.1539 184.36 55.0779 183.952 54.9259 183.624C54.7739 183.288 54.5379 183.032 54.2179 182.856C53.9059 182.68 53.5019 182.592 53.0059 182.592C52.2699 182.592 51.7299 182.792 51.3859 183.192C51.0499 183.584 50.8819 184.144 50.8819 184.872V185.952L50.9059 186.348V187.188C50.9059 187.492 50.9539 187.78 51.0499 188.052C51.1539 188.324 51.3299 188.564 51.5779 188.772C51.8339 188.972 52.1819 189.132 52.6219 189.252C53.0699 189.364 53.6379 189.42 54.3259 189.42C55.0539 189.42 55.7539 189.352 56.4259 189.216C57.0979 189.072 57.7419 188.88 58.3579 188.64L58.0579 191.4C57.5139 191.68 56.8699 191.9 56.1259 192.06C55.3819 192.22 54.5619 192.3 53.6659 192.3ZM57.6499 187.284H49.3219V185.016H57.6499V187.284ZM70.8342 192H67.2222L67.3302 189.048L67.2462 188.868V185.184L67.2222 184.704C67.2222 184.048 67.0302 183.564 66.6462 183.252C66.2622 182.94 65.6182 182.784 64.7142 182.784C63.9222 182.784 63.1702 182.884 62.4582 183.084C61.7462 183.284 61.0742 183.512 60.4422 183.768L60.7542 180.924C61.1302 180.748 61.5502 180.584 62.0142 180.432C62.4862 180.272 63.0062 180.144 63.5742 180.048C64.1422 179.952 64.7502 179.904 65.3982 179.904C66.4302 179.904 67.2942 180.024 67.9902 180.264C68.6862 180.504 69.2422 180.844 69.6582 181.284C70.0742 181.724 70.3742 182.252 70.5582 182.868C70.7422 183.476 70.8342 184.148 70.8342 184.884V192ZM63.4662 192.276C62.2902 192.276 61.3982 191.98 60.7902 191.388C60.1822 190.796 59.8782 189.952 59.8782 188.856V188.532C59.8782 187.372 60.2342 186.516 60.9462 185.964C61.6662 185.404 62.8062 185.024 64.3662 184.824L67.5342 184.404L67.7502 186.612L64.9422 187.02C64.3742 187.092 63.9742 187.224 63.7422 187.416C63.5102 187.608 63.3942 187.892 63.3942 188.268V188.352C63.3942 188.712 63.5102 189 63.7422 189.216C63.9742 189.424 64.3462 189.528 64.8582 189.528C65.3062 189.528 65.6902 189.46 66.0102 189.324C66.3382 189.188 66.6062 189.012 66.8142 188.796C67.0222 188.572 67.1782 188.324 67.2822 188.052L67.7982 189.54H67.1982C67.0702 190.052 66.8702 190.516 66.5982 190.932C66.3342 191.348 65.9502 191.676 65.4462 191.916C64.9422 192.156 64.2822 192.276 63.4662 192.276ZM76.7224 185.376L75.7144 183.144H76.5784C76.7704 182.168 77.1424 181.404 77.6944 180.852C78.2544 180.292 79.0424 180.012 80.0584 180.012C80.2344 180.012 80.3944 180.024 80.5384 180.048C80.6904 180.072 80.8344 180.1 80.9704 180.132L81.1504 183.84C80.9824 183.792 80.7864 183.76 80.5624 183.744C80.3384 183.72 80.1104 183.708 79.8784 183.708C79.0944 183.708 78.4344 183.856 77.8984 184.152C77.3624 184.44 76.9704 184.848 76.7224 185.376ZM76.7944 192H73.1224V180.204H76.5784L76.4224 183.972L76.7944 184.02V192ZM91.5308 176.664V192H87.7748V176.664H91.5308ZM100.675 176.664V192H96.9068V176.664H100.675ZM89.9348 185.724V182.592H98.3228V185.724H89.9348ZM106.971 192H103.299V180.204H106.971V192ZM105.135 179.088C104.447 179.088 103.947 178.932 103.635 178.62C103.323 178.3 103.167 177.872 103.167 177.336V177.252C103.167 176.716 103.323 176.292 103.635 175.98C103.947 175.668 104.447 175.512 105.135 175.512C105.807 175.512 106.299 175.668 106.611 175.98C106.931 176.292 107.091 176.716 107.091 177.252V177.336C107.091 177.88 106.931 178.308 106.611 178.62C106.299 178.932 105.807 179.088 105.135 179.088ZM113.604 192.288C112.668 192.288 111.824 192.204 111.072 192.036C110.32 191.876 109.676 191.688 109.14 191.472L108.828 188.388C109.444 188.644 110.124 188.876 110.868 189.084C111.62 189.284 112.432 189.384 113.304 189.384C114 189.384 114.492 189.312 114.78 189.168C115.076 189.016 115.224 188.784 115.224 188.472V188.424C115.224 188.208 115.148 188.032 114.996 187.896C114.852 187.752 114.596 187.624 114.228 187.512C113.868 187.4 113.36 187.268 112.704 187.116C111.72 186.884 110.94 186.612 110.364 186.3C109.788 185.98 109.376 185.592 109.128 185.136C108.888 184.672 108.768 184.124 108.768 183.492V183.396C108.768 182.228 109.184 181.356 110.016 180.78C110.848 180.196 112.072 179.904 113.688 179.904C114.6 179.904 115.42 179.988 116.148 180.156C116.876 180.324 117.488 180.524 117.984 180.756L118.296 183.624C117.72 183.368 117.076 183.156 116.364 182.988C115.66 182.82 114.92 182.736 114.144 182.736C113.672 182.736 113.3 182.768 113.028 182.832C112.764 182.896 112.576 182.988 112.464 183.108C112.36 183.228 112.308 183.376 112.308 183.552V183.588C112.308 183.78 112.372 183.944 112.5 184.08C112.628 184.216 112.86 184.344 113.196 184.464C113.54 184.584 114.032 184.72 114.672 184.872C115.664 185.088 116.464 185.336 117.072 185.616C117.68 185.888 118.124 186.244 118.404 186.684C118.684 187.116 118.824 187.692 118.824 188.412V188.52C118.824 189.792 118.396 190.74 117.54 191.364C116.684 191.98 115.372 192.288 113.604 192.288ZM125.159 192.264C124.111 192.264 123.275 192.108 122.651 191.796C122.035 191.476 121.591 191 121.319 190.368C121.047 189.736 120.911 188.956 120.911 188.028V181.44H124.559V187.44C124.559 188.016 124.687 188.44 124.943 188.712C125.207 188.976 125.695 189.108 126.407 189.108C126.799 189.108 127.187 189.064 127.571 188.976C127.955 188.888 128.303 188.776 128.615 188.64L128.303 191.676C127.895 191.852 127.423 191.992 126.887 192.096C126.359 192.208 125.783 192.264 125.159 192.264ZM128.183 183.132H119.327V180.252H128.507L128.183 183.132ZM124.451 180.516H120.959L120.947 177.468L124.583 177.12L124.451 180.516ZM135.345 192.336C133.441 192.336 132.001 191.864 131.025 190.92C130.057 189.968 129.573 188.632 129.573 186.912V185.364C129.573 183.62 130.061 182.268 131.037 181.308C132.013 180.34 133.449 179.856 135.345 179.856C137.241 179.856 138.673 180.34 139.641 181.308C140.617 182.268 141.105 183.62 141.105 185.364V186.912C141.105 188.632 140.621 189.968 139.653 190.92C138.685 191.864 137.249 192.336 135.345 192.336ZM135.345 189.444C136.025 189.444 136.541 189.24 136.893 188.832C137.253 188.416 137.433 187.828 137.433 187.068V185.208C137.433 184.408 137.253 183.8 136.893 183.384C136.541 182.968 136.025 182.76 135.345 182.76C134.665 182.76 134.145 182.968 133.785 183.384C133.433 183.8 133.257 184.408 133.257 185.208V187.068C133.257 187.828 133.433 188.416 133.785 188.832C134.145 189.24 134.665 189.444 135.345 189.444ZM146.73 185.376L145.722 183.144H146.586C146.778 182.168 147.15 181.404 147.702 180.852C148.262 180.292 149.05 180.012 150.066 180.012C150.242 180.012 150.402 180.024 150.546 180.048C150.698 180.072 150.842 180.1 150.978 180.132L151.158 183.84C150.99 183.792 150.794 183.76 150.57 183.744C150.346 183.72 150.118 183.708 149.886 183.708C149.102 183.708 148.442 183.856 147.906 184.152C147.37 184.44 146.978 184.848 146.73 185.376ZM146.802 192H143.13V180.204H146.586L146.43 183.972L146.802 184.02V192ZM157.611 189.06H159.531L157.562 189.912L160.215 180.204H163.971L159.159 196.128H155.487L157.323 190.128L159.051 191.496H154.983L151.791 180.204H155.571L157.611 189.06Z" fill="#E87500"/>
<rect x="10" y="220" width="170" height="50" rx="25" fill="#154734"/>
<path d="M62.908 252H59.236V236.148H62.908V252ZM70.7046 252.336C68.8006 252.336 67.3606 251.864 66.3846 250.92C65.4166 249.968 64.9326 248.632 64.9326 246.912V245.364C64.9326 243.62 65.4206 242.268 66.3966 241.308C67.3726 240.34 68.8086 239.856 70.7046 239.856C72.6006 239.856 74.0326 240.34 75.0006 241.308C75.9766 242.268 76.4646 243.62 76.4646 245.364V246.912C76.4646 248.632 75.9806 249.968 75.0126 250.92C74.0446 251.864 72.6086 252.336 70.7046 252.336ZM70.7046 249.444C71.3846 249.444 71.9006 249.24 72.2526 248.832C72.6126 248.416 72.7926 247.828 72.7926 247.068V245.208C72.7926 244.408 72.6126 243.8 72.2526 243.384C71.9006 242.968 71.3846 242.76 70.7046 242.76C70.0246 242.76 69.5046 242.968 69.1446 243.384C68.7926 243.8 68.6166 244.408 68.6166 245.208V247.068C68.6166 247.828 68.7926 248.416 69.1446 248.832C69.5046 249.24 70.0246 249.444 70.7046 249.444ZM83.7331 248.328C81.8371 248.328 80.4131 247.976 79.4611 247.272C78.5091 246.568 78.0331 245.58 78.0331 244.308V244.152C78.0331 243.288 78.2251 242.56 78.6091 241.968C79.0011 241.368 79.6011 240.904 80.4091 240.576C81.2171 240.248 82.2531 240.052 83.5171 239.988L89.8171 239.7V242.292L86.6851 242.208V242.328C87.2211 242.416 87.6611 242.568 88.0051 242.784C88.3571 242.992 88.6171 243.268 88.7851 243.612C88.9611 243.948 89.0491 244.364 89.0491 244.86V244.944C89.0491 246.04 88.6131 246.88 87.7411 247.464C86.8771 248.04 85.5411 248.328 83.7331 248.328ZM83.5531 253.908H83.9131C84.4891 253.908 84.9531 253.872 85.3051 253.8C85.6651 253.728 85.9291 253.62 86.0971 253.476C86.2651 253.332 86.3491 253.152 86.3491 252.936V252.912C86.3491 252.632 86.2291 252.432 85.9891 252.312C85.7571 252.192 85.4051 252.112 84.9331 252.072L81.4531 251.724L82.2571 251.676C82.0171 251.716 81.8091 251.784 81.6331 251.88C81.4651 251.976 81.3291 252.096 81.2251 252.24C81.1291 252.384 81.0811 252.56 81.0811 252.768V252.792C81.0811 253.032 81.1691 253.236 81.3451 253.404C81.5211 253.572 81.7891 253.696 82.1491 253.776C82.5171 253.864 82.9851 253.908 83.5531 253.908ZM83.8291 256.596H83.3731C82.1891 256.596 81.1771 256.5 80.3371 256.308C79.5051 256.124 78.8731 255.828 78.4411 255.42C78.0091 255.012 77.7931 254.472 77.7931 253.8V253.752C77.7931 253.296 77.8931 252.912 78.0931 252.6C78.2931 252.288 78.5811 252.044 78.9571 251.868C79.3331 251.692 79.7731 251.584 80.2771 251.544V251.424C79.6611 251.312 79.1851 251.116 78.8491 250.836C78.5211 250.556 78.3571 250.164 78.3571 249.66V249.648C78.3571 249.288 78.4371 248.984 78.5971 248.736C78.7651 248.488 79.0091 248.3 79.3291 248.172C79.6491 248.036 80.0411 247.956 80.5051 247.932V247.536L83.2171 248.22L82.4251 248.208C82.1451 248.208 81.9451 248.244 81.8251 248.316C81.7131 248.388 81.6571 248.496 81.6571 248.64V248.652C81.6571 248.828 81.7491 248.956 81.9331 249.036C82.1251 249.108 82.4331 249.168 82.8571 249.216L85.6531 249.54C87.0131 249.7 88.0251 250.036 88.6891 250.548C89.3531 251.06 89.6851 251.852 89.6851 252.924V252.996C89.6851 253.812 89.4531 254.484 88.9891 255.012C88.5331 255.548 87.8691 255.944 86.9971 256.2C86.1331 256.464 85.0771 256.596 83.8291 256.596ZM83.6131 245.856C84.0851 245.856 84.4731 245.796 84.7771 245.676C85.0891 245.548 85.3211 245.364 85.4731 245.124C85.6331 244.876 85.7131 244.58 85.7131 244.236V244.128C85.7131 243.784 85.6371 243.492 85.4851 243.252C85.3331 243.012 85.1011 242.832 84.7891 242.712C84.4851 242.584 84.0931 242.52 83.6131 242.52H83.6011C83.1131 242.52 82.7131 242.584 82.4011 242.712C82.0891 242.84 81.8571 243.024 81.7051 243.264C81.5611 243.504 81.4891 243.796 81.4891 244.14V244.236C81.4891 244.58 81.5651 244.876 81.7171 245.124C81.8771 245.364 82.1131 245.548 82.4251 245.676C82.7371 245.796 83.1331 245.856 83.6131 245.856ZM101.572 252.336C99.6678 252.336 98.2278 251.864 97.2518 250.92C96.2838 249.968 95.7998 248.632 95.7998 246.912V245.364C95.7998 243.62 96.2878 242.268 97.2638 241.308C98.2398 240.34 99.6758 239.856 101.572 239.856C103.468 239.856 104.9 240.34 105.868 241.308C106.844 242.268 107.332 243.62 107.332 245.364V246.912C107.332 248.632 106.848 249.968 105.88 250.92C104.912 251.864 103.476 252.336 101.572 252.336ZM101.572 249.444C102.252 249.444 102.768 249.24 103.12 248.832C103.48 248.416 103.66 247.828 103.66 247.068V245.208C103.66 244.408 103.48 243.8 103.12 243.384C102.768 242.968 102.252 242.76 101.572 242.76C100.892 242.76 100.372 242.968 100.012 243.384C99.6598 243.8 99.4838 244.408 99.4838 245.208V247.068C99.4838 247.828 99.6598 248.416 100.012 248.832C100.372 249.24 100.892 249.444 101.572 249.444ZM109.249 240.204H112.921V247.14C112.921 247.572 112.977 247.948 113.089 248.268C113.201 248.58 113.389 248.824 113.653 249C113.917 249.168 114.277 249.252 114.733 249.252C115.117 249.252 115.449 249.184 115.729 249.048C116.017 248.912 116.257 248.728 116.449 248.496C116.649 248.264 116.797 248.008 116.893 247.728L117.457 249.444H116.833C116.705 249.972 116.493 250.452 116.197 250.884C115.909 251.316 115.509 251.656 114.997 251.904C114.493 252.152 113.845 252.276 113.053 252.276C112.181 252.276 111.461 252.108 110.893 251.772C110.333 251.428 109.917 250.92 109.645 250.248C109.381 249.576 109.249 248.736 109.249 247.728V240.204ZM116.833 240.204H120.505V252H116.857L116.977 249.048L116.833 248.712V240.204ZM127.737 252.264C126.689 252.264 125.853 252.108 125.229 251.796C124.613 251.476 124.169 251 123.897 250.368C123.625 249.736 123.489 248.956 123.489 248.028V241.44H127.137V247.44C127.137 248.016 127.265 248.44 127.521 248.712C127.785 248.976 128.273 249.108 128.985 249.108C129.377 249.108 129.765 249.064 130.149 248.976C130.533 248.888 130.881 248.776 131.193 248.64L130.881 251.676C130.473 251.852 130.001 251.992 129.465 252.096C128.937 252.208 128.361 252.264 127.737 252.264ZM130.761 243.132H121.905V240.252H131.085L130.761 243.132ZM127.029 240.516H123.537L123.525 237.468L127.161 237.12L127.029 240.516Z" fill="#E87500"/>
<rect width="170" height="50" rx="25" transform="matrix(-1 0 0 1 180 280)" fill="#154734"/>
<path d="M76.148 297.664V313H72.392V297.664H76.148ZM85.292 297.664V313H81.524V297.664H85.292ZM74.552 306.724V303.592H82.94V306.724H74.552ZM93.7363 313.3C91.5923 313.3 90.0083 312.824 88.9843 311.872C87.9603 310.912 87.4482 309.516 87.4482 307.684V306.46C87.4482 304.652 87.9283 303.268 88.8883 302.308C89.8483 301.34 91.2443 300.856 93.0763 300.856C94.3083 300.856 95.3323 301.068 96.1483 301.492C96.9723 301.908 97.5883 302.504 97.9963 303.28C98.4123 304.056 98.6203 304.988 98.6203 306.076V306.472C98.6203 306.776 98.6043 307.088 98.5723 307.408C98.5483 307.72 98.5123 308.012 98.4643 308.284H95.1523C95.1843 307.82 95.2043 307.384 95.2123 306.976C95.2203 306.56 95.2243 306.184 95.2243 305.848C95.2243 305.36 95.1483 304.952 94.9963 304.624C94.8443 304.288 94.6083 304.032 94.2883 303.856C93.9763 303.68 93.5723 303.592 93.0763 303.592C92.3403 303.592 91.8003 303.792 91.4563 304.192C91.1203 304.584 90.9523 305.144 90.9523 305.872V306.952L90.9763 307.348V308.188C90.9763 308.492 91.0243 308.78 91.1203 309.052C91.2243 309.324 91.4003 309.564 91.6483 309.772C91.9043 309.972 92.2523 310.132 92.6923 310.252C93.1403 310.364 93.7083 310.42 94.3963 310.42C95.1243 310.42 95.8243 310.352 96.4963 310.216C97.1683 310.072 97.8123 309.88 98.4283 309.64L98.1283 312.4C97.5843 312.68 96.9403 312.9 96.1963 313.06C95.4523 313.22 94.6323 313.3 93.7363 313.3ZM97.7203 308.284H89.3923V306.016H97.7203V308.284ZM104.291 313H100.619V297.148H104.291V313ZM113.959 313.276C113.255 313.276 112.663 313.16 112.183 312.928C111.703 312.696 111.319 312.368 111.031 311.944C110.751 311.512 110.551 311.012 110.431 310.444H109.483L110.347 307.972C110.363 308.46 110.455 308.872 110.623 309.208C110.799 309.544 111.047 309.804 111.367 309.988C111.695 310.164 112.083 310.252 112.531 310.252C113.203 310.252 113.711 310.056 114.055 309.664C114.407 309.264 114.583 308.672 114.583 307.888V306.208C114.583 305.424 114.411 304.836 114.067 304.444C113.731 304.052 113.227 303.856 112.555 303.856C112.179 303.856 111.835 303.928 111.523 304.072C111.219 304.216 110.959 304.408 110.743 304.648C110.535 304.88 110.383 305.148 110.287 305.452L109.447 303.76H110.419C110.539 303.232 110.739 302.756 111.019 302.332C111.299 301.9 111.687 301.56 112.183 301.312C112.679 301.056 113.311 300.928 114.079 300.928C115.455 300.928 116.495 301.38 117.199 302.284C117.911 303.18 118.267 304.528 118.267 306.328V307.768C118.267 309.584 117.911 310.956 117.199 311.884C116.495 312.812 115.415 313.276 113.959 313.276ZM110.395 317.128H106.747V301.204H110.395L110.275 304.384L110.347 304.804V309.34L110.299 309.964L110.395 313.12V317.128Z" fill="#E87500"/>
<defs>
<clipPath id="clip0_86_421">
<rect width="80" height="80" fill="white" transform="translate(55 10)"/>
</clipPath>
</defs>
</svg>
