<svg width="80" height="80" viewBox="0 0 80 80" fill="none" xmlns="http://www.w3.org/2000/svg">
<path fill-rule="evenodd" clip-rule="evenodd" d="M35.5093 21.9714L34.0684 25.3857L29.1078 27.9686L25.1555 27.4143C24.4964 27.3317 23.8254 27.431 23.228 27.6997C22.6305 27.9683 22.1337 28.3941 21.8007 28.9229L20.4625 31.0771C20.1189 31.6136 19.9606 32.2331 20.0083 32.8539C20.0561 33.4746 20.3078 34.0675 20.7302 34.5543L23.2416 37.4143V42.5857L20.7986 45.4457C20.3763 45.9325 20.1246 46.5254 20.0768 47.1461C20.029 47.7669 20.1874 48.3864 20.531 48.9229L21.8692 51.0771C22.2022 51.6059 22.699 52.0317 23.2964 52.3003C23.8939 52.569 24.5648 52.6683 25.224 52.5857L29.1763 52.0314L34.0715 54.6143L35.5124 58.0314C35.7549 58.6091 36.1818 59.1061 36.737 59.4573C37.2923 59.8085 37.9502 59.9977 38.6245 60H41.4409C42.1166 59.9986 42.7761 59.8096 43.3326 59.4577C43.8892 59.1059 44.3167 58.6077 44.5592 58.0286L46 54.6143L50.8922 52.0314L54.8445 52.5857C55.5036 52.6683 56.1746 52.569 56.772 52.3003C57.3695 52.0317 57.8663 51.6059 58.1993 51.0771L59.5375 48.9229C59.8811 48.3864 60.0394 47.7669 59.9917 47.1461C59.9439 46.5254 59.6922 45.9325 59.2698 45.4457L56.7584 42.5857V37.4143L59.2045 34.5543C59.6268 34.0675 59.8785 33.4746 59.9263 32.8539C59.9741 32.2331 59.8157 31.6136 59.4721 31.0771L58.1339 28.9229C57.8013 28.3939 57.3045 27.9679 56.707 27.6992C56.1095 27.4305 55.4383 27.3313 54.7791 27.4143L50.8268 27.9686L45.9316 25.3857L44.4907 21.9686C44.2476 21.3907 43.8202 20.8936 43.2644 20.5424C42.7086 20.1912 42.0503 20.0021 41.3755 20H38.6245C37.9494 20.0023 37.2908 20.1918 36.7349 20.5436C36.1791 20.8953 35.7519 21.393 35.5093 21.9714ZM40 46.4286C40.9195 46.4286 41.8301 46.2623 42.6796 45.9392C43.5291 45.6162 44.301 45.1426 44.9512 44.5457C45.6015 43.9487 46.1172 43.2401 46.4691 42.4601C46.821 41.6802 47.0021 40.8442 47.0021 40C47.0021 39.1558 46.821 38.3198 46.4691 37.5399C46.1172 36.7599 45.6015 36.0513 44.9512 35.4543C44.301 34.8574 43.5291 34.3838 42.6796 34.0608C41.8301 33.7377 40.9195 33.5714 40 33.5714C38.1429 33.5714 36.3619 34.2487 35.0488 35.4543C33.7356 36.6599 32.9979 38.295 32.9979 40C32.9979 41.705 33.7356 43.3401 35.0488 44.5457C36.3619 45.7513 38.1429 46.4286 40 46.4286Z" fill="white"/>
</svg>
