<svg width="142" height="87" viewBox="0 0 142 87" fill="none" xmlns="http://www.w3.org/2000/svg">
<path d="M17 23.2857C17 22.1491 17.4515 21.059 18.2553 20.2553C19.059 19.4515 20.1491 19 21.2857 19H28.4286C29.5652 19 30.6553 19.4515 31.459 20.2553C32.2628 21.059 32.7143 22.1491 32.7143 23.2857V54.7143C32.7143 55.8509 32.2628 56.941 31.459 57.7447C30.6553 58.5485 29.5652 59 28.4286 59H21.2857C20.1491 59 19.059 58.5485 18.2553 57.7447C17.4515 56.941 17 55.8509 17 54.7143V23.2857Z" fill="#154734"/>
<path fill-rule="evenodd" clip-rule="evenodd" d="M47.8829 30.5371C48.1438 30.4288 48.4311 30.4003 48.7082 30.4552C48.9854 30.5102 49.2401 30.646 49.44 30.8457L56.5829 37.9886C56.7159 38.1213 56.8214 38.2789 56.8935 38.4525C56.9655 38.626 57.0026 38.8121 57.0026 39C57.0026 39.1879 56.9655 39.374 56.8935 39.5475C56.8214 39.7211 56.7159 39.8787 56.5829 40.0114L49.44 47.1543C49.2402 47.3546 48.9854 47.4911 48.708 47.5464C48.4305 47.6017 48.1429 47.5734 47.8815 47.4651C47.6202 47.3568 47.3969 47.1733 47.2399 46.9379C47.083 46.7025 46.9995 46.4258 47 46.1429V41.8571H38.4286C37.6708 41.8571 36.9441 41.5561 36.4083 41.0203C35.8724 40.4845 35.5714 39.7578 35.5714 39C35.5714 38.2422 35.8724 37.5155 36.4083 36.9797C36.9441 36.4439 37.6708 36.1429 38.4286 36.1429H47V31.8571C47 31.5745 47.084 31.2981 47.2411 31.0632C47.3983 30.8282 47.6216 30.6451 47.8829 30.5371Z" fill="#154734"/>
<path d="M123 23.2857C123 22.1491 122.548 21.059 121.745 20.2553C120.941 19.4515 119.851 19 118.715 19H111.572C110.436 19 109.346 19.4515 108.542 20.2553C107.738 21.059 107.287 22.1491 107.287 23.2857V54.7143C107.287 55.8509 107.738 56.941 108.542 57.7447C109.346 58.5485 110.436 59 111.572 59H118.715C119.851 59 120.941 58.5485 121.745 57.7447C122.548 56.941 123 55.8509 123 54.7143V23.2857Z" fill="#154734"/>
<path fill-rule="evenodd" clip-rule="evenodd" d="M92.1191 30.5371C91.8582 30.4288 91.5709 30.4003 91.2938 30.4552C91.0166 30.5102 90.762 30.646 90.5621 30.8457L83.4197 37.9886C83.2866 38.1213 83.1811 38.2789 83.1091 38.4525C83.0371 38.626 83 38.8121 83 39C83 39.1879 83.0371 39.374 83.1091 39.5475C83.1811 39.7211 83.2866 39.8787 83.4197 40.0114L90.5621 47.1543C90.7619 47.3546 91.0166 47.4911 91.2941 47.5464C91.5715 47.6017 91.8591 47.5734 92.1204 47.4651C92.3818 47.3568 92.6051 47.1733 92.762 46.9379C92.9189 46.7025 93.0024 46.4258 93.0019 46.1429V41.8571H101.573C102.331 41.8571 103.057 41.5561 103.593 41.0203C104.129 40.4845 104.43 39.7578 104.43 39C104.43 38.2422 104.129 37.5155 103.593 36.9797C103.057 36.4439 102.331 36.1429 101.573 36.1429H93.0019V31.8571C93.0019 31.5745 92.918 31.2981 92.7608 31.0632C92.6037 30.8282 92.3803 30.6451 92.1191 30.5371Z" fill="#154734"/>
<rect x="0.5" y="0.5" width="141" height="86" rx="4.5" stroke="#9747FF" stroke-dasharray="10 5"/>
</svg>
