<svg width="293" height="889" viewBox="0 0 293 889" fill="none" xmlns="http://www.w3.org/2000/svg">
<rect width="293" height="889" fill="#808080"/>
<rect width="170" height="50" rx="25" transform="matrix(-1 0 0 1 231.5 10)" fill="#154734"/>
<path d="M81.892 27.652H87.064L91.216 38.908H91.384L91.216 32.428V27.652H94.792V43H89.764L85.456 31.492H85.3L85.468 38.116V43H81.892V27.652ZM103.236 43.3C101.092 43.3 99.5083 42.824 98.4843 41.872C97.4603 40.912 96.9482 39.516 96.9482 37.684V36.46C96.9482 34.652 97.4283 33.268 98.3883 32.308C99.3483 31.34 100.744 30.856 102.576 30.856C103.808 30.856 104.832 31.068 105.648 31.492C106.472 31.908 107.088 32.504 107.496 33.28C107.912 34.056 108.12 34.988 108.12 36.076V36.472C108.12 36.776 108.104 37.088 108.072 37.408C108.048 37.72 108.012 38.012 107.964 38.284H104.652C104.684 37.82 104.704 37.384 104.712 36.976C104.72 36.56 104.724 36.184 104.724 35.848C104.724 35.36 104.648 34.952 104.496 34.624C104.344 34.288 104.108 34.032 103.788 33.856C103.476 33.68 103.072 33.592 102.576 33.592C101.84 33.592 101.3 33.792 100.956 34.192C100.62 34.584 100.452 35.144 100.452 35.872V36.952L100.476 37.348V38.188C100.476 38.492 100.524 38.78 100.62 39.052C100.724 39.324 100.9 39.564 101.148 39.772C101.404 39.972 101.752 40.132 102.192 40.252C102.64 40.364 103.208 40.42 103.896 40.42C104.624 40.42 105.324 40.352 105.996 40.216C106.668 40.072 107.312 39.88 107.928 39.64L107.628 42.4C107.084 42.68 106.44 42.9 105.696 43.06C104.952 43.22 104.132 43.3 103.236 43.3ZM107.22 38.284H98.8923V36.016H107.22V38.284ZM116.686 43H111.442L109.078 31.204H112.798L114.262 40.408H114.478L115.918 31.492H120.406L121.87 40.408H122.074L123.55 31.204H127.234L124.87 43H119.65L118.462 35.488L118.258 34.168H118.09L117.874 35.488L116.686 43ZM138.664 43.324C137.952 43.324 137.284 43.276 136.66 43.18C136.044 43.092 135.48 42.976 134.968 42.832C134.464 42.68 134.02 42.524 133.636 42.364L133.312 38.908C133.944 39.204 134.692 39.48 135.556 39.736C136.42 39.984 137.336 40.108 138.304 40.108C139.24 40.108 139.904 39.992 140.296 39.76C140.696 39.52 140.896 39.148 140.896 38.644V38.56C140.896 38.224 140.804 37.952 140.62 37.744C140.444 37.528 140.144 37.332 139.72 37.156C139.304 36.972 138.74 36.776 138.028 36.568C136.956 36.248 136.06 35.892 135.34 35.5C134.628 35.108 134.096 34.62 133.744 34.036C133.392 33.444 133.216 32.696 133.216 31.792V31.636C133.216 30.244 133.688 29.18 134.632 28.444C135.584 27.708 136.98 27.34 138.82 27.34C139.924 27.34 140.876 27.436 141.676 27.628C142.484 27.82 143.168 28.048 143.728 28.312L144.052 31.528C143.436 31.232 142.736 30.984 141.952 30.784C141.176 30.576 140.344 30.472 139.456 30.472C138.832 30.472 138.34 30.524 137.98 30.628C137.628 30.732 137.38 30.884 137.236 31.084C137.092 31.276 137.02 31.512 137.02 31.792V31.84C137.02 32.128 137.1 32.38 137.26 32.596C137.428 32.812 137.724 33.02 138.148 33.22C138.58 33.42 139.192 33.636 139.984 33.868C141.048 34.18 141.928 34.516 142.624 34.876C143.328 35.228 143.852 35.688 144.196 36.256C144.548 36.816 144.724 37.564 144.724 38.5V38.692C144.724 40.236 144.224 41.396 143.224 42.172C142.224 42.94 140.704 43.324 138.664 43.324ZM152.572 43.3C150.428 43.3 148.844 42.824 147.82 41.872C146.796 40.912 146.284 39.516 146.284 37.684V36.46C146.284 34.652 146.764 33.268 147.724 32.308C148.684 31.34 150.08 30.856 151.912 30.856C153.144 30.856 154.168 31.068 154.984 31.492C155.808 31.908 156.424 32.504 156.832 33.28C157.248 34.056 157.456 34.988 157.456 36.076V36.472C157.456 36.776 157.44 37.088 157.408 37.408C157.384 37.72 157.348 38.012 157.3 38.284H153.988C154.02 37.82 154.04 37.384 154.048 36.976C154.056 36.56 154.06 36.184 154.06 35.848C154.06 35.36 153.984 34.952 153.832 34.624C153.68 34.288 153.444 34.032 153.124 33.856C152.812 33.68 152.408 33.592 151.912 33.592C151.176 33.592 150.636 33.792 150.292 34.192C149.956 34.584 149.788 35.144 149.788 35.872V36.952L149.812 37.348V38.188C149.812 38.492 149.86 38.78 149.956 39.052C150.06 39.324 150.236 39.564 150.484 39.772C150.74 39.972 151.088 40.132 151.528 40.252C151.976 40.364 152.544 40.42 153.232 40.42C153.96 40.42 154.66 40.352 155.332 40.216C156.004 40.072 156.648 39.88 157.264 39.64L156.964 42.4C156.42 42.68 155.776 42.9 155.032 43.06C154.288 43.22 153.468 43.3 152.572 43.3ZM156.556 38.284H148.228V36.016H156.556V38.284ZM163.713 43.288C162.777 43.288 161.933 43.204 161.181 43.036C160.429 42.876 159.785 42.688 159.249 42.472L158.937 39.388C159.553 39.644 160.233 39.876 160.977 40.084C161.729 40.284 162.541 40.384 163.413 40.384C164.109 40.384 164.601 40.312 164.889 40.168C165.185 40.016 165.333 39.784 165.333 39.472V39.424C165.333 39.208 165.257 39.032 165.105 38.896C164.961 38.752 164.705 38.624 164.337 38.512C163.977 38.4 163.469 38.268 162.813 38.116C161.829 37.884 161.049 37.612 160.473 37.3C159.897 36.98 159.485 36.592 159.237 36.136C158.997 35.672 158.877 35.124 158.877 34.492V34.396C158.877 33.228 159.293 32.356 160.125 31.78C160.957 31.196 162.181 30.904 163.797 30.904C164.709 30.904 165.529 30.988 166.257 31.156C166.985 31.324 167.597 31.524 168.093 31.756L168.405 34.624C167.829 34.368 167.185 34.156 166.473 33.988C165.769 33.82 165.029 33.736 164.253 33.736C163.781 33.736 163.409 33.768 163.137 33.832C162.873 33.896 162.685 33.988 162.573 34.108C162.469 34.228 162.417 34.376 162.417 34.552V34.588C162.417 34.78 162.481 34.944 162.609 35.08C162.737 35.216 162.969 35.344 163.305 35.464C163.649 35.584 164.141 35.72 164.781 35.872C165.773 36.088 166.573 36.336 167.181 36.616C167.789 36.888 168.233 37.244 168.513 37.684C168.793 38.116 168.933 38.692 168.933 39.412V39.52C168.933 40.792 168.505 41.74 167.649 42.364C166.793 42.98 165.481 43.288 163.713 43.288ZM174.846 43.288C173.91 43.288 173.066 43.204 172.314 43.036C171.562 42.876 170.918 42.688 170.382 42.472L170.07 39.388C170.686 39.644 171.366 39.876 172.11 40.084C172.862 40.284 173.674 40.384 174.546 40.384C175.242 40.384 175.734 40.312 176.022 40.168C176.318 40.016 176.466 39.784 176.466 39.472V39.424C176.466 39.208 176.39 39.032 176.238 38.896C176.094 38.752 175.838 38.624 175.47 38.512C175.11 38.4 174.602 38.268 173.946 38.116C172.962 37.884 172.182 37.612 171.606 37.3C171.03 36.98 170.618 36.592 170.37 36.136C170.13 35.672 170.01 35.124 170.01 34.492V34.396C170.01 33.228 170.426 32.356 171.258 31.78C172.09 31.196 173.314 30.904 174.93 30.904C175.842 30.904 176.662 30.988 177.39 31.156C178.118 31.324 178.73 31.524 179.226 31.756L179.538 34.624C178.962 34.368 178.318 34.156 177.606 33.988C176.902 33.82 176.162 33.736 175.386 33.736C174.914 33.736 174.542 33.768 174.27 33.832C174.006 33.896 173.818 33.988 173.706 34.108C173.602 34.228 173.55 34.376 173.55 34.552V34.588C173.55 34.78 173.614 34.944 173.742 35.08C173.87 35.216 174.102 35.344 174.438 35.464C174.782 35.584 175.274 35.72 175.914 35.872C176.906 36.088 177.706 36.336 178.314 36.616C178.922 36.888 179.366 37.244 179.646 37.684C179.926 38.116 180.066 38.692 180.066 39.412V39.52C180.066 40.792 179.638 41.74 178.782 42.364C177.926 42.98 176.614 43.288 174.846 43.288ZM185.51 43H181.838V31.204H185.51V43ZM183.674 30.088C182.986 30.088 182.486 29.932 182.174 29.62C181.862 29.3 181.706 28.872 181.706 28.336V28.252C181.706 27.716 181.862 27.292 182.174 26.98C182.486 26.668 182.986 26.512 183.674 26.512C184.346 26.512 184.838 26.668 185.15 26.98C185.47 27.292 185.63 27.716 185.63 28.252V28.336C185.63 28.88 185.47 29.308 185.15 29.62C184.838 29.932 184.346 30.088 183.674 30.088ZM193.306 43.336C191.402 43.336 189.962 42.864 188.986 41.92C188.018 40.968 187.534 39.632 187.534 37.912V36.364C187.534 34.62 188.022 33.268 188.998 32.308C189.974 31.34 191.41 30.856 193.306 30.856C195.202 30.856 196.634 31.34 197.602 32.308C198.578 33.268 199.066 34.62 199.066 36.364V37.912C199.066 39.632 198.582 40.968 197.614 41.92C196.646 42.864 195.21 43.336 193.306 43.336ZM193.306 40.444C193.986 40.444 194.502 40.24 194.854 39.832C195.214 39.416 195.394 38.828 195.394 38.068V36.208C195.394 35.408 195.214 34.8 194.854 34.384C194.502 33.968 193.986 33.76 193.306 33.76C192.626 33.76 192.106 33.968 191.746 34.384C191.394 34.8 191.218 35.408 191.218 36.208V38.068C191.218 38.828 191.394 39.416 191.746 39.832C192.106 40.24 192.626 40.444 193.306 40.444ZM212.347 43H208.675V36.064C208.675 35.632 208.619 35.26 208.507 34.948C208.395 34.628 208.207 34.384 207.943 34.216C207.679 34.048 207.319 33.964 206.863 33.964C206.487 33.964 206.155 34.032 205.867 34.168C205.579 34.296 205.335 34.476 205.135 34.708C204.943 34.932 204.799 35.188 204.703 35.476L204.139 33.76H204.763C204.891 33.224 205.099 32.744 205.387 32.32C205.683 31.896 206.087 31.56 206.599 31.312C207.111 31.056 207.759 30.928 208.543 30.928C209.423 30.928 210.143 31.1 210.703 31.444C211.263 31.78 211.675 32.284 211.939 32.956C212.211 33.628 212.347 34.468 212.347 35.476V43ZM204.763 43H201.091V31.204H204.739L204.619 34.156L204.763 34.504V43Z" fill="#E87500"/>
</svg>
