<svg width="441" height="90" viewBox="0 0 441 90" fill="none" xmlns="http://www.w3.org/2000/svg">
<rect x="20" y="20" width="170" height="50" rx="25" fill="#808080"/>
<path d="M66.906 48.824C66.194 48.824 65.526 48.776 64.902 48.68C64.286 48.592 63.722 48.476 63.21 48.332C62.706 48.18 62.262 48.024 61.878 47.864L61.554 44.408C62.186 44.704 62.934 44.98 63.798 45.236C64.662 45.484 65.578 45.608 66.546 45.608C67.482 45.608 68.146 45.492 68.538 45.26C68.938 45.02 69.138 44.648 69.138 44.144V44.06C69.138 43.724 69.046 43.452 68.862 43.244C68.686 43.028 68.386 42.832 67.962 42.656C67.546 42.472 66.982 42.276 66.27 42.068C65.198 41.748 64.302 41.392 63.582 41C62.87 40.608 62.338 40.12 61.986 39.536C61.634 38.944 61.458 38.196 61.458 37.292V37.136C61.458 35.744 61.93 34.68 62.874 33.944C63.826 33.208 65.222 32.84 67.062 32.84C68.166 32.84 69.118 32.936 69.918 33.128C70.726 33.32 71.41 33.548 71.97 33.812L72.294 37.028C71.678 36.732 70.978 36.484 70.194 36.284C69.418 36.076 68.586 35.972 67.698 35.972C67.074 35.972 66.582 36.024 66.222 36.128C65.87 36.232 65.622 36.384 65.478 36.584C65.334 36.776 65.262 37.012 65.262 37.292V37.34C65.262 37.628 65.342 37.88 65.502 38.096C65.67 38.312 65.966 38.52 66.39 38.72C66.822 38.92 67.434 39.136 68.226 39.368C69.29 39.68 70.17 40.016 70.866 40.376C71.57 40.728 72.094 41.188 72.438 41.756C72.79 42.316 72.966 43.064 72.966 44V44.192C72.966 45.736 72.466 46.896 71.466 47.672C70.466 48.44 68.946 48.824 66.906 48.824ZM79.3136 45.56H81.2336L79.2656 46.412L81.9176 36.704H85.6736L80.8616 52.628H77.1896L79.0256 46.628L80.7536 47.996H76.6856L73.4936 36.704H77.2736L79.3136 45.56ZM90.8064 48.5H87.1344V32.648H90.8064V48.5ZM96.9939 48.5H93.3219V32.648H96.9939V48.5ZM109.819 48.5H106.207L106.315 45.548L106.231 45.368V41.684L106.207 41.204C106.207 40.548 106.015 40.064 105.631 39.752C105.247 39.44 104.603 39.284 103.699 39.284C102.907 39.284 102.155 39.384 101.443 39.584C100.731 39.784 100.059 40.012 99.4266 40.268L99.7386 37.424C100.115 37.248 100.535 37.084 100.999 36.932C101.471 36.772 101.991 36.644 102.559 36.548C103.127 36.452 103.735 36.404 104.383 36.404C105.415 36.404 106.279 36.524 106.975 36.764C107.671 37.004 108.227 37.344 108.643 37.784C109.059 38.224 109.359 38.752 109.543 39.368C109.727 39.976 109.819 40.648 109.819 41.384V48.5ZM102.451 48.776C101.275 48.776 100.383 48.48 99.7746 47.888C99.1666 47.296 98.8626 46.452 98.8626 45.356V45.032C98.8626 43.872 99.2186 43.016 99.9306 42.464C100.651 41.904 101.791 41.524 103.351 41.324L106.519 40.904L106.735 43.112L103.927 43.52C103.359 43.592 102.959 43.724 102.727 43.916C102.495 44.108 102.379 44.392 102.379 44.768V44.852C102.379 45.212 102.495 45.5 102.727 45.716C102.959 45.924 103.331 46.028 103.843 46.028C104.291 46.028 104.675 45.96 104.995 45.824C105.323 45.688 105.591 45.512 105.799 45.296C106.007 45.072 106.163 44.824 106.267 44.552L106.783 46.04H106.183C106.055 46.552 105.855 47.016 105.583 47.432C105.319 47.848 104.935 48.176 104.431 48.416C103.927 48.656 103.267 48.776 102.451 48.776ZM119.319 48.776C118.615 48.776 118.023 48.66 117.543 48.428C117.063 48.196 116.679 47.868 116.391 47.444C116.103 47.012 115.899 46.512 115.779 45.944H114.831L115.707 43.472C115.723 43.96 115.819 44.372 115.995 44.708C116.171 45.044 116.423 45.304 116.751 45.488C117.079 45.664 117.463 45.752 117.903 45.752C118.575 45.752 119.083 45.556 119.427 45.164C119.771 44.764 119.943 44.168 119.943 43.376V41.708C119.943 40.924 119.771 40.336 119.427 39.944C119.091 39.552 118.587 39.356 117.915 39.356C117.539 39.356 117.195 39.428 116.883 39.572C116.579 39.716 116.319 39.908 116.103 40.148C115.895 40.38 115.743 40.648 115.647 40.952L114.819 39.26H115.827C115.947 38.732 116.143 38.256 116.415 37.832C116.687 37.4 117.067 37.06 117.555 36.812C118.051 36.556 118.679 36.428 119.439 36.428C120.815 36.428 121.855 36.88 122.559 37.784C123.271 38.68 123.627 40.028 123.627 41.828V43.268C123.627 45.084 123.271 46.456 122.559 47.384C121.847 48.312 120.767 48.776 119.319 48.776ZM115.755 48.5H112.107V32.648H115.755V36.176L115.695 39.956L115.707 40.28V44.804L115.647 45.512L115.755 48.5ZM125.593 36.704H129.265V43.64C129.265 44.072 129.321 44.448 129.433 44.768C129.545 45.08 129.733 45.324 129.997 45.5C130.261 45.668 130.621 45.752 131.077 45.752C131.461 45.752 131.793 45.684 132.073 45.548C132.361 45.412 132.601 45.228 132.793 44.996C132.993 44.764 133.141 44.508 133.237 44.228L133.801 45.944H133.177C133.049 46.472 132.837 46.952 132.541 47.384C132.253 47.816 131.853 48.156 131.341 48.404C130.837 48.652 130.189 48.776 129.397 48.776C128.525 48.776 127.805 48.608 127.237 48.272C126.677 47.928 126.261 47.42 125.989 46.748C125.725 46.076 125.593 45.236 125.593 44.228V36.704ZM133.177 36.704H136.849V48.5H133.201L133.321 45.548L133.177 45.212V36.704ZM143.494 48.788C142.558 48.788 141.714 48.704 140.962 48.536C140.21 48.376 139.566 48.188 139.03 47.972L138.718 44.888C139.334 45.144 140.014 45.376 140.758 45.584C141.51 45.784 142.322 45.884 143.194 45.884C143.89 45.884 144.382 45.812 144.67 45.668C144.966 45.516 145.114 45.284 145.114 44.972V44.924C145.114 44.708 145.038 44.532 144.886 44.396C144.742 44.252 144.486 44.124 144.118 44.012C143.758 43.9 143.25 43.768 142.594 43.616C141.61 43.384 140.83 43.112 140.254 42.8C139.678 42.48 139.266 42.092 139.018 41.636C138.778 41.172 138.658 40.624 138.658 39.992V39.896C138.658 38.728 139.074 37.856 139.906 37.28C140.738 36.696 141.962 36.404 143.578 36.404C144.49 36.404 145.31 36.488 146.038 36.656C146.766 36.824 147.378 37.024 147.874 37.256L148.186 40.124C147.61 39.868 146.966 39.656 146.254 39.488C145.55 39.32 144.81 39.236 144.034 39.236C143.562 39.236 143.19 39.268 142.918 39.332C142.654 39.396 142.466 39.488 142.354 39.608C142.25 39.728 142.198 39.876 142.198 40.052V40.088C142.198 40.28 142.262 40.444 142.39 40.58C142.518 40.716 142.75 40.844 143.086 40.964C143.43 41.084 143.922 41.22 144.562 41.372C145.554 41.588 146.354 41.836 146.962 42.116C147.57 42.388 148.014 42.744 148.294 43.184C148.574 43.616 148.714 44.192 148.714 44.912V45.02C148.714 46.292 148.286 47.24 147.43 47.864C146.574 48.48 145.262 48.788 143.494 48.788Z" fill="white"/>
<path d="M267.906 48.824C267.194 48.824 266.526 48.776 265.902 48.68C265.286 48.592 264.722 48.476 264.21 48.332C263.706 48.18 263.262 48.024 262.878 47.864L262.554 44.408C263.186 44.704 263.934 44.98 264.798 45.236C265.662 45.484 266.578 45.608 267.546 45.608C268.482 45.608 269.146 45.492 269.538 45.26C269.938 45.02 270.138 44.648 270.138 44.144V44.06C270.138 43.724 270.046 43.452 269.862 43.244C269.686 43.028 269.386 42.832 268.962 42.656C268.546 42.472 267.982 42.276 267.27 42.068C266.198 41.748 265.302 41.392 264.582 41C263.87 40.608 263.338 40.12 262.986 39.536C262.634 38.944 262.458 38.196 262.458 37.292V37.136C262.458 35.744 262.93 34.68 263.874 33.944C264.826 33.208 266.222 32.84 268.062 32.84C269.166 32.84 270.118 32.936 270.918 33.128C271.726 33.32 272.41 33.548 272.97 33.812L273.294 37.028C272.678 36.732 271.978 36.484 271.194 36.284C270.418 36.076 269.586 35.972 268.698 35.972C268.074 35.972 267.582 36.024 267.222 36.128C266.87 36.232 266.622 36.384 266.478 36.584C266.334 36.776 266.262 37.012 266.262 37.292V37.34C266.262 37.628 266.342 37.88 266.502 38.096C266.67 38.312 266.966 38.52 267.39 38.72C267.822 38.92 268.434 39.136 269.226 39.368C270.29 39.68 271.17 40.016 271.866 40.376C272.57 40.728 273.094 41.188 273.438 41.756C273.79 42.316 273.966 43.064 273.966 44V44.192C273.966 45.736 273.466 46.896 272.466 47.672C271.466 48.44 269.946 48.824 267.906 48.824ZM280.314 45.56H282.234L280.266 46.412L282.918 36.704H286.674L281.862 52.628H278.19L280.026 46.628L281.754 47.996H277.686L274.494 36.704H278.274L280.314 45.56ZM291.806 48.5H288.134V32.648H291.806V48.5ZM297.994 48.5H294.322V32.648H297.994V48.5ZM310.819 48.5H307.207L307.315 45.548L307.231 45.368V41.684L307.207 41.204C307.207 40.548 307.015 40.064 306.631 39.752C306.247 39.44 305.603 39.284 304.699 39.284C303.907 39.284 303.155 39.384 302.443 39.584C301.731 39.784 301.059 40.012 300.427 40.268L300.739 37.424C301.115 37.248 301.535 37.084 301.999 36.932C302.471 36.772 302.991 36.644 303.559 36.548C304.127 36.452 304.735 36.404 305.383 36.404C306.415 36.404 307.279 36.524 307.975 36.764C308.671 37.004 309.227 37.344 309.643 37.784C310.059 38.224 310.359 38.752 310.543 39.368C310.727 39.976 310.819 40.648 310.819 41.384V48.5ZM303.451 48.776C302.275 48.776 301.383 48.48 300.775 47.888C300.167 47.296 299.863 46.452 299.863 45.356V45.032C299.863 43.872 300.219 43.016 300.931 42.464C301.651 41.904 302.791 41.524 304.351 41.324L307.519 40.904L307.735 43.112L304.927 43.52C304.359 43.592 303.959 43.724 303.727 43.916C303.495 44.108 303.379 44.392 303.379 44.768V44.852C303.379 45.212 303.495 45.5 303.727 45.716C303.959 45.924 304.331 46.028 304.843 46.028C305.291 46.028 305.675 45.96 305.995 45.824C306.323 45.688 306.591 45.512 306.799 45.296C307.007 45.072 307.163 44.824 307.267 44.552L307.783 46.04H307.183C307.055 46.552 306.855 47.016 306.583 47.432C306.319 47.848 305.935 48.176 305.431 48.416C304.927 48.656 304.267 48.776 303.451 48.776ZM320.319 48.776C319.615 48.776 319.023 48.66 318.543 48.428C318.063 48.196 317.679 47.868 317.391 47.444C317.103 47.012 316.899 46.512 316.779 45.944H315.831L316.707 43.472C316.723 43.96 316.819 44.372 316.995 44.708C317.171 45.044 317.423 45.304 317.751 45.488C318.079 45.664 318.463 45.752 318.903 45.752C319.575 45.752 320.083 45.556 320.427 45.164C320.771 44.764 320.943 44.168 320.943 43.376V41.708C320.943 40.924 320.771 40.336 320.427 39.944C320.091 39.552 319.587 39.356 318.915 39.356C318.539 39.356 318.195 39.428 317.883 39.572C317.579 39.716 317.319 39.908 317.103 40.148C316.895 40.38 316.743 40.648 316.647 40.952L315.819 39.26H316.827C316.947 38.732 317.143 38.256 317.415 37.832C317.687 37.4 318.067 37.06 318.555 36.812C319.051 36.556 319.679 36.428 320.439 36.428C321.815 36.428 322.855 36.88 323.559 37.784C324.271 38.68 324.627 40.028 324.627 41.828V43.268C324.627 45.084 324.271 46.456 323.559 47.384C322.847 48.312 321.767 48.776 320.319 48.776ZM316.755 48.5H313.107V32.648H316.755V36.176L316.695 39.956L316.707 40.28V44.804L316.647 45.512L316.755 48.5ZM326.593 36.704H330.265V43.64C330.265 44.072 330.321 44.448 330.433 44.768C330.545 45.08 330.733 45.324 330.997 45.5C331.261 45.668 331.621 45.752 332.077 45.752C332.461 45.752 332.793 45.684 333.073 45.548C333.361 45.412 333.601 45.228 333.793 44.996C333.993 44.764 334.141 44.508 334.237 44.228L334.801 45.944H334.177C334.049 46.472 333.837 46.952 333.541 47.384C333.253 47.816 332.853 48.156 332.341 48.404C331.837 48.652 331.189 48.776 330.397 48.776C329.525 48.776 328.805 48.608 328.237 48.272C327.677 47.928 327.261 47.42 326.989 46.748C326.725 46.076 326.593 45.236 326.593 44.228V36.704ZM334.177 36.704H337.849V48.5H334.201L334.321 45.548L334.177 45.212V36.704ZM344.494 48.788C343.558 48.788 342.714 48.704 341.962 48.536C341.21 48.376 340.566 48.188 340.03 47.972L339.718 44.888C340.334 45.144 341.014 45.376 341.758 45.584C342.51 45.784 343.322 45.884 344.194 45.884C344.89 45.884 345.382 45.812 345.67 45.668C345.966 45.516 346.114 45.284 346.114 44.972V44.924C346.114 44.708 346.038 44.532 345.886 44.396C345.742 44.252 345.486 44.124 345.118 44.012C344.758 43.9 344.25 43.768 343.594 43.616C342.61 43.384 341.83 43.112 341.254 42.8C340.678 42.48 340.266 42.092 340.018 41.636C339.778 41.172 339.658 40.624 339.658 39.992V39.896C339.658 38.728 340.074 37.856 340.906 37.28C341.738 36.696 342.962 36.404 344.578 36.404C345.49 36.404 346.31 36.488 347.038 36.656C347.766 36.824 348.378 37.024 348.874 37.256L349.186 40.124C348.61 39.868 347.966 39.656 347.254 39.488C346.55 39.32 345.81 39.236 345.034 39.236C344.562 39.236 344.19 39.268 343.918 39.332C343.654 39.396 343.466 39.488 343.354 39.608C343.25 39.728 343.198 39.876 343.198 40.052V40.088C343.198 40.28 343.262 40.444 343.39 40.58C343.518 40.716 343.75 40.844 344.086 40.964C344.43 41.084 344.922 41.22 345.562 41.372C346.554 41.588 347.354 41.836 347.962 42.116C348.57 42.388 349.014 42.744 349.294 43.184C349.574 43.616 349.714 44.192 349.714 44.912V45.02C349.714 46.292 349.286 47.24 348.43 47.864C347.574 48.48 346.262 48.788 344.494 48.788Z" fill="#154734"/>
<rect x="0.5" y="0.5" width="440" height="89" rx="4.5" stroke="#9747FF" stroke-dasharray="10 5"/>
</svg>
