<svg width="600" height="600" viewBox="0 0 600 600" fill="none" xmlns="http://www.w3.org/2000/svg">
<rect width="600" height="600" rx="50" fill="#808080"/>
<rect x="150" y="10" width="300" height="50" rx="25" fill="#333333"/>
<path d="M200.684 45H195.344L192.644 29.664H196.46L197.912 40.188L198.164 41.868H198.368L198.644 40.188L200.216 30.012H204.812L206.372 40.188L206.636 41.868H206.852L207.116 40.188L208.592 29.664H212.36L209.696 45H204.356L203.024 35.796L202.604 33.096H202.412L201.992 35.796L200.684 45ZM217.051 38.376L216.043 36.144H216.907C217.099 35.168 217.471 34.404 218.023 33.852C218.583 33.292 219.371 33.012 220.387 33.012C220.563 33.012 220.723 33.024 220.867 33.048C221.019 33.072 221.163 33.1 221.299 33.132L221.479 36.84C221.311 36.792 221.115 36.76 220.891 36.744C220.667 36.72 220.439 36.708 220.207 36.708C219.423 36.708 218.763 36.856 218.227 37.152C217.691 37.44 217.299 37.848 217.051 38.376ZM217.123 45H213.451V33.204H216.907L216.751 36.972L217.123 37.02V45ZM226.65 45H222.978V33.204H226.65V45ZM224.814 32.088C224.126 32.088 223.626 31.932 223.314 31.62C223.002 31.3 222.846 30.872 222.846 30.336V30.252C222.846 29.716 223.002 29.292 223.314 28.98C223.626 28.668 224.126 28.512 224.814 28.512C225.486 28.512 225.978 28.668 226.29 28.98C226.61 29.292 226.77 29.716 226.77 30.252V30.336C226.77 30.88 226.61 31.308 226.29 31.62C225.978 31.932 225.486 32.088 224.814 32.088ZM233.823 45.264C232.775 45.264 231.939 45.108 231.315 44.796C230.699 44.476 230.255 44 229.983 43.368C229.711 42.736 229.575 41.956 229.575 41.028V34.44H233.223V40.44C233.223 41.016 233.351 41.44 233.607 41.712C233.871 41.976 234.359 42.108 235.071 42.108C235.463 42.108 235.851 42.064 236.235 41.976C236.619 41.888 236.967 41.776 237.279 41.64L236.967 44.676C236.559 44.852 236.087 44.992 235.551 45.096C235.023 45.208 234.447 45.264 233.823 45.264ZM236.847 36.132H227.991V33.252H237.171L236.847 36.132ZM233.115 33.516H229.623L229.611 30.468L233.247 30.12L233.115 33.516ZM244.525 45.3C242.381 45.3 240.797 44.824 239.773 43.872C238.749 42.912 238.237 41.516 238.237 39.684V38.46C238.237 36.652 238.717 35.268 239.677 34.308C240.637 33.34 242.033 32.856 243.865 32.856C245.097 32.856 246.121 33.068 246.937 33.492C247.761 33.908 248.377 34.504 248.785 35.28C249.201 36.056 249.409 36.988 249.409 38.076V38.472C249.409 38.776 249.393 39.088 249.361 39.408C249.337 39.72 249.301 40.012 249.253 40.284H245.941C245.973 39.82 245.993 39.384 246.001 38.976C246.009 38.56 246.013 38.184 246.013 37.848C246.013 37.36 245.937 36.952 245.785 36.624C245.633 36.288 245.397 36.032 245.077 35.856C244.765 35.68 244.361 35.592 243.865 35.592C243.129 35.592 242.589 35.792 242.245 36.192C241.909 36.584 241.741 37.144 241.741 37.872V38.952L241.765 39.348V40.188C241.765 40.492 241.813 40.78 241.909 41.052C242.013 41.324 242.189 41.564 242.437 41.772C242.693 41.972 243.041 42.132 243.481 42.252C243.929 42.364 244.497 42.42 245.185 42.42C245.913 42.42 246.613 42.352 247.285 42.216C247.957 42.072 248.601 41.88 249.217 41.64L248.917 44.4C248.373 44.68 247.729 44.9 246.985 45.06C246.241 45.22 245.421 45.3 244.525 45.3ZM248.509 40.284H240.181V38.016H248.509V40.284ZM274.485 45H270.813V37.968C270.813 37.552 270.761 37.196 270.657 36.9C270.561 36.596 270.393 36.364 270.153 36.204C269.921 36.044 269.597 35.964 269.181 35.964C268.829 35.964 268.521 36.032 268.257 36.168C267.993 36.296 267.773 36.476 267.597 36.708C267.421 36.932 267.289 37.188 267.201 37.476L266.853 35.76H267.177C267.305 35.232 267.509 34.756 267.789 34.332C268.069 33.9 268.457 33.56 268.953 33.312C269.449 33.056 270.085 32.928 270.861 32.928C271.701 32.928 272.385 33.096 272.913 33.432C273.449 33.76 273.845 34.256 274.101 34.92C274.357 35.576 274.485 36.396 274.485 37.38V45ZM260.037 45H256.365V33.204H260.013L259.893 36.384L260.037 36.504V45ZM267.261 45H263.589V37.968C263.589 37.552 263.537 37.196 263.433 36.9C263.337 36.596 263.169 36.364 262.929 36.204C262.689 36.044 262.365 35.964 261.957 35.964C261.597 35.964 261.285 36.032 261.021 36.168C260.757 36.296 260.537 36.476 260.361 36.708C260.193 36.932 260.065 37.188 259.977 37.476L259.413 35.76H260.037C260.157 35.224 260.353 34.744 260.625 34.32C260.905 33.896 261.289 33.56 261.777 33.312C262.265 33.056 262.881 32.928 263.625 32.928C264.721 32.928 265.545 33.212 266.097 33.78C266.657 34.34 267.009 35.156 267.153 36.228C267.177 36.388 267.201 36.584 267.225 36.816C267.249 37.048 267.261 37.256 267.261 37.44V45ZM282.682 45.3C280.538 45.3 278.954 44.824 277.93 43.872C276.906 42.912 276.394 41.516 276.394 39.684V38.46C276.394 36.652 276.874 35.268 277.834 34.308C278.794 33.34 280.19 32.856 282.022 32.856C283.254 32.856 284.278 33.068 285.094 33.492C285.918 33.908 286.534 34.504 286.942 35.28C287.358 36.056 287.566 36.988 287.566 38.076V38.472C287.566 38.776 287.55 39.088 287.518 39.408C287.494 39.72 287.458 40.012 287.41 40.284H284.098C284.13 39.82 284.15 39.384 284.158 38.976C284.166 38.56 284.17 38.184 284.17 37.848C284.17 37.36 284.094 36.952 283.942 36.624C283.79 36.288 283.554 36.032 283.234 35.856C282.922 35.68 282.518 35.592 282.022 35.592C281.286 35.592 280.746 35.792 280.402 36.192C280.066 36.584 279.898 37.144 279.898 37.872V38.952L279.922 39.348V40.188C279.922 40.492 279.97 40.78 280.066 41.052C280.17 41.324 280.346 41.564 280.594 41.772C280.85 41.972 281.198 42.132 281.638 42.252C282.086 42.364 282.654 42.42 283.342 42.42C284.07 42.42 284.77 42.352 285.442 42.216C286.114 42.072 286.758 41.88 287.374 41.64L287.074 44.4C286.53 44.68 285.886 44.9 285.142 45.06C284.398 45.22 283.578 45.3 282.682 45.3ZM286.666 40.284H278.338V38.016H286.666V40.284ZM293.822 45.288C292.886 45.288 292.042 45.204 291.29 45.036C290.538 44.876 289.894 44.688 289.358 44.472L289.046 41.388C289.662 41.644 290.342 41.876 291.086 42.084C291.838 42.284 292.65 42.384 293.522 42.384C294.218 42.384 294.71 42.312 294.998 42.168C295.294 42.016 295.442 41.784 295.442 41.472V41.424C295.442 41.208 295.366 41.032 295.214 40.896C295.07 40.752 294.814 40.624 294.446 40.512C294.086 40.4 293.578 40.268 292.922 40.116C291.938 39.884 291.158 39.612 290.582 39.3C290.006 38.98 289.594 38.592 289.346 38.136C289.106 37.672 288.986 37.124 288.986 36.492V36.396C288.986 35.228 289.402 34.356 290.234 33.78C291.066 33.196 292.29 32.904 293.906 32.904C294.818 32.904 295.638 32.988 296.366 33.156C297.094 33.324 297.706 33.524 298.202 33.756L298.514 36.624C297.938 36.368 297.294 36.156 296.582 35.988C295.878 35.82 295.138 35.736 294.362 35.736C293.89 35.736 293.518 35.768 293.246 35.832C292.982 35.896 292.794 35.988 292.682 36.108C292.578 36.228 292.526 36.376 292.526 36.552V36.588C292.526 36.78 292.59 36.944 292.718 37.08C292.846 37.216 293.078 37.344 293.414 37.464C293.758 37.584 294.25 37.72 294.89 37.872C295.882 38.088 296.682 38.336 297.29 38.616C297.898 38.888 298.342 39.244 298.622 39.684C298.902 40.116 299.042 40.692 299.042 41.412V41.52C299.042 42.792 298.614 43.74 297.758 44.364C296.902 44.98 295.59 45.288 293.822 45.288ZM304.955 45.288C304.019 45.288 303.175 45.204 302.423 45.036C301.671 44.876 301.027 44.688 300.491 44.472L300.179 41.388C300.795 41.644 301.475 41.876 302.219 42.084C302.971 42.284 303.783 42.384 304.655 42.384C305.351 42.384 305.843 42.312 306.131 42.168C306.427 42.016 306.575 41.784 306.575 41.472V41.424C306.575 41.208 306.499 41.032 306.347 40.896C306.203 40.752 305.947 40.624 305.579 40.512C305.219 40.4 304.711 40.268 304.055 40.116C303.071 39.884 302.291 39.612 301.715 39.3C301.139 38.98 300.727 38.592 300.479 38.136C300.239 37.672 300.119 37.124 300.119 36.492V36.396C300.119 35.228 300.535 34.356 301.367 33.78C302.199 33.196 303.423 32.904 305.039 32.904C305.951 32.904 306.771 32.988 307.499 33.156C308.227 33.324 308.839 33.524 309.335 33.756L309.647 36.624C309.071 36.368 308.427 36.156 307.715 35.988C307.011 35.82 306.271 35.736 305.495 35.736C305.023 35.736 304.651 35.768 304.379 35.832C304.115 35.896 303.927 35.988 303.815 36.108C303.711 36.228 303.659 36.376 303.659 36.552V36.588C303.659 36.78 303.723 36.944 303.851 37.08C303.979 37.216 304.211 37.344 304.547 37.464C304.891 37.584 305.383 37.72 306.023 37.872C307.015 38.088 307.815 38.336 308.423 38.616C309.031 38.888 309.475 39.244 309.755 39.684C310.035 40.116 310.175 40.692 310.175 41.412V41.52C310.175 42.792 309.747 43.74 308.891 44.364C308.035 44.98 306.723 45.288 304.955 45.288ZM322.326 45H318.714L318.822 42.048L318.738 41.868V38.184L318.714 37.704C318.714 37.048 318.522 36.564 318.138 36.252C317.754 35.94 317.11 35.784 316.206 35.784C315.414 35.784 314.662 35.884 313.95 36.084C313.238 36.284 312.566 36.512 311.934 36.768L312.246 33.924C312.622 33.748 313.042 33.584 313.506 33.432C313.978 33.272 314.498 33.144 315.066 33.048C315.634 32.952 316.242 32.904 316.89 32.904C317.922 32.904 318.786 33.024 319.482 33.264C320.178 33.504 320.734 33.844 321.15 34.284C321.566 34.724 321.866 35.252 322.05 35.868C322.234 36.476 322.326 37.148 322.326 37.884V45ZM314.958 45.276C313.782 45.276 312.89 44.98 312.282 44.388C311.674 43.796 311.37 42.952 311.37 41.856V41.532C311.37 40.372 311.726 39.516 312.438 38.964C313.158 38.404 314.298 38.024 315.858 37.824L319.026 37.404L319.242 39.612L316.434 40.02C315.866 40.092 315.466 40.224 315.234 40.416C315.002 40.608 314.886 40.892 314.886 41.268V41.352C314.886 41.712 315.002 42 315.234 42.216C315.466 42.424 315.838 42.528 316.35 42.528C316.798 42.528 317.182 42.46 317.502 42.324C317.83 42.188 318.098 42.012 318.306 41.796C318.514 41.572 318.67 41.324 318.774 41.052L319.29 42.54H318.69C318.562 43.052 318.362 43.516 318.09 43.932C317.826 44.348 317.442 44.676 316.938 44.916C316.434 45.156 315.774 45.276 314.958 45.276ZM329.764 41.328C327.868 41.328 326.444 40.976 325.492 40.272C324.54 39.568 324.064 38.58 324.064 37.308V37.152C324.064 36.288 324.256 35.56 324.64 34.968C325.032 34.368 325.632 33.904 326.44 33.576C327.248 33.248 328.284 33.052 329.548 32.988L335.848 32.7V35.292L332.716 35.208V35.328C333.252 35.416 333.692 35.568 334.036 35.784C334.388 35.992 334.648 36.268 334.816 36.612C334.992 36.948 335.08 37.364 335.08 37.86V37.944C335.08 39.04 334.644 39.88 333.772 40.464C332.908 41.04 331.572 41.328 329.764 41.328ZM329.584 46.908H329.944C330.52 46.908 330.984 46.872 331.336 46.8C331.696 46.728 331.96 46.62 332.128 46.476C332.296 46.332 332.38 46.152 332.38 45.936V45.912C332.38 45.632 332.26 45.432 332.02 45.312C331.788 45.192 331.436 45.112 330.964 45.072L327.484 44.724L328.288 44.676C328.048 44.716 327.84 44.784 327.664 44.88C327.496 44.976 327.36 45.096 327.256 45.24C327.16 45.384 327.112 45.56 327.112 45.768V45.792C327.112 46.032 327.2 46.236 327.376 46.404C327.552 46.572 327.82 46.696 328.18 46.776C328.548 46.864 329.016 46.908 329.584 46.908ZM329.86 49.596H329.404C328.22 49.596 327.208 49.5 326.368 49.308C325.536 49.124 324.904 48.828 324.472 48.42C324.04 48.012 323.824 47.472 323.824 46.8V46.752C323.824 46.296 323.924 45.912 324.124 45.6C324.324 45.288 324.612 45.044 324.988 44.868C325.364 44.692 325.804 44.584 326.308 44.544V44.424C325.692 44.312 325.216 44.116 324.88 43.836C324.552 43.556 324.388 43.164 324.388 42.66V42.648C324.388 42.288 324.468 41.984 324.628 41.736C324.796 41.488 325.04 41.3 325.36 41.172C325.68 41.036 326.072 40.956 326.536 40.932V40.536L329.248 41.22L328.456 41.208C328.176 41.208 327.976 41.244 327.856 41.316C327.744 41.388 327.688 41.496 327.688 41.64V41.652C327.688 41.828 327.78 41.956 327.964 42.036C328.156 42.108 328.464 42.168 328.888 42.216L331.684 42.54C333.044 42.7 334.056 43.036 334.72 43.548C335.384 44.06 335.716 44.852 335.716 45.924V45.996C335.716 46.812 335.484 47.484 335.02 48.012C334.564 48.548 333.9 48.944 333.028 49.2C332.164 49.464 331.108 49.596 329.86 49.596ZM329.644 38.856C330.116 38.856 330.504 38.796 330.808 38.676C331.12 38.548 331.352 38.364 331.504 38.124C331.664 37.876 331.744 37.58 331.744 37.236V37.128C331.744 36.784 331.668 36.492 331.516 36.252C331.364 36.012 331.132 35.832 330.82 35.712C330.516 35.584 330.124 35.52 329.644 35.52H329.632C329.144 35.52 328.744 35.584 328.432 35.712C328.12 35.84 327.888 36.024 327.736 36.264C327.592 36.504 327.52 36.796 327.52 37.14V37.236C327.52 37.58 327.596 37.876 327.748 38.124C327.908 38.364 328.144 38.548 328.456 38.676C328.768 38.796 329.164 38.856 329.644 38.856ZM342.963 45.3C340.819 45.3 339.235 44.824 338.211 43.872C337.187 42.912 336.675 41.516 336.675 39.684V38.46C336.675 36.652 337.155 35.268 338.115 34.308C339.075 33.34 340.471 32.856 342.303 32.856C343.535 32.856 344.559 33.068 345.375 33.492C346.199 33.908 346.815 34.504 347.223 35.28C347.639 36.056 347.847 36.988 347.847 38.076V38.472C347.847 38.776 347.831 39.088 347.799 39.408C347.775 39.72 347.739 40.012 347.691 40.284H344.379C344.411 39.82 344.431 39.384 344.439 38.976C344.447 38.56 344.451 38.184 344.451 37.848C344.451 37.36 344.375 36.952 344.223 36.624C344.071 36.288 343.835 36.032 343.515 35.856C343.203 35.68 342.799 35.592 342.303 35.592C341.567 35.592 341.027 35.792 340.683 36.192C340.347 36.584 340.179 37.144 340.179 37.872V38.952L340.203 39.348V40.188C340.203 40.492 340.251 40.78 340.347 41.052C340.451 41.324 340.627 41.564 340.875 41.772C341.131 41.972 341.479 42.132 341.919 42.252C342.367 42.364 342.935 42.42 343.623 42.42C344.351 42.42 345.051 42.352 345.723 42.216C346.395 42.072 347.039 41.88 347.655 41.64L347.355 44.4C346.811 44.68 346.167 44.9 345.423 45.06C344.679 45.22 343.859 45.3 342.963 45.3ZM346.947 40.284H338.619V38.016H346.947V40.284ZM359.518 45.264C358.47 45.264 357.634 45.108 357.01 44.796C356.394 44.476 355.95 44 355.678 43.368C355.406 42.736 355.27 41.956 355.27 41.028V34.44H358.918V40.44C358.918 41.016 359.046 41.44 359.302 41.712C359.566 41.976 360.054 42.108 360.766 42.108C361.158 42.108 361.546 42.064 361.93 41.976C362.314 41.888 362.662 41.776 362.974 41.64L362.662 44.676C362.254 44.852 361.782 44.992 361.246 45.096C360.718 45.208 360.142 45.264 359.518 45.264ZM362.542 36.132H353.686V33.252H362.866L362.542 36.132ZM358.81 33.516H355.318L355.306 30.468L358.942 30.12L358.81 33.516ZM369.705 45.336C367.801 45.336 366.361 44.864 365.385 43.92C364.417 42.968 363.933 41.632 363.933 39.912V38.364C363.933 36.62 364.421 35.268 365.397 34.308C366.373 33.34 367.809 32.856 369.705 32.856C371.601 32.856 373.033 33.34 374.001 34.308C374.977 35.268 375.465 36.62 375.465 38.364V39.912C375.465 41.632 374.981 42.968 374.013 43.92C373.045 44.864 371.609 45.336 369.705 45.336ZM369.705 42.444C370.385 42.444 370.901 42.24 371.253 41.832C371.613 41.416 371.793 40.828 371.793 40.068V38.208C371.793 37.408 371.613 36.8 371.253 36.384C370.901 35.968 370.385 35.76 369.705 35.76C369.025 35.76 368.505 35.968 368.145 36.384C367.793 36.8 367.617 37.408 367.617 38.208V40.068C367.617 40.828 367.793 41.416 368.145 41.832C368.505 42.24 369.025 42.444 369.705 42.444ZM389.85 45H386.094V30.384H389.85V45ZM394.074 32.796H381.858V29.664H394.074V32.796ZM396.927 45H393.135L397.527 29.664H403.167L407.535 45H403.743L400.491 32.136H400.215L396.927 45ZM403.779 41.388H396.867V38.472H403.779V41.388Z" fill="#D9D9D9"/>
<path d="M18.616 513H14.86V498.384H18.616V513ZM22.84 500.796H10.624V497.664H22.84V500.796ZM29.1964 510.06H31.1164L29.1484 510.912L31.8004 501.204H35.5564L30.7444 517.128H27.0724L28.9084 511.128L30.6364 512.496H26.5684L23.3764 501.204H27.1564L29.1964 510.06ZM44.2173 513.276C43.5133 513.276 42.9213 513.16 42.4413 512.928C41.9613 512.696 41.5773 512.368 41.2893 511.944C41.0093 511.512 40.8093 511.012 40.6893 510.444H39.7413L40.6053 507.972C40.6213 508.46 40.7133 508.872 40.8813 509.208C41.0573 509.544 41.3053 509.804 41.6253 509.988C41.9533 510.164 42.3413 510.252 42.7893 510.252C43.4613 510.252 43.9693 510.056 44.3133 509.664C44.6653 509.264 44.8413 508.672 44.8413 507.888V506.208C44.8413 505.424 44.6693 504.836 44.3253 504.444C43.9893 504.052 43.4853 503.856 42.8133 503.856C42.4373 503.856 42.0933 503.928 41.7812 504.072C41.4773 504.216 41.2173 504.408 41.0013 504.648C40.7933 504.88 40.6413 505.148 40.5453 505.452L39.7053 503.76H40.6773C40.7973 503.232 40.9973 502.756 41.2773 502.332C41.5573 501.9 41.9453 501.56 42.4413 501.312C42.9373 501.056 43.5693 500.928 44.3373 500.928C45.7133 500.928 46.7533 501.38 47.4573 502.284C48.1693 503.18 48.5253 504.528 48.5253 506.328V507.768C48.5253 509.584 48.1693 510.956 47.4573 511.884C46.7533 512.812 45.6733 513.276 44.2173 513.276ZM40.6533 517.128H37.0053V501.204H40.6533L40.5333 504.384L40.6053 504.804V509.34L40.5573 509.964L40.6533 513.12V517.128ZM56.455 513.3C54.311 513.3 52.727 512.824 51.703 511.872C50.679 510.912 50.167 509.516 50.167 507.684V506.46C50.167 504.652 50.647 503.268 51.607 502.308C52.567 501.34 53.963 500.856 55.795 500.856C57.027 500.856 58.051 501.068 58.867 501.492C59.691 501.908 60.307 502.504 60.715 503.28C61.131 504.056 61.339 504.988 61.339 506.076V506.472C61.339 506.776 61.323 507.088 61.291 507.408C61.267 507.72 61.231 508.012 61.183 508.284H57.871C57.903 507.82 57.923 507.384 57.931 506.976C57.939 506.56 57.943 506.184 57.943 505.848C57.943 505.36 57.867 504.952 57.715 504.624C57.563 504.288 57.327 504.032 57.007 503.856C56.695 503.68 56.291 503.592 55.795 503.592C55.059 503.592 54.519 503.792 54.175 504.192C53.839 504.584 53.671 505.144 53.671 505.872V506.952L53.695 507.348V508.188C53.695 508.492 53.743 508.78 53.839 509.052C53.943 509.324 54.119 509.564 54.367 509.772C54.623 509.972 54.971 510.132 55.411 510.252C55.859 510.364 56.427 510.42 57.115 510.42C57.843 510.42 58.543 510.352 59.215 510.216C59.887 510.072 60.531 509.88 61.147 509.64L60.847 512.4C60.303 512.68 59.659 512.9 58.915 513.06C58.171 513.22 57.351 513.3 56.455 513.3ZM60.439 508.284H52.111V506.016H60.439V508.284ZM79.5503 513H75.8783V506.064C75.8783 505.632 75.8223 505.26 75.7103 504.948C75.5983 504.628 75.4103 504.384 75.1463 504.216C74.8903 504.048 74.5303 503.964 74.0663 503.964C73.6903 503.964 73.3583 504.032 73.0703 504.168C72.7823 504.296 72.5423 504.476 72.3503 504.708C72.1663 504.932 72.0223 505.188 71.9183 505.476L71.1743 503.76H72.0263C72.1463 503.224 72.3503 502.744 72.6383 502.32C72.9263 501.896 73.3223 501.56 73.8263 501.312C74.3383 501.056 74.9783 500.928 75.7463 500.928C76.6263 500.928 77.3463 501.1 77.9063 501.444C78.4663 501.78 78.8783 502.284 79.1423 502.956C79.4143 503.628 79.5503 504.468 79.5503 505.476V513ZM71.9663 513H68.2943V497.148H71.9423V500.676L71.8823 504.564L71.9663 504.852V513ZM87.7441 513.3C85.6001 513.3 84.0161 512.824 82.9921 511.872C81.9681 510.912 81.4561 509.516 81.4561 507.684V506.46C81.4561 504.652 81.9361 503.268 82.8961 502.308C83.8561 501.34 85.2521 500.856 87.0841 500.856C88.3161 500.856 89.3401 501.068 90.1561 501.492C90.9801 501.908 91.5961 502.504 92.0041 503.28C92.4201 504.056 92.6281 504.988 92.6281 506.076V506.472C92.6281 506.776 92.6121 507.088 92.5801 507.408C92.5561 507.72 92.5201 508.012 92.4721 508.284H89.1601C89.1921 507.82 89.2121 507.384 89.2201 506.976C89.2281 506.56 89.2321 506.184 89.2321 505.848C89.2321 505.36 89.1561 504.952 89.0041 504.624C88.8521 504.288 88.6161 504.032 88.2961 503.856C87.9841 503.68 87.5801 503.592 87.0841 503.592C86.3481 503.592 85.8081 503.792 85.4641 504.192C85.1281 504.584 84.9601 505.144 84.9601 505.872V506.952L84.9841 507.348V508.188C84.9841 508.492 85.0321 508.78 85.1281 509.052C85.2321 509.324 85.4081 509.564 85.6561 509.772C85.9121 509.972 86.2601 510.132 86.7001 510.252C87.1481 510.364 87.7161 510.42 88.4041 510.42C89.1321 510.42 89.8321 510.352 90.5041 510.216C91.1761 510.072 91.8201 509.88 92.4361 509.64L92.1361 512.4C91.5921 512.68 90.9481 512.9 90.2041 513.06C89.4601 513.22 88.6401 513.3 87.7441 513.3ZM91.7281 508.284H83.4001V506.016H91.7281V508.284ZM98.2146 506.376L97.2066 504.144H98.0706C98.2626 503.168 98.6346 502.404 99.1866 501.852C99.7466 501.292 100.535 501.012 101.551 501.012C101.727 501.012 101.887 501.024 102.031 501.048C102.183 501.072 102.327 501.1 102.463 501.132L102.643 504.84C102.475 504.792 102.279 504.76 102.055 504.744C101.831 504.72 101.603 504.708 101.371 504.708C100.587 504.708 99.9266 504.856 99.3906 505.152C98.8546 505.44 98.4626 505.848 98.2146 506.376ZM98.2866 513H94.6146V501.204H98.0706L97.9146 504.972L98.2866 505.02V513ZM109.846 513.3C107.702 513.3 106.118 512.824 105.094 511.872C104.07 510.912 103.558 509.516 103.558 507.684V506.46C103.558 504.652 104.038 503.268 104.998 502.308C105.958 501.34 107.354 500.856 109.186 500.856C110.418 500.856 111.442 501.068 112.258 501.492C113.082 501.908 113.698 502.504 114.106 503.28C114.522 504.056 114.73 504.988 114.73 506.076V506.472C114.73 506.776 114.714 507.088 114.682 507.408C114.658 507.72 114.622 508.012 114.574 508.284H111.262C111.294 507.82 111.314 507.384 111.322 506.976C111.33 506.56 111.334 506.184 111.334 505.848C111.334 505.36 111.258 504.952 111.106 504.624C110.954 504.288 110.718 504.032 110.398 503.856C110.086 503.68 109.682 503.592 109.186 503.592C108.45 503.592 107.91 503.792 107.566 504.192C107.23 504.584 107.062 505.144 107.062 505.872V506.952L107.086 507.348V508.188C107.086 508.492 107.134 508.78 107.23 509.052C107.334 509.324 107.51 509.564 107.758 509.772C108.014 509.972 108.362 510.132 108.802 510.252C109.25 510.364 109.818 510.42 110.506 510.42C111.234 510.42 111.934 510.352 112.606 510.216C113.278 510.072 113.922 509.88 114.538 509.64L114.238 512.4C113.694 512.68 113.05 512.9 112.306 513.06C111.562 513.22 110.742 513.3 109.846 513.3ZM113.83 508.284H105.502V506.016H113.83V508.284Z" fill="#D9D9D9" fill-opacity="0.5"/>
<rect width="170" height="50" rx="25" transform="matrix(-1 0 0 1 385 540)" fill="#154734"/>
<path d="M280.156 573.324C279.444 573.324 278.776 573.276 278.152 573.18C277.536 573.092 276.972 572.976 276.46 572.832C275.956 572.68 275.512 572.524 275.128 572.364L274.804 568.908C275.436 569.204 276.184 569.48 277.048 569.736C277.912 569.984 278.828 570.108 279.796 570.108C280.732 570.108 281.396 569.992 281.788 569.76C282.188 569.52 282.388 569.148 282.388 568.644V568.56C282.388 568.224 282.296 567.952 282.112 567.744C281.936 567.528 281.636 567.332 281.212 567.156C280.796 566.972 280.232 566.776 279.52 566.568C278.448 566.248 277.552 565.892 276.832 565.5C276.12 565.108 275.588 564.62 275.236 564.036C274.884 563.444 274.708 562.696 274.708 561.792V561.636C274.708 560.244 275.18 559.18 276.124 558.444C277.076 557.708 278.472 557.34 280.312 557.34C281.416 557.34 282.368 557.436 283.168 557.628C283.976 557.82 284.66 558.048 285.22 558.312L285.544 561.528C284.928 561.232 284.228 560.984 283.444 560.784C282.668 560.576 281.836 560.472 280.948 560.472C280.324 560.472 279.832 560.524 279.472 560.628C279.12 560.732 278.872 560.884 278.728 561.084C278.584 561.276 278.512 561.512 278.512 561.792V561.84C278.512 562.128 278.592 562.38 278.752 562.596C278.92 562.812 279.216 563.02 279.64 563.22C280.072 563.42 280.684 563.636 281.476 563.868C282.54 564.18 283.42 564.516 284.116 564.876C284.82 565.228 285.344 565.688 285.688 566.256C286.04 566.816 286.216 567.564 286.216 568.5V568.692C286.216 570.236 285.716 571.396 284.716 572.172C283.716 572.94 282.196 573.324 280.156 573.324ZM294.064 573.3C291.92 573.3 290.336 572.824 289.312 571.872C288.288 570.912 287.776 569.516 287.776 567.684V566.46C287.776 564.652 288.256 563.268 289.216 562.308C290.176 561.34 291.572 560.856 293.404 560.856C294.636 560.856 295.66 561.068 296.476 561.492C297.3 561.908 297.916 562.504 298.324 563.28C298.74 564.056 298.948 564.988 298.948 566.076V566.472C298.948 566.776 298.932 567.088 298.9 567.408C298.876 567.72 298.84 568.012 298.792 568.284H295.48C295.512 567.82 295.532 567.384 295.54 566.976C295.548 566.56 295.552 566.184 295.552 565.848C295.552 565.36 295.476 564.952 295.324 564.624C295.172 564.288 294.936 564.032 294.616 563.856C294.304 563.68 293.9 563.592 293.404 563.592C292.668 563.592 292.128 563.792 291.784 564.192C291.448 564.584 291.28 565.144 291.28 565.872V566.952L291.304 567.348V568.188C291.304 568.492 291.352 568.78 291.448 569.052C291.552 569.324 291.728 569.564 291.976 569.772C292.232 569.972 292.58 570.132 293.02 570.252C293.468 570.364 294.036 570.42 294.724 570.42C295.452 570.42 296.152 570.352 296.824 570.216C297.496 570.072 298.14 569.88 298.756 569.64L298.456 572.4C297.912 572.68 297.268 572.9 296.524 573.06C295.78 573.22 294.96 573.3 294.064 573.3ZM298.048 568.284H289.72V566.016H298.048V568.284ZM312.191 573H308.519V566.064C308.519 565.632 308.463 565.26 308.351 564.948C308.239 564.628 308.051 564.384 307.787 564.216C307.523 564.048 307.163 563.964 306.707 563.964C306.331 563.964 305.999 564.032 305.711 564.168C305.423 564.296 305.179 564.476 304.979 564.708C304.787 564.932 304.643 565.188 304.547 565.476L303.983 563.76H304.607C304.735 563.224 304.943 562.744 305.231 562.32C305.527 561.896 305.931 561.56 306.443 561.312C306.955 561.056 307.603 560.928 308.387 560.928C309.267 560.928 309.987 561.1 310.547 561.444C311.107 561.78 311.519 562.284 311.783 562.956C312.055 563.628 312.191 564.468 312.191 565.476V573ZM304.607 573H300.935V561.204H304.583L304.463 564.156L304.607 564.504V573ZM318.333 573.276C316.957 573.276 315.913 572.824 315.201 571.92C314.497 571.016 314.145 569.672 314.145 567.888V566.436C314.145 564.62 314.501 563.248 315.213 562.32C315.925 561.392 317.001 560.928 318.441 560.928C319.145 560.928 319.733 561.044 320.205 561.276C320.677 561.508 321.053 561.836 321.333 562.26C321.621 562.684 321.821 563.184 321.933 563.76H322.929L322.065 566.136C322.049 565.648 321.953 565.236 321.777 564.9C321.601 564.564 321.353 564.308 321.033 564.132C320.721 563.948 320.341 563.856 319.893 563.856C319.221 563.856 318.709 564.052 318.357 564.444C318.005 564.836 317.829 565.424 317.829 566.208V567.9C317.829 568.676 318.005 569.264 318.357 569.664C318.717 570.056 319.245 570.252 319.941 570.252C320.309 570.252 320.637 570.184 320.925 570.048C321.221 569.912 321.469 569.724 321.669 569.484C321.877 569.244 322.029 568.972 322.125 568.668L323.025 570.444H321.993C321.873 570.972 321.673 571.452 321.393 571.884C321.113 572.316 320.725 572.656 320.229 572.904C319.733 573.152 319.101 573.276 318.333 573.276ZM325.665 573H322.017L322.125 570.012L322.065 569.388V564.612V564.096L322.017 560.676V557.148H325.665V573Z" fill="#E87500"/>
</svg>
