<svg width="540" height="150" viewBox="0 0 540 150" fill="none" xmlns="http://www.w3.org/2000/svg">
<rect width="540" height="150" rx="50" fill="#808080"/>
<g clip-path="url(#clip0_104_213)">
<rect x="20" y="20" width="500" height="50" rx="25" fill="#333333"/>
<path d="M41.1344 56.5H37.3424L41.7344 41.164H47.3744L51.7424 56.5H47.9504L44.6984 43.636H44.4224L41.1344 56.5ZM47.9864 52.888H41.0744V49.972H47.9864V52.888ZM56.8435 49.876L55.8355 47.644H56.6995C56.8915 46.668 57.2635 45.904 57.8155 45.352C58.3755 44.792 59.1635 44.512 60.1795 44.512C60.3555 44.512 60.5155 44.524 60.6595 44.548C60.8115 44.572 60.9555 44.6 61.0915 44.632L61.2715 48.34C61.1035 48.292 60.9075 48.26 60.6835 48.244C60.4595 48.22 60.2315 48.208 59.9995 48.208C59.2155 48.208 58.5555 48.356 58.0195 48.652C57.4835 48.94 57.0915 49.348 56.8435 49.876ZM56.9155 56.5H53.2435V44.704H56.6995L56.5435 48.472L56.9155 48.52V56.5ZM68.4745 56.8C66.3305 56.8 64.7465 56.324 63.7225 55.372C62.6985 54.412 62.1865 53.016 62.1865 51.184V49.96C62.1865 48.152 62.6665 46.768 63.6265 45.808C64.5865 44.84 65.9825 44.356 67.8145 44.356C69.0465 44.356 70.0705 44.568 70.8865 44.992C71.7105 45.408 72.3265 46.004 72.7345 46.78C73.1505 47.556 73.3585 48.488 73.3585 49.576V49.972C73.3585 50.276 73.3425 50.588 73.3105 50.908C73.2865 51.22 73.2505 51.512 73.2025 51.784H69.8905C69.9225 51.32 69.9425 50.884 69.9505 50.476C69.9585 50.06 69.9625 49.684 69.9625 49.348C69.9625 48.86 69.8865 48.452 69.7345 48.124C69.5825 47.788 69.3465 47.532 69.0265 47.356C68.7145 47.18 68.3105 47.092 67.8145 47.092C67.0785 47.092 66.5385 47.292 66.1945 47.692C65.8585 48.084 65.6905 48.644 65.6905 49.372V50.452L65.7145 50.848V51.688C65.7145 51.992 65.7625 52.28 65.8585 52.552C65.9625 52.824 66.1385 53.064 66.3865 53.272C66.6425 53.472 66.9905 53.632 67.4305 53.752C67.8785 53.864 68.4465 53.92 69.1345 53.92C69.8625 53.92 70.5625 53.852 71.2345 53.716C71.9065 53.572 72.5505 53.38 73.1665 53.14L72.8665 55.9C72.3225 56.18 71.6785 56.4 70.9345 56.56C70.1905 56.72 69.3705 56.8 68.4745 56.8ZM72.4585 51.784H64.1305V49.516H72.4585V51.784ZM85.1378 53.56H87.0578L85.0898 54.412L87.7418 44.704H91.4978L86.6858 60.628H83.0138L84.8498 54.628L86.5778 55.996H82.5098L79.3178 44.704H83.0978L85.1378 53.56ZM97.9117 56.836C96.0077 56.836 94.5677 56.364 93.5917 55.42C92.6237 54.468 92.1397 53.132 92.1397 51.412V49.864C92.1397 48.12 92.6277 46.768 93.6037 45.808C94.5797 44.84 96.0157 44.356 97.9117 44.356C99.8077 44.356 101.24 44.84 102.208 45.808C103.184 46.768 103.672 48.12 103.672 49.864V51.412C103.672 53.132 103.188 54.468 102.22 55.42C101.252 56.364 99.8157 56.836 97.9117 56.836ZM97.9117 53.944C98.5917 53.944 99.1077 53.74 99.4597 53.332C99.8197 52.916 99.9997 52.328 99.9997 51.568V49.708C99.9997 48.908 99.8197 48.3 99.4597 47.884C99.1077 47.468 98.5917 47.26 97.9117 47.26C97.2317 47.26 96.7117 47.468 96.3517 47.884C95.9997 48.3 95.8237 48.908 95.8237 49.708V51.568C95.8237 52.328 95.9997 52.916 96.3517 53.332C96.7117 53.74 97.2317 53.944 97.9117 53.944ZM105.589 44.704H109.261V51.64C109.261 52.072 109.317 52.448 109.429 52.768C109.541 53.08 109.729 53.324 109.993 53.5C110.257 53.668 110.617 53.752 111.073 53.752C111.457 53.752 111.789 53.684 112.069 53.548C112.357 53.412 112.597 53.228 112.789 52.996C112.989 52.764 113.137 52.508 113.233 52.228L113.797 53.944H113.173C113.045 54.472 112.833 54.952 112.537 55.384C112.249 55.816 111.849 56.156 111.337 56.404C110.833 56.652 110.185 56.776 109.393 56.776C108.521 56.776 107.801 56.608 107.233 56.272C106.673 55.928 106.257 55.42 105.985 54.748C105.721 54.076 105.589 53.236 105.589 52.228V44.704ZM113.173 44.704H116.845V56.5H113.197L113.317 53.548L113.173 53.212V44.704ZM128.459 56.788C127.523 56.788 126.679 56.704 125.927 56.536C125.175 56.376 124.531 56.188 123.995 55.972L123.683 52.888C124.299 53.144 124.979 53.376 125.723 53.584C126.475 53.784 127.287 53.884 128.159 53.884C128.855 53.884 129.347 53.812 129.635 53.668C129.931 53.516 130.079 53.284 130.079 52.972V52.924C130.079 52.708 130.003 52.532 129.851 52.396C129.707 52.252 129.451 52.124 129.083 52.012C128.723 51.9 128.215 51.768 127.559 51.616C126.575 51.384 125.795 51.112 125.219 50.8C124.643 50.48 124.231 50.092 123.983 49.636C123.743 49.172 123.623 48.624 123.623 47.992V47.896C123.623 46.728 124.039 45.856 124.871 45.28C125.703 44.696 126.927 44.404 128.543 44.404C129.455 44.404 130.275 44.488 131.003 44.656C131.731 44.824 132.343 45.024 132.839 45.256L133.151 48.124C132.575 47.868 131.931 47.656 131.219 47.488C130.515 47.32 129.775 47.236 128.999 47.236C128.527 47.236 128.155 47.268 127.883 47.332C127.619 47.396 127.431 47.488 127.319 47.608C127.215 47.728 127.163 47.876 127.163 48.052V48.088C127.163 48.28 127.227 48.444 127.355 48.58C127.483 48.716 127.715 48.844 128.051 48.964C128.395 49.084 128.887 49.22 129.527 49.372C130.519 49.588 131.319 49.836 131.927 50.116C132.535 50.388 132.979 50.744 133.259 51.184C133.539 51.616 133.679 52.192 133.679 52.912V53.02C133.679 54.292 133.251 55.24 132.395 55.864C131.539 56.48 130.227 56.788 128.459 56.788ZM135.237 44.704H138.909V51.64C138.909 52.072 138.965 52.448 139.077 52.768C139.189 53.08 139.377 53.324 139.641 53.5C139.905 53.668 140.265 53.752 140.721 53.752C141.105 53.752 141.437 53.684 141.717 53.548C142.005 53.412 142.245 53.228 142.437 52.996C142.637 52.764 142.785 52.508 142.881 52.228L143.445 53.944H142.821C142.693 54.472 142.481 54.952 142.185 55.384C141.897 55.816 141.497 56.156 140.985 56.404C140.481 56.652 139.833 56.776 139.041 56.776C138.169 56.776 137.449 56.608 136.881 56.272C136.321 55.928 135.905 55.42 135.633 54.748C135.369 54.076 135.237 53.236 135.237 52.228V44.704ZM142.821 44.704H146.493V56.5H142.845L142.965 53.548L142.821 53.212V44.704ZM152.539 49.876L151.531 47.644H152.395C152.587 46.668 152.959 45.904 153.511 45.352C154.071 44.792 154.859 44.512 155.875 44.512C156.051 44.512 156.211 44.524 156.355 44.548C156.507 44.572 156.651 44.6 156.787 44.632L156.967 48.34C156.799 48.292 156.603 48.26 156.379 48.244C156.155 48.22 155.927 48.208 155.695 48.208C154.911 48.208 154.251 48.356 153.715 48.652C153.179 48.94 152.787 49.348 152.539 49.876ZM152.611 56.5H148.939V44.704H152.395L152.239 48.472L152.611 48.52V56.5ZM164.17 56.8C162.026 56.8 160.442 56.324 159.418 55.372C158.394 54.412 157.882 53.016 157.882 51.184V49.96C157.882 48.152 158.362 46.768 159.322 45.808C160.282 44.84 161.678 44.356 163.51 44.356C164.742 44.356 165.766 44.568 166.582 44.992C167.406 45.408 168.022 46.004 168.43 46.78C168.846 47.556 169.054 48.488 169.054 49.576V49.972C169.054 50.276 169.038 50.588 169.006 50.908C168.982 51.22 168.946 51.512 168.898 51.784H165.586C165.618 51.32 165.638 50.884 165.646 50.476C165.654 50.06 165.658 49.684 165.658 49.348C165.658 48.86 165.582 48.452 165.43 48.124C165.278 47.788 165.042 47.532 164.722 47.356C164.41 47.18 164.006 47.092 163.51 47.092C162.774 47.092 162.234 47.292 161.89 47.692C161.554 48.084 161.386 48.644 161.386 49.372V50.452L161.41 50.848V51.688C161.41 51.992 161.458 52.28 161.554 52.552C161.658 52.824 161.834 53.064 162.082 53.272C162.338 53.472 162.686 53.632 163.126 53.752C163.574 53.864 164.142 53.92 164.83 53.92C165.558 53.92 166.258 53.852 166.93 53.716C167.602 53.572 168.246 53.38 168.862 53.14L168.562 55.9C168.018 56.18 167.374 56.4 166.63 56.56C165.886 56.72 165.066 56.8 164.17 56.8ZM168.154 51.784H159.826V49.516H168.154V51.784ZM180.833 53.56H182.753L180.785 54.412L183.437 44.704H187.193L182.381 60.628H178.709L180.545 54.628L182.273 55.996H178.205L175.013 44.704H178.793L180.833 53.56ZM193.607 56.836C191.703 56.836 190.263 56.364 189.287 55.42C188.319 54.468 187.835 53.132 187.835 51.412V49.864C187.835 48.12 188.323 46.768 189.299 45.808C190.275 44.84 191.711 44.356 193.607 44.356C195.503 44.356 196.935 44.84 197.903 45.808C198.879 46.768 199.367 48.12 199.367 49.864V51.412C199.367 53.132 198.883 54.468 197.915 55.42C196.947 56.364 195.511 56.836 193.607 56.836ZM193.607 53.944C194.287 53.944 194.803 53.74 195.155 53.332C195.515 52.916 195.695 52.328 195.695 51.568V49.708C195.695 48.908 195.515 48.3 195.155 47.884C194.803 47.468 194.287 47.26 193.607 47.26C192.927 47.26 192.407 47.468 192.047 47.884C191.695 48.3 191.519 48.908 191.519 49.708V51.568C191.519 52.328 191.695 52.916 192.047 53.332C192.407 53.74 192.927 53.944 193.607 53.944ZM201.284 44.704H204.956V51.64C204.956 52.072 205.012 52.448 205.124 52.768C205.236 53.08 205.424 53.324 205.688 53.5C205.952 53.668 206.312 53.752 206.768 53.752C207.152 53.752 207.484 53.684 207.764 53.548C208.052 53.412 208.292 53.228 208.484 52.996C208.684 52.764 208.832 52.508 208.928 52.228L209.492 53.944H208.868C208.74 54.472 208.528 54.952 208.232 55.384C207.944 55.816 207.544 56.156 207.032 56.404C206.528 56.652 205.88 56.776 205.088 56.776C204.216 56.776 203.496 56.608 202.928 56.272C202.368 55.928 201.952 55.42 201.68 54.748C201.416 54.076 201.284 53.236 201.284 52.228V44.704ZM208.868 44.704H212.54V56.5H208.892L209.012 53.548L208.868 53.212V44.704ZM226.65 56.5H221.406L219.042 44.704H222.762L224.226 53.908H224.442L225.882 44.992H230.37L231.834 53.908H232.038L233.514 44.704H237.198L234.834 56.5H229.614L228.426 48.988L228.222 47.668H228.054L227.838 48.988L226.65 56.5ZM248.768 56.5H245.156L245.264 53.548L245.18 53.368V49.684L245.156 49.204C245.156 48.548 244.964 48.064 244.58 47.752C244.196 47.44 243.552 47.284 242.648 47.284C241.856 47.284 241.104 47.384 240.392 47.584C239.68 47.784 239.008 48.012 238.376 48.268L238.688 45.424C239.064 45.248 239.484 45.084 239.948 44.932C240.42 44.772 240.94 44.644 241.508 44.548C242.076 44.452 242.684 44.404 243.332 44.404C244.364 44.404 245.228 44.524 245.924 44.764C246.62 45.004 247.176 45.344 247.592 45.784C248.008 46.224 248.308 46.752 248.492 47.368C248.676 47.976 248.768 48.648 248.768 49.384V56.5ZM241.4 56.776C240.224 56.776 239.332 56.48 238.724 55.888C238.116 55.296 237.812 54.452 237.812 53.356V53.032C237.812 51.872 238.168 51.016 238.88 50.464C239.6 49.904 240.74 49.524 242.3 49.324L245.468 48.904L245.684 51.112L242.876 51.52C242.308 51.592 241.908 51.724 241.676 51.916C241.444 52.108 241.328 52.392 241.328 52.768V52.852C241.328 53.212 241.444 53.5 241.676 53.716C241.908 53.924 242.28 54.028 242.792 54.028C243.24 54.028 243.624 53.96 243.944 53.824C244.272 53.688 244.54 53.512 244.748 53.296C244.956 53.072 245.112 52.824 245.216 52.552L245.732 54.04H245.132C245.004 54.552 244.804 55.016 244.532 55.432C244.268 55.848 243.884 56.176 243.38 56.416C242.876 56.656 242.216 56.776 241.4 56.776ZM262.312 56.5H258.64V49.564C258.64 49.132 258.584 48.76 258.472 48.448C258.36 48.128 258.172 47.884 257.908 47.716C257.644 47.548 257.284 47.464 256.828 47.464C256.452 47.464 256.12 47.532 255.832 47.668C255.544 47.796 255.3 47.976 255.1 48.208C254.908 48.432 254.764 48.688 254.668 48.976L254.104 47.26H254.728C254.856 46.724 255.064 46.244 255.352 45.82C255.648 45.396 256.052 45.06 256.564 44.812C257.076 44.556 257.724 44.428 258.508 44.428C259.388 44.428 260.108 44.6 260.668 44.944C261.228 45.28 261.64 45.784 261.904 46.456C262.176 47.128 262.312 47.968 262.312 48.976V56.5ZM254.728 56.5H251.056V44.704H254.704L254.584 47.656L254.728 48.004V56.5ZM269.319 56.764C268.271 56.764 267.435 56.608 266.811 56.296C266.195 55.976 265.751 55.5 265.479 54.868C265.207 54.236 265.071 53.456 265.071 52.528V45.94H268.719V51.94C268.719 52.516 268.847 52.94 269.103 53.212C269.367 53.476 269.855 53.608 270.567 53.608C270.959 53.608 271.347 53.564 271.731 53.476C272.115 53.388 272.463 53.276 272.775 53.14L272.463 56.176C272.055 56.352 271.583 56.492 271.047 56.596C270.519 56.708 269.943 56.764 269.319 56.764ZM272.343 47.632H263.487V44.752H272.667L272.343 47.632ZM268.611 45.016H265.119L265.107 41.968L268.743 41.62L268.611 45.016ZM284.014 56.764C282.966 56.764 282.13 56.608 281.506 56.296C280.89 55.976 280.446 55.5 280.174 54.868C279.902 54.236 279.766 53.456 279.766 52.528V45.94H283.414V51.94C283.414 52.516 283.542 52.94 283.798 53.212C284.062 53.476 284.55 53.608 285.262 53.608C285.654 53.608 286.042 53.564 286.426 53.476C286.81 53.388 287.158 53.276 287.47 53.14L287.158 56.176C286.75 56.352 286.278 56.492 285.742 56.596C285.214 56.708 284.638 56.764 284.014 56.764ZM287.038 47.632H278.182V44.752H287.362L287.038 47.632ZM283.306 45.016H279.814L279.802 41.968L283.438 41.62L283.306 45.016ZM294.201 56.836C292.297 56.836 290.857 56.364 289.881 55.42C288.913 54.468 288.429 53.132 288.429 51.412V49.864C288.429 48.12 288.917 46.768 289.893 45.808C290.869 44.84 292.305 44.356 294.201 44.356C296.097 44.356 297.529 44.84 298.497 45.808C299.473 46.768 299.961 48.12 299.961 49.864V51.412C299.961 53.132 299.477 54.468 298.509 55.42C297.541 56.364 296.105 56.836 294.201 56.836ZM294.201 53.944C294.881 53.944 295.397 53.74 295.749 53.332C296.109 52.916 296.289 52.328 296.289 51.568V49.708C296.289 48.908 296.109 48.3 295.749 47.884C295.397 47.468 294.881 47.26 294.201 47.26C293.521 47.26 293.001 47.468 292.641 47.884C292.289 48.3 292.113 48.908 292.113 49.708V51.568C292.113 52.328 292.289 52.916 292.641 53.332C293.001 53.74 293.521 53.944 294.201 53.944ZM312.042 56.812C310.17 56.812 308.782 56.32 307.878 55.336C306.974 54.352 306.522 52.968 306.522 51.184V49.96C306.522 48.208 306.974 46.84 307.878 45.856C308.782 44.872 310.166 44.38 312.03 44.38C312.51 44.38 312.958 44.416 313.374 44.488C313.79 44.552 314.174 44.644 314.526 44.764C314.878 44.884 315.186 45.012 315.45 45.148L315.75 48.184C315.358 47.96 314.926 47.776 314.454 47.632C313.982 47.48 313.45 47.404 312.858 47.404C311.93 47.404 311.258 47.628 310.842 48.076C310.426 48.524 310.218 49.172 310.218 50.02V51.04C310.218 51.904 310.438 52.568 310.878 53.032C311.318 53.496 312.006 53.728 312.942 53.728C313.526 53.728 314.05 53.66 314.514 53.524C314.986 53.38 315.434 53.196 315.858 52.972L315.57 56.02C315.154 56.244 314.642 56.432 314.034 56.584C313.426 56.736 312.762 56.812 312.042 56.812ZM321.373 56.5H317.701V40.648H321.373V56.5ZM329.685 56.8C327.541 56.8 325.957 56.324 324.933 55.372C323.909 54.412 323.397 53.016 323.397 51.184V49.96C323.397 48.152 323.877 46.768 324.837 45.808C325.797 44.84 327.193 44.356 329.025 44.356C330.257 44.356 331.281 44.568 332.097 44.992C332.921 45.408 333.537 46.004 333.945 46.78C334.361 47.556 334.569 48.488 334.569 49.576V49.972C334.569 50.276 334.553 50.588 334.521 50.908C334.497 51.22 334.461 51.512 334.413 51.784H331.101C331.133 51.32 331.153 50.884 331.161 50.476C331.169 50.06 331.173 49.684 331.173 49.348C331.173 48.86 331.097 48.452 330.945 48.124C330.793 47.788 330.557 47.532 330.237 47.356C329.925 47.18 329.521 47.092 329.025 47.092C328.289 47.092 327.749 47.292 327.405 47.692C327.069 48.084 326.901 48.644 326.901 49.372V50.452L326.925 50.848V51.688C326.925 51.992 326.973 52.28 327.069 52.552C327.173 52.824 327.349 53.064 327.597 53.272C327.853 53.472 328.201 53.632 328.641 53.752C329.089 53.864 329.657 53.92 330.345 53.92C331.073 53.92 331.773 53.852 332.445 53.716C333.117 53.572 333.761 53.38 334.377 53.14L334.077 55.9C333.533 56.18 332.889 56.4 332.145 56.56C331.401 56.72 330.581 56.8 329.685 56.8ZM333.669 51.784H325.341V49.516H333.669V51.784ZM346.854 56.5H343.242L343.35 53.548L343.266 53.368V49.684L343.242 49.204C343.242 48.548 343.05 48.064 342.666 47.752C342.282 47.44 341.638 47.284 340.734 47.284C339.942 47.284 339.19 47.384 338.478 47.584C337.766 47.784 337.094 48.012 336.462 48.268L336.774 45.424C337.15 45.248 337.57 45.084 338.034 44.932C338.506 44.772 339.026 44.644 339.594 44.548C340.162 44.452 340.77 44.404 341.418 44.404C342.45 44.404 343.314 44.524 344.01 44.764C344.706 45.004 345.262 45.344 345.678 45.784C346.094 46.224 346.394 46.752 346.578 47.368C346.762 47.976 346.854 48.648 346.854 49.384V56.5ZM339.486 56.776C338.31 56.776 337.418 56.48 336.81 55.888C336.202 55.296 335.898 54.452 335.898 53.356V53.032C335.898 51.872 336.254 51.016 336.966 50.464C337.686 49.904 338.826 49.524 340.386 49.324L343.554 48.904L343.77 51.112L340.962 51.52C340.394 51.592 339.994 51.724 339.762 51.916C339.53 52.108 339.414 52.392 339.414 52.768V52.852C339.414 53.212 339.53 53.5 339.762 53.716C339.994 53.924 340.366 54.028 340.878 54.028C341.326 54.028 341.71 53.96 342.03 53.824C342.358 53.688 342.626 53.512 342.834 53.296C343.042 53.072 343.198 52.824 343.302 52.552L343.818 54.04H343.218C343.09 54.552 342.89 55.016 342.618 55.432C342.354 55.848 341.97 56.176 341.466 56.416C340.962 56.656 340.302 56.776 339.486 56.776ZM352.742 49.876L351.734 47.644H352.598C352.79 46.668 353.162 45.904 353.714 45.352C354.274 44.792 355.062 44.512 356.078 44.512C356.254 44.512 356.414 44.524 356.558 44.548C356.71 44.572 356.854 44.6 356.99 44.632L357.17 48.34C357.002 48.292 356.806 48.26 356.582 48.244C356.358 48.22 356.13 48.208 355.898 48.208C355.114 48.208 354.454 48.356 353.918 48.652C353.382 48.94 352.99 49.348 352.742 49.876ZM352.814 56.5H349.142V44.704H352.598L352.442 48.472L352.814 48.52V56.5ZM368.45 53.56H370.37L368.402 54.412L371.054 44.704H374.81L369.998 60.628H366.326L368.162 54.628L369.89 55.996H365.822L362.63 44.704H366.41L368.45 53.56ZM381.224 56.836C379.32 56.836 377.88 56.364 376.904 55.42C375.936 54.468 375.452 53.132 375.452 51.412V49.864C375.452 48.12 375.94 46.768 376.916 45.808C377.892 44.84 379.328 44.356 381.224 44.356C383.12 44.356 384.552 44.84 385.52 45.808C386.496 46.768 386.984 48.12 386.984 49.864V51.412C386.984 53.132 386.5 54.468 385.532 55.42C384.564 56.364 383.128 56.836 381.224 56.836ZM381.224 53.944C381.904 53.944 382.42 53.74 382.772 53.332C383.132 52.916 383.312 52.328 383.312 51.568V49.708C383.312 48.908 383.132 48.3 382.772 47.884C382.42 47.468 381.904 47.26 381.224 47.26C380.544 47.26 380.024 47.468 379.664 47.884C379.312 48.3 379.136 48.908 379.136 49.708V51.568C379.136 52.328 379.312 52.916 379.664 53.332C380.024 53.74 380.544 53.944 381.224 53.944ZM388.901 44.704H392.573V51.64C392.573 52.072 392.629 52.448 392.741 52.768C392.853 53.08 393.041 53.324 393.305 53.5C393.569 53.668 393.929 53.752 394.385 53.752C394.769 53.752 395.101 53.684 395.381 53.548C395.669 53.412 395.909 53.228 396.101 52.996C396.301 52.764 396.449 52.508 396.545 52.228L397.109 53.944H396.485C396.357 54.472 396.145 54.952 395.849 55.384C395.561 55.816 395.161 56.156 394.649 56.404C394.145 56.652 393.497 56.776 392.705 56.776C391.833 56.776 391.113 56.608 390.545 56.272C389.985 55.928 389.569 55.42 389.297 54.748C389.033 54.076 388.901 53.236 388.901 52.228V44.704ZM396.485 44.704H400.157V56.5H396.509L396.629 53.548L396.485 53.212V44.704ZM406.203 49.876L405.195 47.644H406.059C406.251 46.668 406.623 45.904 407.175 45.352C407.735 44.792 408.523 44.512 409.539 44.512C409.715 44.512 409.875 44.524 410.019 44.548C410.171 44.572 410.315 44.6 410.451 44.632L410.631 48.34C410.463 48.292 410.267 48.26 410.043 48.244C409.819 48.22 409.591 48.208 409.359 48.208C408.575 48.208 407.915 48.356 407.379 48.652C406.843 48.94 406.451 49.348 406.203 49.876ZM406.275 56.5H402.603V44.704H406.059L405.903 48.472L406.275 48.52V56.5ZM428.343 56.5H424.671V49.564C424.671 49.132 424.615 48.76 424.503 48.448C424.391 48.128 424.203 47.884 423.939 47.716C423.683 47.548 423.323 47.464 422.859 47.464C422.483 47.464 422.151 47.532 421.863 47.668C421.575 47.796 421.335 47.976 421.143 48.208C420.959 48.432 420.815 48.688 420.711 48.976L419.967 47.26H420.819C420.939 46.724 421.143 46.244 421.431 45.82C421.719 45.396 422.115 45.06 422.619 44.812C423.131 44.556 423.771 44.428 424.539 44.428C425.419 44.428 426.139 44.6 426.699 44.944C427.259 45.28 427.671 45.784 427.935 46.456C428.207 47.128 428.343 47.968 428.343 48.976V56.5ZM420.759 56.5H417.087V40.648H420.735V44.176L420.675 48.064L420.759 48.352V56.5ZM434.365 56.5H430.693V44.704H434.365V56.5ZM432.529 43.588C431.841 43.588 431.341 43.432 431.029 43.12C430.717 42.8 430.561 42.372 430.561 41.836V41.752C430.561 41.216 430.717 40.792 431.029 40.48C431.341 40.168 431.841 40.012 432.529 40.012C433.201 40.012 433.693 40.168 434.005 40.48C434.325 40.792 434.485 41.216 434.485 41.752V41.836C434.485 42.38 434.325 42.808 434.005 43.12C433.693 43.432 433.201 43.588 432.529 43.588ZM440.998 56.788C440.062 56.788 439.218 56.704 438.466 56.536C437.714 56.376 437.07 56.188 436.534 55.972L436.222 52.888C436.838 53.144 437.518 53.376 438.262 53.584C439.014 53.784 439.826 53.884 440.698 53.884C441.394 53.884 441.886 53.812 442.174 53.668C442.47 53.516 442.618 53.284 442.618 52.972V52.924C442.618 52.708 442.542 52.532 442.39 52.396C442.246 52.252 441.99 52.124 441.622 52.012C441.262 51.9 440.754 51.768 440.098 51.616C439.114 51.384 438.334 51.112 437.758 50.8C437.182 50.48 436.77 50.092 436.522 49.636C436.282 49.172 436.162 48.624 436.162 47.992V47.896C436.162 46.728 436.578 45.856 437.41 45.28C438.242 44.696 439.466 44.404 441.082 44.404C441.994 44.404 442.814 44.488 443.542 44.656C444.27 44.824 444.882 45.024 445.378 45.256L445.69 48.124C445.114 47.868 444.47 47.656 443.758 47.488C443.054 47.32 442.314 47.236 441.538 47.236C441.066 47.236 440.694 47.268 440.422 47.332C440.158 47.396 439.97 47.488 439.858 47.608C439.754 47.728 439.702 47.876 439.702 48.052V48.088C439.702 48.28 439.766 48.444 439.894 48.58C440.022 48.716 440.254 48.844 440.59 48.964C440.934 49.084 441.426 49.22 442.066 49.372C443.058 49.588 443.858 49.836 444.466 50.116C445.074 50.388 445.518 50.744 445.798 51.184C446.078 51.616 446.218 52.192 446.218 52.912V53.02C446.218 54.292 445.79 55.24 444.934 55.864C444.078 56.48 442.766 56.788 440.998 56.788ZM452.553 56.764C451.505 56.764 450.669 56.608 450.045 56.296C449.429 55.976 448.985 55.5 448.713 54.868C448.441 54.236 448.305 53.456 448.305 52.528V45.94H451.953V51.94C451.953 52.516 452.081 52.94 452.337 53.212C452.601 53.476 453.089 53.608 453.801 53.608C454.193 53.608 454.581 53.564 454.965 53.476C455.349 53.388 455.697 53.276 456.009 53.14L455.697 56.176C455.289 56.352 454.817 56.492 454.281 56.596C453.753 56.708 453.177 56.764 452.553 56.764ZM455.577 47.632H446.721V44.752H455.901L455.577 47.632ZM451.845 45.016H448.353L448.341 41.968L451.977 41.62L451.845 45.016ZM462.74 56.836C460.836 56.836 459.396 56.364 458.42 55.42C457.452 54.468 456.968 53.132 456.968 51.412V49.864C456.968 48.12 457.456 46.768 458.432 45.808C459.408 44.84 460.844 44.356 462.74 44.356C464.636 44.356 466.068 44.84 467.036 45.808C468.012 46.768 468.5 48.12 468.5 49.864V51.412C468.5 53.132 468.016 54.468 467.048 55.42C466.08 56.364 464.644 56.836 462.74 56.836ZM462.74 53.944C463.42 53.944 463.936 53.74 464.288 53.332C464.648 52.916 464.828 52.328 464.828 51.568V49.708C464.828 48.908 464.648 48.3 464.288 47.884C463.936 47.468 463.42 47.26 462.74 47.26C462.06 47.26 461.54 47.468 461.18 47.884C460.828 48.3 460.652 48.908 460.652 49.708V51.568C460.652 52.328 460.828 52.916 461.18 53.332C461.54 53.74 462.06 53.944 462.74 53.944ZM474.125 49.876L473.117 47.644H473.981C474.173 46.668 474.545 45.904 475.097 45.352C475.657 44.792 476.445 44.512 477.461 44.512C477.637 44.512 477.797 44.524 477.941 44.548C478.093 44.572 478.237 44.6 478.373 44.632L478.553 48.34C478.385 48.292 478.189 48.26 477.965 48.244C477.741 48.22 477.513 48.208 477.281 48.208C476.497 48.208 475.837 48.356 475.301 48.652C474.765 48.94 474.373 49.348 474.125 49.876ZM474.197 56.5H470.525V44.704H473.981L473.825 48.472L474.197 48.52V56.5ZM485.005 53.56H486.925L484.957 54.412L487.609 44.704H491.365L486.553 60.628H482.881L484.717 54.628L486.445 55.996H482.377L479.185 44.704H482.965L485.005 53.56ZM496.408 51.328L494.728 51.628V48.496L495.88 48.268C496.544 48.14 497.06 47.976 497.428 47.776C497.804 47.576 498.072 47.332 498.232 47.044C498.392 46.756 498.472 46.42 498.472 46.036V45.736C498.472 45.152 498.296 44.712 497.944 44.416C497.592 44.12 496.992 43.972 496.144 43.972C495.464 43.972 494.796 44.052 494.14 44.212C493.484 44.364 492.844 44.564 492.22 44.812L492.628 41.704C492.932 41.56 493.3 41.424 493.732 41.296C494.164 41.168 494.648 41.064 495.184 40.984C495.72 40.896 496.288 40.852 496.888 40.852C498.688 40.852 500.028 41.244 500.908 42.028C501.788 42.812 502.228 43.948 502.228 45.436V45.928C502.228 47.016 502.008 47.92 501.568 48.64C501.136 49.36 500.488 49.932 499.624 50.356C498.76 50.78 497.688 51.104 496.408 51.328ZM496.144 56.824C495.472 56.824 494.976 56.648 494.656 56.296C494.336 55.944 494.176 55.46 494.176 54.844V54.712C494.176 54.096 494.336 53.612 494.656 53.26C494.976 52.908 495.472 52.732 496.144 52.732C496.816 52.732 497.312 52.908 497.632 53.26C497.96 53.612 498.124 54.096 498.124 54.712V54.844C498.124 55.46 497.96 55.944 497.632 56.296C497.312 56.648 496.816 56.824 496.144 56.824Z" fill="#D9D9D9"/>
</g>
<rect x="165" y="80" width="100" height="50" rx="25" fill="#154734"/>
<path d="M205.677 104.492H202.317L197.073 93.164H200.997L202.941 97.784L203.901 100.292H204.093L205.041 97.784L206.973 93.164H210.897L205.677 104.492ZM205.845 108.5H202.149V101.12H205.845V108.5ZM216.139 108.8C213.995 108.8 212.411 108.324 211.387 107.372C210.363 106.412 209.851 105.016 209.851 103.184V101.96C209.851 100.152 210.331 98.768 211.291 97.808C212.251 96.84 213.647 96.356 215.479 96.356C216.711 96.356 217.735 96.568 218.551 96.992C219.375 97.408 219.991 98.004 220.399 98.78C220.815 99.556 221.023 100.488 221.023 101.576V101.972C221.023 102.276 221.007 102.588 220.975 102.908C220.951 103.22 220.915 103.512 220.867 103.784H217.555C217.587 103.32 217.607 102.884 217.615 102.476C217.623 102.06 217.627 101.684 217.627 101.348C217.627 100.86 217.551 100.452 217.399 100.124C217.247 99.788 217.011 99.532 216.691 99.356C216.379 99.18 215.975 99.092 215.479 99.092C214.743 99.092 214.203 99.292 213.859 99.692C213.523 100.084 213.355 100.644 213.355 101.372V102.452L213.379 102.848V103.688C213.379 103.992 213.427 104.28 213.523 104.552C213.627 104.824 213.803 105.064 214.051 105.272C214.307 105.472 214.655 105.632 215.095 105.752C215.543 105.864 216.111 105.92 216.799 105.92C217.527 105.92 218.227 105.852 218.899 105.716C219.571 105.572 220.215 105.38 220.831 105.14L220.531 107.9C219.987 108.18 219.343 108.4 218.599 108.56C217.855 108.72 217.035 108.8 216.139 108.8ZM220.123 103.784H211.795V101.516H220.123V103.784ZM227.279 108.788C226.343 108.788 225.499 108.704 224.747 108.536C223.995 108.376 223.351 108.188 222.815 107.972L222.503 104.888C223.119 105.144 223.799 105.376 224.543 105.584C225.295 105.784 226.107 105.884 226.979 105.884C227.675 105.884 228.167 105.812 228.455 105.668C228.751 105.516 228.899 105.284 228.899 104.972V104.924C228.899 104.708 228.823 104.532 228.671 104.396C228.527 104.252 228.271 104.124 227.903 104.012C227.543 103.9 227.035 103.768 226.379 103.616C225.395 103.384 224.615 103.112 224.039 102.8C223.463 102.48 223.051 102.092 222.803 101.636C222.563 101.172 222.443 100.624 222.443 99.992V99.896C222.443 98.728 222.859 97.856 223.691 97.28C224.523 96.696 225.747 96.404 227.363 96.404C228.275 96.404 229.095 96.488 229.823 96.656C230.551 96.824 231.163 97.024 231.659 97.256L231.971 100.124C231.395 99.868 230.751 99.656 230.039 99.488C229.335 99.32 228.595 99.236 227.819 99.236C227.347 99.236 226.975 99.268 226.703 99.332C226.439 99.396 226.251 99.488 226.139 99.608C226.035 99.728 225.983 99.876 225.983 100.052V100.088C225.983 100.28 226.047 100.444 226.175 100.58C226.303 100.716 226.535 100.844 226.871 100.964C227.215 101.084 227.707 101.22 228.347 101.372C229.339 101.588 230.139 101.836 230.747 102.116C231.355 102.388 231.799 102.744 232.079 103.184C232.359 103.616 232.499 104.192 232.499 104.912V105.02C232.499 106.292 232.071 107.24 231.215 107.864C230.359 108.48 229.047 108.788 227.279 108.788Z" fill="#E87500"/>
<rect x="275" y="80" width="100" height="50" rx="25" fill="#154734"/>
<path d="M312.001 93.152H317.173L321.325 104.408H321.493L321.325 97.928V93.152H324.901V108.5H319.873L315.565 96.992H315.409L315.577 103.616V108.5H312.001V93.152ZM332.83 108.836C330.926 108.836 329.486 108.364 328.51 107.42C327.542 106.468 327.058 105.132 327.058 103.412V101.864C327.058 100.12 327.546 98.768 328.522 97.808C329.498 96.84 330.934 96.356 332.83 96.356C334.726 96.356 336.158 96.84 337.126 97.808C338.102 98.768 338.59 100.12 338.59 101.864V103.412C338.59 105.132 338.106 106.468 337.138 107.42C336.17 108.364 334.734 108.836 332.83 108.836ZM332.83 105.944C333.51 105.944 334.026 105.74 334.378 105.332C334.738 104.916 334.918 104.328 334.918 103.568V101.708C334.918 100.908 334.738 100.3 334.378 99.884C334.026 99.468 333.51 99.26 332.83 99.26C332.15 99.26 331.63 99.468 331.27 99.884C330.918 100.3 330.742 100.908 330.742 101.708V103.568C330.742 104.328 330.918 104.916 331.27 105.332C331.63 105.74 332.15 105.944 332.83 105.944Z" fill="#E87500"/>
<defs>
<clipPath id="clip0_104_213">
<rect x="20" y="20" width="500" height="50" rx="25" fill="white"/>
</clipPath>
</defs>
</svg>
