<svg width="281" height="90" viewBox="0 0 281 90" fill="none" xmlns="http://www.w3.org/2000/svg">
<path d="M198.001 33.152H203.173L207.325 44.408H207.493L207.325 37.928V33.152H210.901V48.5H205.873L201.565 36.992H201.409L201.577 43.616V48.5H198.001V33.152ZM218.83 48.836C216.926 48.836 215.486 48.364 214.51 47.42C213.542 46.468 213.058 45.132 213.058 43.412V41.864C213.058 40.12 213.546 38.768 214.522 37.808C215.498 36.84 216.934 36.356 218.83 36.356C220.726 36.356 222.158 36.84 223.126 37.808C224.102 38.768 224.59 40.12 224.59 41.864V43.412C224.59 45.132 224.106 46.468 223.138 47.42C222.17 48.364 220.734 48.836 218.83 48.836ZM218.83 45.944C219.51 45.944 220.026 45.74 220.378 45.332C220.738 44.916 220.918 44.328 220.918 43.568V41.708C220.918 40.908 220.738 40.3 220.378 39.884C220.026 39.468 219.51 39.26 218.83 39.26C218.15 39.26 217.63 39.468 217.27 39.884C216.918 40.3 216.742 40.908 216.742 41.708V43.568C216.742 44.328 216.918 44.916 217.27 45.332C217.63 45.74 218.15 45.944 218.83 45.944Z" fill="#154734"/>
<rect x="20" y="20" width="100" height="50" rx="25" fill="#808080"/>
<path d="M57.0014 33.152H62.1734L66.3254 44.408H66.4934L66.3254 37.928V33.152H69.9014V48.5H64.8734L60.5654 36.992H60.4094L60.5774 43.616V48.5H57.0014V33.152ZM77.8296 48.836C75.9256 48.836 74.4856 48.364 73.5096 47.42C72.5416 46.468 72.0576 45.132 72.0576 43.412V41.864C72.0576 40.12 72.5456 38.768 73.5216 37.808C74.4976 36.84 75.9336 36.356 77.8296 36.356C79.7256 36.356 81.1576 36.84 82.1256 37.808C83.1016 38.768 83.5896 40.12 83.5896 41.864V43.412C83.5896 45.132 83.1056 46.468 82.1376 47.42C81.1696 48.364 79.7336 48.836 77.8296 48.836ZM77.8296 45.944C78.5096 45.944 79.0256 45.74 79.3776 45.332C79.7376 44.916 79.9176 44.328 79.9176 43.568V41.708C79.9176 40.908 79.7376 40.3 79.3776 39.884C79.0256 39.468 78.5096 39.26 77.8296 39.26C77.1496 39.26 76.6296 39.468 76.2696 39.884C75.9176 40.3 75.7416 40.908 75.7416 41.708V43.568C75.7416 44.328 75.9176 44.916 76.2696 45.332C76.6296 45.74 77.1496 45.944 77.8296 45.944Z" fill="white"/>
<rect x="0.5" y="0.5" width="280" height="89" rx="4.5" stroke="#9747FF" stroke-dasharray="10 5"/>
</svg>
