<svg width="429" height="90" viewBox="0 0 429 90" fill="none" xmlns="http://www.w3.org/2000/svg">
<rect x="20" y="20" width="170" height="50" rx="25" fill="#808080"/>
<path d="M45.404 52.336C43.22 52.336 41.592 51.76 40.52 50.608C39.456 49.448 38.924 47.796 38.924 45.652V42.928C38.924 40.824 39.46 39.2 40.532 38.056C41.604 36.904 43.22 36.328 45.38 36.328C45.956 36.328 46.488 36.372 46.976 36.46C47.464 36.548 47.908 36.668 48.308 36.82C48.708 36.964 49.06 37.128 49.364 37.312L49.64 40.528C49.168 40.28 48.648 40.064 48.08 39.88C47.52 39.688 46.868 39.592 46.124 39.592C44.98 39.592 44.132 39.9 43.58 40.516C43.036 41.124 42.764 41.98 42.764 43.084V45.508C42.764 46.604 43.04 47.46 43.592 48.076C44.152 48.692 45.044 49 46.268 49C46.988 49 47.632 48.904 48.2 48.712C48.768 48.52 49.288 48.288 49.76 48.016L49.484 51.304C49.18 51.488 48.824 51.66 48.416 51.82C48.008 51.972 47.552 52.096 47.048 52.192C46.552 52.288 46.004 52.336 45.404 52.336ZM55.3533 52H51.6813V36.148H55.3533V52ZM63.6659 52.3C61.5219 52.3 59.9379 51.824 58.9139 50.872C57.8899 49.912 57.3779 48.516 57.3779 46.684V45.46C57.3779 43.652 57.8579 42.268 58.8179 41.308C59.7779 40.34 61.1739 39.856 63.0059 39.856C64.2379 39.856 65.2619 40.068 66.0779 40.492C66.9019 40.908 67.5179 41.504 67.9259 42.28C68.3419 43.056 68.5499 43.988 68.5499 45.076V45.472C68.5499 45.776 68.5339 46.088 68.5019 46.408C68.4779 46.72 68.4419 47.012 68.3939 47.284H65.0819C65.1139 46.82 65.1339 46.384 65.1419 45.976C65.1499 45.56 65.1539 45.184 65.1539 44.848C65.1539 44.36 65.0779 43.952 64.9259 43.624C64.7739 43.288 64.5379 43.032 64.2179 42.856C63.9059 42.68 63.5019 42.592 63.0059 42.592C62.2699 42.592 61.7299 42.792 61.3859 43.192C61.0499 43.584 60.8819 44.144 60.8819 44.872V45.952L60.9059 46.348V47.188C60.9059 47.492 60.9539 47.78 61.0499 48.052C61.1539 48.324 61.3299 48.564 61.5779 48.772C61.8339 48.972 62.1819 49.132 62.6219 49.252C63.0699 49.364 63.6379 49.42 64.3259 49.42C65.0539 49.42 65.7539 49.352 66.4259 49.216C67.0979 49.072 67.7419 48.88 68.3579 48.64L68.0579 51.4C67.5139 51.68 66.8699 51.9 66.1259 52.06C65.3819 52.22 64.5619 52.3 63.6659 52.3ZM67.6499 47.284H59.3219V45.016H67.6499V47.284ZM80.8342 52H77.2222L77.3302 49.048L77.2462 48.868V45.184L77.2222 44.704C77.2222 44.048 77.0302 43.564 76.6462 43.252C76.2622 42.94 75.6182 42.784 74.7142 42.784C73.9222 42.784 73.1702 42.884 72.4582 43.084C71.7462 43.284 71.0742 43.512 70.4422 43.768L70.7542 40.924C71.1302 40.748 71.5502 40.584 72.0142 40.432C72.4862 40.272 73.0062 40.144 73.5742 40.048C74.1422 39.952 74.7502 39.904 75.3982 39.904C76.4302 39.904 77.2942 40.024 77.9902 40.264C78.6862 40.504 79.2422 40.844 79.6582 41.284C80.0742 41.724 80.3742 42.252 80.5582 42.868C80.7422 43.476 80.8342 44.148 80.8342 44.884V52ZM73.4662 52.276C72.2902 52.276 71.3982 51.98 70.7902 51.388C70.1822 50.796 69.8782 49.952 69.8782 48.856V48.532C69.8782 47.372 70.2342 46.516 70.9462 45.964C71.6662 45.404 72.8062 45.024 74.3662 44.824L77.5342 44.404L77.7502 46.612L74.9422 47.02C74.3742 47.092 73.9742 47.224 73.7422 47.416C73.5102 47.608 73.3942 47.892 73.3942 48.268V48.352C73.3942 48.712 73.5102 49 73.7422 49.216C73.9742 49.424 74.3462 49.528 74.8582 49.528C75.3062 49.528 75.6902 49.46 76.0102 49.324C76.3382 49.188 76.6062 49.012 76.8142 48.796C77.0222 48.572 77.1782 48.324 77.2822 48.052L77.7982 49.54H77.1982C77.0702 50.052 76.8702 50.516 76.5982 50.932C76.3342 51.348 75.9502 51.676 75.4462 51.916C74.9422 52.156 74.2822 52.276 73.4662 52.276ZM86.7224 45.376L85.7144 43.144H86.5784C86.7704 42.168 87.1424 41.404 87.6944 40.852C88.2544 40.292 89.0424 40.012 90.0584 40.012C90.2344 40.012 90.3944 40.024 90.5384 40.048C90.6904 40.072 90.8344 40.1 90.9704 40.132L91.1504 43.84C90.9824 43.792 90.7864 43.76 90.5624 43.744C90.3384 43.72 90.1104 43.708 89.8784 43.708C89.0944 43.708 88.4344 43.856 87.8984 44.152C87.3624 44.44 86.9704 44.848 86.7224 45.376ZM86.7944 52H83.1224V40.204H86.5784L86.4224 43.972L86.7944 44.02V52ZM101.531 36.664V52H97.7748V36.664H101.531ZM110.675 36.664V52H106.907V36.664H110.675ZM99.9348 45.724V42.592H108.323V45.724H99.9348ZM116.971 52H113.299V40.204H116.971V52ZM115.135 39.088C114.447 39.088 113.947 38.932 113.635 38.62C113.323 38.3 113.167 37.872 113.167 37.336V37.252C113.167 36.716 113.323 36.292 113.635 35.98C113.947 35.668 114.447 35.512 115.135 35.512C115.807 35.512 116.299 35.668 116.611 35.98C116.931 36.292 117.091 36.716 117.091 37.252V37.336C117.091 37.88 116.931 38.308 116.611 38.62C116.299 38.932 115.807 39.088 115.135 39.088ZM123.604 52.288C122.668 52.288 121.824 52.204 121.072 52.036C120.32 51.876 119.676 51.688 119.14 51.472L118.828 48.388C119.444 48.644 120.124 48.876 120.868 49.084C121.62 49.284 122.432 49.384 123.304 49.384C124 49.384 124.492 49.312 124.78 49.168C125.076 49.016 125.224 48.784 125.224 48.472V48.424C125.224 48.208 125.148 48.032 124.996 47.896C124.852 47.752 124.596 47.624 124.228 47.512C123.868 47.4 123.36 47.268 122.704 47.116C121.72 46.884 120.94 46.612 120.364 46.3C119.788 45.98 119.376 45.592 119.128 45.136C118.888 44.672 118.768 44.124 118.768 43.492V43.396C118.768 42.228 119.184 41.356 120.016 40.78C120.848 40.196 122.072 39.904 123.688 39.904C124.6 39.904 125.42 39.988 126.148 40.156C126.876 40.324 127.488 40.524 127.984 40.756L128.296 43.624C127.72 43.368 127.076 43.156 126.364 42.988C125.66 42.82 124.92 42.736 124.144 42.736C123.672 42.736 123.3 42.768 123.028 42.832C122.764 42.896 122.576 42.988 122.464 43.108C122.36 43.228 122.308 43.376 122.308 43.552V43.588C122.308 43.78 122.372 43.944 122.5 44.08C122.628 44.216 122.86 44.344 123.196 44.464C123.54 44.584 124.032 44.72 124.672 44.872C125.664 45.088 126.464 45.336 127.072 45.616C127.68 45.888 128.124 46.244 128.404 46.684C128.684 47.116 128.824 47.692 128.824 48.412V48.52C128.824 49.792 128.396 50.74 127.54 51.364C126.684 51.98 125.372 52.288 123.604 52.288ZM135.159 52.264C134.111 52.264 133.275 52.108 132.651 51.796C132.035 51.476 131.591 51 131.319 50.368C131.047 49.736 130.911 48.956 130.911 48.028V41.44H134.559V47.44C134.559 48.016 134.687 48.44 134.943 48.712C135.207 48.976 135.695 49.108 136.407 49.108C136.799 49.108 137.187 49.064 137.571 48.976C137.955 48.888 138.303 48.776 138.615 48.64L138.303 51.676C137.895 51.852 137.423 51.992 136.887 52.096C136.359 52.208 135.783 52.264 135.159 52.264ZM138.183 43.132H129.327V40.252H138.507L138.183 43.132ZM134.451 40.516H130.959L130.947 37.468L134.583 37.12L134.451 40.516ZM145.345 52.336C143.441 52.336 142.001 51.864 141.025 50.92C140.057 49.968 139.573 48.632 139.573 46.912V45.364C139.573 43.62 140.061 42.268 141.037 41.308C142.013 40.34 143.449 39.856 145.345 39.856C147.241 39.856 148.673 40.34 149.641 41.308C150.617 42.268 151.105 43.62 151.105 45.364V46.912C151.105 48.632 150.621 49.968 149.653 50.92C148.685 51.864 147.249 52.336 145.345 52.336ZM145.345 49.444C146.025 49.444 146.541 49.24 146.893 48.832C147.253 48.416 147.433 47.828 147.433 47.068V45.208C147.433 44.408 147.253 43.8 146.893 43.384C146.541 42.968 146.025 42.76 145.345 42.76C144.665 42.76 144.145 42.968 143.785 43.384C143.433 43.8 143.257 44.408 143.257 45.208V47.068C143.257 47.828 143.433 48.416 143.785 48.832C144.145 49.24 144.665 49.444 145.345 49.444ZM156.73 45.376L155.722 43.144H156.586C156.778 42.168 157.15 41.404 157.702 40.852C158.262 40.292 159.05 40.012 160.066 40.012C160.242 40.012 160.402 40.024 160.546 40.048C160.698 40.072 160.842 40.1 160.978 40.132L161.158 43.84C160.99 43.792 160.794 43.76 160.57 43.744C160.346 43.72 160.118 43.708 159.886 43.708C159.102 43.708 158.442 43.856 157.906 44.152C157.37 44.44 156.978 44.848 156.73 45.376ZM156.802 52H153.13V40.204H156.586L156.43 43.972L156.802 44.02V52ZM167.611 49.06H169.531L167.562 49.912L170.215 40.204H173.971L169.159 56.128H165.487L167.323 50.128L169.051 51.496H164.983L161.791 40.204H165.571L167.611 49.06Z" fill="white"/>
<path d="M264.404 52.336C262.22 52.336 260.592 51.76 259.52 50.608C258.456 49.448 257.924 47.796 257.924 45.652V42.928C257.924 40.824 258.46 39.2 259.532 38.056C260.604 36.904 262.22 36.328 264.38 36.328C264.956 36.328 265.488 36.372 265.976 36.46C266.464 36.548 266.908 36.668 267.308 36.82C267.708 36.964 268.06 37.128 268.364 37.312L268.64 40.528C268.168 40.28 267.648 40.064 267.08 39.88C266.52 39.688 265.868 39.592 265.124 39.592C263.98 39.592 263.132 39.9 262.58 40.516C262.036 41.124 261.764 41.98 261.764 43.084V45.508C261.764 46.604 262.04 47.46 262.592 48.076C263.152 48.692 264.044 49 265.268 49C265.988 49 266.632 48.904 267.2 48.712C267.768 48.52 268.288 48.288 268.76 48.016L268.484 51.304C268.18 51.488 267.824 51.66 267.416 51.82C267.008 51.972 266.552 52.096 266.048 52.192C265.552 52.288 265.004 52.336 264.404 52.336ZM274.353 52H270.681V36.148H274.353V52ZM282.666 52.3C280.522 52.3 278.938 51.824 277.914 50.872C276.89 49.912 276.378 48.516 276.378 46.684V45.46C276.378 43.652 276.858 42.268 277.818 41.308C278.778 40.34 280.174 39.856 282.006 39.856C283.238 39.856 284.262 40.068 285.078 40.492C285.902 40.908 286.518 41.504 286.926 42.28C287.342 43.056 287.55 43.988 287.55 45.076V45.472C287.55 45.776 287.534 46.088 287.502 46.408C287.478 46.72 287.442 47.012 287.394 47.284H284.082C284.114 46.82 284.134 46.384 284.142 45.976C284.15 45.56 284.154 45.184 284.154 44.848C284.154 44.36 284.078 43.952 283.926 43.624C283.774 43.288 283.538 43.032 283.218 42.856C282.906 42.68 282.502 42.592 282.006 42.592C281.27 42.592 280.73 42.792 280.386 43.192C280.05 43.584 279.882 44.144 279.882 44.872V45.952L279.906 46.348V47.188C279.906 47.492 279.954 47.78 280.05 48.052C280.154 48.324 280.33 48.564 280.578 48.772C280.834 48.972 281.182 49.132 281.622 49.252C282.07 49.364 282.638 49.42 283.326 49.42C284.054 49.42 284.754 49.352 285.426 49.216C286.098 49.072 286.742 48.88 287.358 48.64L287.058 51.4C286.514 51.68 285.87 51.9 285.126 52.06C284.382 52.22 283.562 52.3 282.666 52.3ZM286.65 47.284H278.322V45.016H286.65V47.284ZM299.834 52H296.222L296.33 49.048L296.246 48.868V45.184L296.222 44.704C296.222 44.048 296.03 43.564 295.646 43.252C295.262 42.94 294.618 42.784 293.714 42.784C292.922 42.784 292.17 42.884 291.458 43.084C290.746 43.284 290.074 43.512 289.442 43.768L289.754 40.924C290.13 40.748 290.55 40.584 291.014 40.432C291.486 40.272 292.006 40.144 292.574 40.048C293.142 39.952 293.75 39.904 294.398 39.904C295.43 39.904 296.294 40.024 296.99 40.264C297.686 40.504 298.242 40.844 298.658 41.284C299.074 41.724 299.374 42.252 299.558 42.868C299.742 43.476 299.834 44.148 299.834 44.884V52ZM292.466 52.276C291.29 52.276 290.398 51.98 289.79 51.388C289.182 50.796 288.878 49.952 288.878 48.856V48.532C288.878 47.372 289.234 46.516 289.946 45.964C290.666 45.404 291.806 45.024 293.366 44.824L296.534 44.404L296.75 46.612L293.942 47.02C293.374 47.092 292.974 47.224 292.742 47.416C292.51 47.608 292.394 47.892 292.394 48.268V48.352C292.394 48.712 292.51 49 292.742 49.216C292.974 49.424 293.346 49.528 293.858 49.528C294.306 49.528 294.69 49.46 295.01 49.324C295.338 49.188 295.606 49.012 295.814 48.796C296.022 48.572 296.178 48.324 296.282 48.052L296.798 49.54H296.198C296.07 50.052 295.87 50.516 295.598 50.932C295.334 51.348 294.95 51.676 294.446 51.916C293.942 52.156 293.282 52.276 292.466 52.276ZM305.722 45.376L304.714 43.144H305.578C305.77 42.168 306.142 41.404 306.694 40.852C307.254 40.292 308.042 40.012 309.058 40.012C309.234 40.012 309.394 40.024 309.538 40.048C309.69 40.072 309.834 40.1 309.97 40.132L310.15 43.84C309.982 43.792 309.786 43.76 309.562 43.744C309.338 43.72 309.11 43.708 308.878 43.708C308.094 43.708 307.434 43.856 306.898 44.152C306.362 44.44 305.97 44.848 305.722 45.376ZM305.794 52H302.122V40.204H305.578L305.422 43.972L305.794 44.02V52ZM320.531 36.664V52H316.775V36.664H320.531ZM329.675 36.664V52H325.907V36.664H329.675ZM318.935 45.724V42.592H327.323V45.724H318.935ZM335.971 52H332.299V40.204H335.971V52ZM334.135 39.088C333.447 39.088 332.947 38.932 332.635 38.62C332.323 38.3 332.167 37.872 332.167 37.336V37.252C332.167 36.716 332.323 36.292 332.635 35.98C332.947 35.668 333.447 35.512 334.135 35.512C334.807 35.512 335.299 35.668 335.611 35.98C335.931 36.292 336.091 36.716 336.091 37.252V37.336C336.091 37.88 335.931 38.308 335.611 38.62C335.299 38.932 334.807 39.088 334.135 39.088ZM342.604 52.288C341.668 52.288 340.824 52.204 340.072 52.036C339.32 51.876 338.676 51.688 338.14 51.472L337.828 48.388C338.444 48.644 339.124 48.876 339.868 49.084C340.62 49.284 341.432 49.384 342.304 49.384C343 49.384 343.492 49.312 343.78 49.168C344.076 49.016 344.224 48.784 344.224 48.472V48.424C344.224 48.208 344.148 48.032 343.996 47.896C343.852 47.752 343.596 47.624 343.228 47.512C342.868 47.4 342.36 47.268 341.704 47.116C340.72 46.884 339.94 46.612 339.364 46.3C338.788 45.98 338.376 45.592 338.128 45.136C337.888 44.672 337.768 44.124 337.768 43.492V43.396C337.768 42.228 338.184 41.356 339.016 40.78C339.848 40.196 341.072 39.904 342.688 39.904C343.6 39.904 344.42 39.988 345.148 40.156C345.876 40.324 346.488 40.524 346.984 40.756L347.296 43.624C346.72 43.368 346.076 43.156 345.364 42.988C344.66 42.82 343.92 42.736 343.144 42.736C342.672 42.736 342.3 42.768 342.028 42.832C341.764 42.896 341.576 42.988 341.464 43.108C341.36 43.228 341.308 43.376 341.308 43.552V43.588C341.308 43.78 341.372 43.944 341.5 44.08C341.628 44.216 341.86 44.344 342.196 44.464C342.54 44.584 343.032 44.72 343.672 44.872C344.664 45.088 345.464 45.336 346.072 45.616C346.68 45.888 347.124 46.244 347.404 46.684C347.684 47.116 347.824 47.692 347.824 48.412V48.52C347.824 49.792 347.396 50.74 346.54 51.364C345.684 51.98 344.372 52.288 342.604 52.288ZM354.159 52.264C353.111 52.264 352.275 52.108 351.651 51.796C351.035 51.476 350.591 51 350.319 50.368C350.047 49.736 349.911 48.956 349.911 48.028V41.44H353.559V47.44C353.559 48.016 353.687 48.44 353.943 48.712C354.207 48.976 354.695 49.108 355.407 49.108C355.799 49.108 356.187 49.064 356.571 48.976C356.955 48.888 357.303 48.776 357.615 48.64L357.303 51.676C356.895 51.852 356.423 51.992 355.887 52.096C355.359 52.208 354.783 52.264 354.159 52.264ZM357.183 43.132H348.327V40.252H357.507L357.183 43.132ZM353.451 40.516H349.959L349.947 37.468L353.583 37.12L353.451 40.516ZM364.345 52.336C362.441 52.336 361.001 51.864 360.025 50.92C359.057 49.968 358.573 48.632 358.573 46.912V45.364C358.573 43.62 359.061 42.268 360.037 41.308C361.013 40.34 362.449 39.856 364.345 39.856C366.241 39.856 367.673 40.34 368.641 41.308C369.617 42.268 370.105 43.62 370.105 45.364V46.912C370.105 48.632 369.621 49.968 368.653 50.92C367.685 51.864 366.249 52.336 364.345 52.336ZM364.345 49.444C365.025 49.444 365.541 49.24 365.893 48.832C366.253 48.416 366.433 47.828 366.433 47.068V45.208C366.433 44.408 366.253 43.8 365.893 43.384C365.541 42.968 365.025 42.76 364.345 42.76C363.665 42.76 363.145 42.968 362.785 43.384C362.433 43.8 362.257 44.408 362.257 45.208V47.068C362.257 47.828 362.433 48.416 362.785 48.832C363.145 49.24 363.665 49.444 364.345 49.444ZM375.73 45.376L374.722 43.144H375.586C375.778 42.168 376.15 41.404 376.702 40.852C377.262 40.292 378.05 40.012 379.066 40.012C379.242 40.012 379.402 40.024 379.546 40.048C379.698 40.072 379.842 40.1 379.978 40.132L380.158 43.84C379.99 43.792 379.794 43.76 379.57 43.744C379.346 43.72 379.118 43.708 378.886 43.708C378.102 43.708 377.442 43.856 376.906 44.152C376.37 44.44 375.978 44.848 375.73 45.376ZM375.802 52H372.13V40.204H375.586L375.43 43.972L375.802 44.02V52ZM386.611 49.06H388.531L386.562 49.912L389.215 40.204H392.971L388.159 56.128H384.487L386.323 50.128L388.051 51.496H383.983L380.791 40.204H384.571L386.611 49.06Z" fill="#154734"/>
<rect x="0.5" y="0.5" width="428" height="89" rx="4.5" stroke="#9747FF" stroke-dasharray="10 5"/>
</svg>
