<svg width="469" height="90" viewBox="0 0 469 90" fill="none" xmlns="http://www.w3.org/2000/svg">
<rect x="20" y="20" width="170" height="50" rx="25" fill="#808080"/>
<path d="M52.105 33.164V48.5H48.349V33.164H52.105ZM61.249 33.164V48.5H57.481V33.164H61.249ZM50.509 42.224V39.092H58.897V42.224H50.509ZM69.1773 48.836C67.2733 48.836 65.8333 48.364 64.8573 47.42C63.8893 46.468 63.4053 45.132 63.4053 43.412V41.864C63.4053 40.12 63.8933 38.768 64.8693 37.808C65.8453 36.84 67.2813 36.356 69.1773 36.356C71.0733 36.356 72.5053 36.84 73.4733 37.808C74.4493 38.768 74.9373 40.12 74.9373 41.864V43.412C74.9373 45.132 74.4533 46.468 73.4853 47.42C72.5173 48.364 71.0813 48.836 69.1773 48.836ZM69.1773 45.944C69.8573 45.944 70.3733 45.74 70.7253 45.332C71.0853 44.916 71.2653 44.328 71.2653 43.568V41.708C71.2653 40.908 71.0853 40.3 70.7253 39.884C70.3733 39.468 69.8573 39.26 69.1773 39.26C68.4973 39.26 67.9773 39.468 67.6173 39.884C67.2653 40.3 67.0893 40.908 67.0893 41.708V43.568C67.0893 44.328 67.2653 44.916 67.6173 45.332C67.9773 45.74 68.4973 45.944 69.1773 45.944ZM95.0823 48.5H91.4103V41.468C91.4103 41.052 91.3583 40.696 91.2543 40.4C91.1583 40.096 90.9903 39.864 90.7503 39.704C90.5183 39.544 90.1943 39.464 89.7783 39.464C89.4263 39.464 89.1183 39.532 88.8543 39.668C88.5903 39.796 88.3703 39.976 88.1943 40.208C88.0183 40.432 87.8863 40.688 87.7983 40.976L87.4503 39.26H87.7743C87.9023 38.732 88.1063 38.256 88.3863 37.832C88.6663 37.4 89.0543 37.06 89.5503 36.812C90.0463 36.556 90.6823 36.428 91.4583 36.428C92.2983 36.428 92.9823 36.596 93.5103 36.932C94.0463 37.26 94.4423 37.756 94.6983 38.42C94.9543 39.076 95.0823 39.896 95.0823 40.88V48.5ZM80.6343 48.5H76.9623V36.704H80.6103L80.4903 39.884L80.6343 40.004V48.5ZM87.8583 48.5H84.1863V41.468C84.1863 41.052 84.1343 40.696 84.0303 40.4C83.9343 40.096 83.7663 39.864 83.5263 39.704C83.2863 39.544 82.9623 39.464 82.5543 39.464C82.1943 39.464 81.8823 39.532 81.6183 39.668C81.3543 39.796 81.1343 39.976 80.9583 40.208C80.7903 40.432 80.6623 40.688 80.5743 40.976L80.0103 39.26H80.6343C80.7543 38.724 80.9503 38.244 81.2223 37.82C81.5023 37.396 81.8863 37.06 82.3743 36.812C82.8623 36.556 83.4783 36.428 84.2223 36.428C85.3183 36.428 86.1423 36.712 86.6943 37.28C87.2543 37.84 87.6063 38.656 87.7503 39.728C87.7743 39.888 87.7983 40.084 87.8223 40.316C87.8463 40.548 87.8583 40.756 87.8583 40.94V48.5ZM103.279 48.8C101.135 48.8 99.5512 48.324 98.5272 47.372C97.5032 46.412 96.9912 45.016 96.9912 43.184V41.96C96.9912 40.152 97.4712 38.768 98.4312 37.808C99.3912 36.84 100.787 36.356 102.619 36.356C103.851 36.356 104.875 36.568 105.691 36.992C106.515 37.408 107.131 38.004 107.539 38.78C107.955 39.556 108.163 40.488 108.163 41.576V41.972C108.163 42.276 108.147 42.588 108.115 42.908C108.091 43.22 108.055 43.512 108.007 43.784H104.695C104.727 43.32 104.747 42.884 104.755 42.476C104.763 42.06 104.767 41.684 104.767 41.348C104.767 40.86 104.691 40.452 104.539 40.124C104.387 39.788 104.151 39.532 103.831 39.356C103.519 39.18 103.115 39.092 102.619 39.092C101.883 39.092 101.343 39.292 100.999 39.692C100.663 40.084 100.495 40.644 100.495 41.372V42.452L100.519 42.848V43.688C100.519 43.992 100.567 44.28 100.663 44.552C100.767 44.824 100.943 45.064 101.191 45.272C101.447 45.472 101.795 45.632 102.235 45.752C102.683 45.864 103.251 45.92 103.939 45.92C104.667 45.92 105.367 45.852 106.039 45.716C106.711 45.572 107.355 45.38 107.971 45.14L107.671 47.9C107.127 48.18 106.483 48.4 105.739 48.56C104.995 48.72 104.175 48.8 103.279 48.8ZM107.263 43.784H98.9352V41.516H107.263V43.784ZM116.729 48.5H111.485L109.121 36.704H112.841L114.305 45.908H114.521L115.961 36.992H120.449L121.913 45.908H122.117L123.593 36.704H127.277L124.913 48.5H119.693L118.505 40.988L118.301 39.668H118.133L117.917 40.988L116.729 48.5ZM133.912 48.836C132.008 48.836 130.568 48.364 129.592 47.42C128.624 46.468 128.14 45.132 128.14 43.412V41.864C128.14 40.12 128.628 38.768 129.604 37.808C130.58 36.84 132.016 36.356 133.912 36.356C135.808 36.356 137.24 36.84 138.208 37.808C139.184 38.768 139.672 40.12 139.672 41.864V43.412C139.672 45.132 139.188 46.468 138.22 47.42C137.252 48.364 135.816 48.836 133.912 48.836ZM133.912 45.944C134.592 45.944 135.108 45.74 135.46 45.332C135.82 44.916 136 44.328 136 43.568V41.708C136 40.908 135.82 40.3 135.46 39.884C135.108 39.468 134.592 39.26 133.912 39.26C133.232 39.26 132.712 39.468 132.352 39.884C132 40.3 131.824 40.908 131.824 41.708V43.568C131.824 44.328 132 44.916 132.352 45.332C132.712 45.74 133.232 45.944 133.912 45.944ZM145.297 41.876L144.289 39.644H145.153C145.345 38.668 145.717 37.904 146.269 37.352C146.829 36.792 147.617 36.512 148.633 36.512C148.809 36.512 148.969 36.524 149.113 36.548C149.265 36.572 149.409 36.6 149.545 36.632L149.725 40.34C149.557 40.292 149.361 40.26 149.137 40.244C148.913 40.22 148.685 40.208 148.453 40.208C147.669 40.208 147.009 40.356 146.473 40.652C145.937 40.94 145.545 41.348 145.297 41.876ZM145.369 48.5H141.697V36.704H145.153L144.997 40.472L145.369 40.52V48.5ZM163.008 48.5H158.724L155.244 43.412H154.284V41.252H155.244L158.628 36.704H162.84L158.352 42.56V41.864L163.008 48.5ZM154.86 48.5H151.212V32.648H154.86V48.5Z" fill="white"/>
<path d="M267.105 33.164V48.5H263.349V33.164H267.105ZM276.249 33.164V48.5H272.481V33.164H276.249ZM265.509 42.224V39.092H273.897V42.224H265.509ZM284.177 48.836C282.273 48.836 280.833 48.364 279.857 47.42C278.889 46.468 278.405 45.132 278.405 43.412V41.864C278.405 40.12 278.893 38.768 279.869 37.808C280.845 36.84 282.281 36.356 284.177 36.356C286.073 36.356 287.505 36.84 288.473 37.808C289.449 38.768 289.937 40.12 289.937 41.864V43.412C289.937 45.132 289.453 46.468 288.485 47.42C287.517 48.364 286.081 48.836 284.177 48.836ZM284.177 45.944C284.857 45.944 285.373 45.74 285.725 45.332C286.085 44.916 286.265 44.328 286.265 43.568V41.708C286.265 40.908 286.085 40.3 285.725 39.884C285.373 39.468 284.857 39.26 284.177 39.26C283.497 39.26 282.977 39.468 282.617 39.884C282.265 40.3 282.089 40.908 282.089 41.708V43.568C282.089 44.328 282.265 44.916 282.617 45.332C282.977 45.74 283.497 45.944 284.177 45.944ZM310.082 48.5H306.41V41.468C306.41 41.052 306.358 40.696 306.254 40.4C306.158 40.096 305.99 39.864 305.75 39.704C305.518 39.544 305.194 39.464 304.778 39.464C304.426 39.464 304.118 39.532 303.854 39.668C303.59 39.796 303.37 39.976 303.194 40.208C303.018 40.432 302.886 40.688 302.798 40.976L302.45 39.26H302.774C302.902 38.732 303.106 38.256 303.386 37.832C303.666 37.4 304.054 37.06 304.55 36.812C305.046 36.556 305.682 36.428 306.458 36.428C307.298 36.428 307.982 36.596 308.51 36.932C309.046 37.26 309.442 37.756 309.698 38.42C309.954 39.076 310.082 39.896 310.082 40.88V48.5ZM295.634 48.5H291.962V36.704H295.61L295.49 39.884L295.634 40.004V48.5ZM302.858 48.5H299.186V41.468C299.186 41.052 299.134 40.696 299.03 40.4C298.934 40.096 298.766 39.864 298.526 39.704C298.286 39.544 297.962 39.464 297.554 39.464C297.194 39.464 296.882 39.532 296.618 39.668C296.354 39.796 296.134 39.976 295.958 40.208C295.79 40.432 295.662 40.688 295.574 40.976L295.01 39.26H295.634C295.754 38.724 295.95 38.244 296.222 37.82C296.502 37.396 296.886 37.06 297.374 36.812C297.862 36.556 298.478 36.428 299.222 36.428C300.318 36.428 301.142 36.712 301.694 37.28C302.254 37.84 302.606 38.656 302.75 39.728C302.774 39.888 302.798 40.084 302.822 40.316C302.846 40.548 302.858 40.756 302.858 40.94V48.5ZM318.279 48.8C316.135 48.8 314.551 48.324 313.527 47.372C312.503 46.412 311.991 45.016 311.991 43.184V41.96C311.991 40.152 312.471 38.768 313.431 37.808C314.391 36.84 315.787 36.356 317.619 36.356C318.851 36.356 319.875 36.568 320.691 36.992C321.515 37.408 322.131 38.004 322.539 38.78C322.955 39.556 323.163 40.488 323.163 41.576V41.972C323.163 42.276 323.147 42.588 323.115 42.908C323.091 43.22 323.055 43.512 323.007 43.784H319.695C319.727 43.32 319.747 42.884 319.755 42.476C319.763 42.06 319.767 41.684 319.767 41.348C319.767 40.86 319.691 40.452 319.539 40.124C319.387 39.788 319.151 39.532 318.831 39.356C318.519 39.18 318.115 39.092 317.619 39.092C316.883 39.092 316.343 39.292 315.999 39.692C315.663 40.084 315.495 40.644 315.495 41.372V42.452L315.519 42.848V43.688C315.519 43.992 315.567 44.28 315.663 44.552C315.767 44.824 315.943 45.064 316.191 45.272C316.447 45.472 316.795 45.632 317.235 45.752C317.683 45.864 318.251 45.92 318.939 45.92C319.667 45.92 320.367 45.852 321.039 45.716C321.711 45.572 322.355 45.38 322.971 45.14L322.671 47.9C322.127 48.18 321.483 48.4 320.739 48.56C319.995 48.72 319.175 48.8 318.279 48.8ZM322.263 43.784H313.935V41.516H322.263V43.784ZM331.729 48.5H326.485L324.121 36.704H327.841L329.305 45.908H329.521L330.961 36.992H335.449L336.913 45.908H337.117L338.593 36.704H342.277L339.913 48.5H334.693L333.505 40.988L333.301 39.668H333.133L332.917 40.988L331.729 48.5ZM348.912 48.836C347.008 48.836 345.568 48.364 344.592 47.42C343.624 46.468 343.14 45.132 343.14 43.412V41.864C343.14 40.12 343.628 38.768 344.604 37.808C345.58 36.84 347.016 36.356 348.912 36.356C350.808 36.356 352.24 36.84 353.208 37.808C354.184 38.768 354.672 40.12 354.672 41.864V43.412C354.672 45.132 354.188 46.468 353.22 47.42C352.252 48.364 350.816 48.836 348.912 48.836ZM348.912 45.944C349.592 45.944 350.108 45.74 350.46 45.332C350.82 44.916 351 44.328 351 43.568V41.708C351 40.908 350.82 40.3 350.46 39.884C350.108 39.468 349.592 39.26 348.912 39.26C348.232 39.26 347.712 39.468 347.352 39.884C347 40.3 346.824 40.908 346.824 41.708V43.568C346.824 44.328 347 44.916 347.352 45.332C347.712 45.74 348.232 45.944 348.912 45.944ZM360.297 41.876L359.289 39.644H360.153C360.345 38.668 360.717 37.904 361.269 37.352C361.829 36.792 362.617 36.512 363.633 36.512C363.809 36.512 363.969 36.524 364.113 36.548C364.265 36.572 364.409 36.6 364.545 36.632L364.725 40.34C364.557 40.292 364.361 40.26 364.137 40.244C363.913 40.22 363.685 40.208 363.453 40.208C362.669 40.208 362.009 40.356 361.473 40.652C360.937 40.94 360.545 41.348 360.297 41.876ZM360.369 48.5H356.697V36.704H360.153L359.997 40.472L360.369 40.52V48.5ZM378.008 48.5H373.724L370.244 43.412H369.284V41.252H370.244L373.628 36.704H377.84L373.352 42.56V41.864L378.008 48.5ZM369.86 48.5H366.212V32.648H369.86V48.5Z" fill="#154734"/>
<rect x="0.5" y="0.5" width="468" height="89" rx="4.5" stroke="#9747FF" stroke-dasharray="10 5"/>
</svg>
