<svg width="409" height="90" viewBox="0 0 409 90" fill="none" xmlns="http://www.w3.org/2000/svg">
<rect x="20" y="20" width="170" height="50" rx="25" fill="#808080"/>
<path d="M72.908 52H69.236V36.148H72.908V52ZM80.7046 52.336C78.8006 52.336 77.3606 51.864 76.3846 50.92C75.4166 49.968 74.9326 48.632 74.9326 46.912V45.364C74.9326 43.62 75.4206 42.268 76.3966 41.308C77.3726 40.34 78.8086 39.856 80.7046 39.856C82.6006 39.856 84.0326 40.34 85.0006 41.308C85.9766 42.268 86.4646 43.62 86.4646 45.364V46.912C86.4646 48.632 85.9806 49.968 85.0126 50.92C84.0446 51.864 82.6086 52.336 80.7046 52.336ZM80.7046 49.444C81.3846 49.444 81.9006 49.24 82.2526 48.832C82.6126 48.416 82.7926 47.828 82.7926 47.068V45.208C82.7926 44.408 82.6126 43.8 82.2526 43.384C81.9006 42.968 81.3846 42.76 80.7046 42.76C80.0246 42.76 79.5046 42.968 79.1446 43.384C78.7926 43.8 78.6166 44.408 78.6166 45.208V47.068C78.6166 47.828 78.7926 48.416 79.1446 48.832C79.5046 49.24 80.0246 49.444 80.7046 49.444ZM93.7331 48.328C91.8371 48.328 90.4131 47.976 89.4611 47.272C88.5091 46.568 88.0331 45.58 88.0331 44.308V44.152C88.0331 43.288 88.2251 42.56 88.6091 41.968C89.0011 41.368 89.6011 40.904 90.4091 40.576C91.2171 40.248 92.2531 40.052 93.5171 39.988L99.8171 39.7V42.292L96.6851 42.208V42.328C97.2211 42.416 97.6611 42.568 98.0051 42.784C98.3571 42.992 98.6171 43.268 98.7851 43.612C98.9611 43.948 99.0491 44.364 99.0491 44.86V44.944C99.0491 46.04 98.6131 46.88 97.7411 47.464C96.8771 48.04 95.5411 48.328 93.7331 48.328ZM93.5531 53.908H93.9131C94.4891 53.908 94.9531 53.872 95.3051 53.8C95.6651 53.728 95.9291 53.62 96.0971 53.476C96.2651 53.332 96.3491 53.152 96.3491 52.936V52.912C96.3491 52.632 96.2291 52.432 95.9891 52.312C95.7571 52.192 95.4051 52.112 94.9331 52.072L91.4531 51.724L92.2571 51.676C92.0171 51.716 91.8091 51.784 91.6331 51.88C91.4651 51.976 91.3291 52.096 91.2251 52.24C91.1291 52.384 91.0811 52.56 91.0811 52.768V52.792C91.0811 53.032 91.1691 53.236 91.3451 53.404C91.5211 53.572 91.7891 53.696 92.1491 53.776C92.5171 53.864 92.9851 53.908 93.5531 53.908ZM93.8291 56.596H93.3731C92.1891 56.596 91.1771 56.5 90.3371 56.308C89.5051 56.124 88.8731 55.828 88.4411 55.42C88.0091 55.012 87.7931 54.472 87.7931 53.8V53.752C87.7931 53.296 87.8931 52.912 88.0931 52.6C88.2931 52.288 88.5811 52.044 88.9571 51.868C89.3331 51.692 89.7731 51.584 90.2771 51.544V51.424C89.6611 51.312 89.1851 51.116 88.8491 50.836C88.5211 50.556 88.3571 50.164 88.3571 49.66V49.648C88.3571 49.288 88.4371 48.984 88.5971 48.736C88.7651 48.488 89.0091 48.3 89.3291 48.172C89.6491 48.036 90.0411 47.956 90.5051 47.932V47.536L93.2171 48.22L92.4251 48.208C92.1451 48.208 91.9451 48.244 91.8251 48.316C91.7131 48.388 91.6571 48.496 91.6571 48.64V48.652C91.6571 48.828 91.7491 48.956 91.9331 49.036C92.1251 49.108 92.4331 49.168 92.8571 49.216L95.6531 49.54C97.0131 49.7 98.0251 50.036 98.6891 50.548C99.3531 51.06 99.6851 51.852 99.6851 52.924V52.996C99.6851 53.812 99.4531 54.484 98.9891 55.012C98.5331 55.548 97.8691 55.944 96.9971 56.2C96.1331 56.464 95.0771 56.596 93.8291 56.596ZM93.6131 45.856C94.0851 45.856 94.4731 45.796 94.7771 45.676C95.0891 45.548 95.3211 45.364 95.4731 45.124C95.6331 44.876 95.7131 44.58 95.7131 44.236V44.128C95.7131 43.784 95.6371 43.492 95.4851 43.252C95.3331 43.012 95.1011 42.832 94.7891 42.712C94.4851 42.584 94.0931 42.52 93.6131 42.52H93.6011C93.1131 42.52 92.7131 42.584 92.4011 42.712C92.0891 42.84 91.8571 43.024 91.7051 43.264C91.5611 43.504 91.4891 43.796 91.4891 44.14V44.236C91.4891 44.58 91.5651 44.876 91.7171 45.124C91.8771 45.364 92.1131 45.548 92.4251 45.676C92.7371 45.796 93.1331 45.856 93.6131 45.856ZM111.572 52.336C109.668 52.336 108.228 51.864 107.252 50.92C106.284 49.968 105.8 48.632 105.8 46.912V45.364C105.8 43.62 106.288 42.268 107.264 41.308C108.24 40.34 109.676 39.856 111.572 39.856C113.468 39.856 114.9 40.34 115.868 41.308C116.844 42.268 117.332 43.62 117.332 45.364V46.912C117.332 48.632 116.848 49.968 115.88 50.92C114.912 51.864 113.476 52.336 111.572 52.336ZM111.572 49.444C112.252 49.444 112.768 49.24 113.12 48.832C113.48 48.416 113.66 47.828 113.66 47.068V45.208C113.66 44.408 113.48 43.8 113.12 43.384C112.768 42.968 112.252 42.76 111.572 42.76C110.892 42.76 110.372 42.968 110.012 43.384C109.66 43.8 109.484 44.408 109.484 45.208V47.068C109.484 47.828 109.66 48.416 110.012 48.832C110.372 49.24 110.892 49.444 111.572 49.444ZM119.249 40.204H122.921V47.14C122.921 47.572 122.977 47.948 123.089 48.268C123.201 48.58 123.389 48.824 123.653 49C123.917 49.168 124.277 49.252 124.733 49.252C125.117 49.252 125.449 49.184 125.729 49.048C126.017 48.912 126.257 48.728 126.449 48.496C126.649 48.264 126.797 48.008 126.893 47.728L127.457 49.444H126.833C126.705 49.972 126.493 50.452 126.197 50.884C125.909 51.316 125.509 51.656 124.997 51.904C124.493 52.152 123.845 52.276 123.053 52.276C122.181 52.276 121.461 52.108 120.893 51.772C120.333 51.428 119.917 50.92 119.645 50.248C119.381 49.576 119.249 48.736 119.249 47.728V40.204ZM126.833 40.204H130.505V52H126.857L126.977 49.048L126.833 48.712V40.204ZM137.737 52.264C136.689 52.264 135.853 52.108 135.229 51.796C134.613 51.476 134.169 51 133.897 50.368C133.625 49.736 133.489 48.956 133.489 48.028V41.44H137.137V47.44C137.137 48.016 137.265 48.44 137.521 48.712C137.785 48.976 138.273 49.108 138.985 49.108C139.377 49.108 139.765 49.064 140.149 48.976C140.533 48.888 140.881 48.776 141.193 48.64L140.881 51.676C140.473 51.852 140.001 51.992 139.465 52.096C138.937 52.208 138.361 52.264 137.737 52.264ZM140.761 43.132H131.905V40.252H141.085L140.761 43.132ZM137.029 40.516H133.537L133.525 37.468L137.161 37.12L137.029 40.516Z" fill="white"/>
<path d="M271.908 52H268.236V36.148H271.908V52ZM279.705 52.336C277.801 52.336 276.361 51.864 275.385 50.92C274.417 49.968 273.933 48.632 273.933 46.912V45.364C273.933 43.62 274.421 42.268 275.397 41.308C276.373 40.34 277.809 39.856 279.705 39.856C281.601 39.856 283.033 40.34 284.001 41.308C284.977 42.268 285.465 43.62 285.465 45.364V46.912C285.465 48.632 284.981 49.968 284.013 50.92C283.045 51.864 281.609 52.336 279.705 52.336ZM279.705 49.444C280.385 49.444 280.901 49.24 281.253 48.832C281.613 48.416 281.793 47.828 281.793 47.068V45.208C281.793 44.408 281.613 43.8 281.253 43.384C280.901 42.968 280.385 42.76 279.705 42.76C279.025 42.76 278.505 42.968 278.145 43.384C277.793 43.8 277.617 44.408 277.617 45.208V47.068C277.617 47.828 277.793 48.416 278.145 48.832C278.505 49.24 279.025 49.444 279.705 49.444ZM292.733 48.328C290.837 48.328 289.413 47.976 288.461 47.272C287.509 46.568 287.033 45.58 287.033 44.308V44.152C287.033 43.288 287.225 42.56 287.609 41.968C288.001 41.368 288.601 40.904 289.409 40.576C290.217 40.248 291.253 40.052 292.517 39.988L298.817 39.7V42.292L295.685 42.208V42.328C296.221 42.416 296.661 42.568 297.005 42.784C297.357 42.992 297.617 43.268 297.785 43.612C297.961 43.948 298.049 44.364 298.049 44.86V44.944C298.049 46.04 297.613 46.88 296.741 47.464C295.877 48.04 294.541 48.328 292.733 48.328ZM292.553 53.908H292.913C293.489 53.908 293.953 53.872 294.305 53.8C294.665 53.728 294.929 53.62 295.097 53.476C295.265 53.332 295.349 53.152 295.349 52.936V52.912C295.349 52.632 295.229 52.432 294.989 52.312C294.757 52.192 294.405 52.112 293.933 52.072L290.453 51.724L291.257 51.676C291.017 51.716 290.809 51.784 290.633 51.88C290.465 51.976 290.329 52.096 290.225 52.24C290.129 52.384 290.081 52.56 290.081 52.768V52.792C290.081 53.032 290.169 53.236 290.345 53.404C290.521 53.572 290.789 53.696 291.149 53.776C291.517 53.864 291.985 53.908 292.553 53.908ZM292.829 56.596H292.373C291.189 56.596 290.177 56.5 289.337 56.308C288.505 56.124 287.873 55.828 287.441 55.42C287.009 55.012 286.793 54.472 286.793 53.8V53.752C286.793 53.296 286.893 52.912 287.093 52.6C287.293 52.288 287.581 52.044 287.957 51.868C288.333 51.692 288.773 51.584 289.277 51.544V51.424C288.661 51.312 288.185 51.116 287.849 50.836C287.521 50.556 287.357 50.164 287.357 49.66V49.648C287.357 49.288 287.437 48.984 287.597 48.736C287.765 48.488 288.009 48.3 288.329 48.172C288.649 48.036 289.041 47.956 289.505 47.932V47.536L292.217 48.22L291.425 48.208C291.145 48.208 290.945 48.244 290.825 48.316C290.713 48.388 290.657 48.496 290.657 48.64V48.652C290.657 48.828 290.749 48.956 290.933 49.036C291.125 49.108 291.433 49.168 291.857 49.216L294.653 49.54C296.013 49.7 297.025 50.036 297.689 50.548C298.353 51.06 298.685 51.852 298.685 52.924V52.996C298.685 53.812 298.453 54.484 297.989 55.012C297.533 55.548 296.869 55.944 295.997 56.2C295.133 56.464 294.077 56.596 292.829 56.596ZM292.613 45.856C293.085 45.856 293.473 45.796 293.777 45.676C294.089 45.548 294.321 45.364 294.473 45.124C294.633 44.876 294.713 44.58 294.713 44.236V44.128C294.713 43.784 294.637 43.492 294.485 43.252C294.333 43.012 294.101 42.832 293.789 42.712C293.485 42.584 293.093 42.52 292.613 42.52H292.601C292.113 42.52 291.713 42.584 291.401 42.712C291.089 42.84 290.857 43.024 290.705 43.264C290.561 43.504 290.489 43.796 290.489 44.14V44.236C290.489 44.58 290.565 44.876 290.717 45.124C290.877 45.364 291.113 45.548 291.425 45.676C291.737 45.796 292.133 45.856 292.613 45.856ZM310.572 52.336C308.668 52.336 307.228 51.864 306.252 50.92C305.284 49.968 304.8 48.632 304.8 46.912V45.364C304.8 43.62 305.288 42.268 306.264 41.308C307.24 40.34 308.676 39.856 310.572 39.856C312.468 39.856 313.9 40.34 314.868 41.308C315.844 42.268 316.332 43.62 316.332 45.364V46.912C316.332 48.632 315.848 49.968 314.88 50.92C313.912 51.864 312.476 52.336 310.572 52.336ZM310.572 49.444C311.252 49.444 311.768 49.24 312.12 48.832C312.48 48.416 312.66 47.828 312.66 47.068V45.208C312.66 44.408 312.48 43.8 312.12 43.384C311.768 42.968 311.252 42.76 310.572 42.76C309.892 42.76 309.372 42.968 309.012 43.384C308.66 43.8 308.484 44.408 308.484 45.208V47.068C308.484 47.828 308.66 48.416 309.012 48.832C309.372 49.24 309.892 49.444 310.572 49.444ZM318.249 40.204H321.921V47.14C321.921 47.572 321.977 47.948 322.089 48.268C322.201 48.58 322.389 48.824 322.653 49C322.917 49.168 323.277 49.252 323.733 49.252C324.117 49.252 324.449 49.184 324.729 49.048C325.017 48.912 325.257 48.728 325.449 48.496C325.649 48.264 325.797 48.008 325.893 47.728L326.457 49.444H325.833C325.705 49.972 325.493 50.452 325.197 50.884C324.909 51.316 324.509 51.656 323.997 51.904C323.493 52.152 322.845 52.276 322.053 52.276C321.181 52.276 320.461 52.108 319.893 51.772C319.333 51.428 318.917 50.92 318.645 50.248C318.381 49.576 318.249 48.736 318.249 47.728V40.204ZM325.833 40.204H329.505V52H325.857L325.977 49.048L325.833 48.712V40.204ZM336.737 52.264C335.689 52.264 334.853 52.108 334.229 51.796C333.613 51.476 333.169 51 332.897 50.368C332.625 49.736 332.489 48.956 332.489 48.028V41.44H336.137V47.44C336.137 48.016 336.265 48.44 336.521 48.712C336.785 48.976 337.273 49.108 337.985 49.108C338.377 49.108 338.765 49.064 339.149 48.976C339.533 48.888 339.881 48.776 340.193 48.64L339.881 51.676C339.473 51.852 339.001 51.992 338.465 52.096C337.937 52.208 337.361 52.264 336.737 52.264ZM339.761 43.132H330.905V40.252H340.085L339.761 43.132ZM336.029 40.516H332.537L332.525 37.468L336.161 37.12L336.029 40.516Z" fill="#154734"/>
<rect x="0.5" y="0.5" width="408" height="89" rx="4.5" stroke="#9747FF" stroke-dasharray="10 5"/>
</svg>
