<svg width="168" height="80" viewBox="0 0 168 80" fill="none" xmlns="http://www.w3.org/2000/svg">
<g clip-path="url(#clip0_86_447)">
<path fill-rule="evenodd" clip-rule="evenodd" d="M22.8571 30C22.0994 30 21.3727 30.301 20.8368 30.8368C20.301 31.3727 20 32.0994 20 32.8571C20 33.6149 20.301 34.3416 20.8368 34.8774C21.3727 35.4133 22.0994 35.7143 22.8571 35.7143H57.1429C57.9006 35.7143 58.6273 35.4133 59.1632 34.8774C59.699 34.3416 60 33.6149 60 32.8571C60 32.0994 59.699 31.3727 59.1632 30.8368C58.6273 30.301 57.9006 30 57.1429 30H22.8571ZM22.8571 44.2857C22.0994 44.2857 21.3727 44.5867 20.8368 45.1226C20.301 45.6584 20 46.3851 20 47.1429C20 47.9006 20.301 48.6273 20.8368 49.1632C21.3727 49.699 22.0994 50 22.8571 50H57.1429C57.9006 50 58.6273 49.699 59.1632 49.1632C59.699 48.6273 60 47.9006 60 47.1429C60 46.3851 59.699 45.6584 59.1632 45.1226C58.6273 44.5867 57.9006 44.2857 57.1429 44.2857H22.8571Z" fill="white"/>
</g>
<g clip-path="url(#clip1_86_447)">
<path fill-rule="evenodd" clip-rule="evenodd" d="M118 57.1429C118 57.9006 118.301 58.6273 118.837 59.1632C119.373 59.699 120.099 60 120.857 60C121.615 60 122.342 59.699 122.877 59.1632C123.413 58.6273 123.714 57.9006 123.714 57.1429V22.8571C123.714 22.0994 123.413 21.3727 122.877 20.8368C122.342 20.301 121.615 20 120.857 20C120.099 20 119.373 20.301 118.837 20.8368C118.301 21.3727 118 22.0994 118 22.8571V57.1429ZM132.286 57.1429C132.286 57.9006 132.587 58.6273 133.123 59.1632C133.658 59.699 134.385 60 135.143 60C135.901 60 136.627 59.699 137.163 59.1632C137.699 58.6273 138 57.9006 138 57.1429V22.8571C138 22.0994 137.699 21.3727 137.163 20.8368C136.627 20.301 135.901 20 135.143 20C134.385 20 133.658 20.301 133.123 20.8368C132.587 21.3727 132.286 22.0994 132.286 22.8571V57.1429Z" fill="white"/>
</g>
<rect x="0.5" y="0.5" width="167" height="79" rx="4.5" stroke="#9747FF" stroke-dasharray="10 5"/>
<defs>
<clipPath id="clip0_86_447">
<rect width="40" height="40" fill="white" transform="translate(20 20)"/>
</clipPath>
<clipPath id="clip1_86_447">
<rect width="40" height="40" fill="white" transform="matrix(0 -1 1 0 108 60)"/>
</clipPath>
</defs>
</svg>
