<svg width="143" height="82" viewBox="0 0 143 82" fill="none" xmlns="http://www.w3.org/2000/svg">
<path d="M35.5 24C30.5371 24 26.0371 26.046 22.4275 28.473C18.8018 30.909 15.9346 33.825 14.1989 35.784L14.1829 35.799C13.4082 36.699 13 37.842 13 39C13 40.158 13.4082 41.298 14.1829 42.201L14.1989 42.216C15.9346 44.175 18.8018 47.091 22.4275 49.527C26.0371 51.96 30.5371 54 35.5 54C40.4628 54 44.9628 51.954 48.5725 49.53C52.1982 47.091 55.0653 44.175 56.801 42.216L56.8171 42.201C57.5917 41.301 58 40.161 58 39C58.0052 37.8388 57.5882 36.7103 56.8171 35.799L56.801 35.784C55.0653 33.825 52.1982 30.909 48.5725 28.473C44.9628 26.043 40.4628 24 35.5 24Z" fill="#888888" fill-opacity="0.5"/>
<path d="M28.2679 39C28.2679 39.8864 28.4549 40.7642 28.8184 41.5831C29.1818 42.4021 29.7146 43.1462 30.3861 43.773C31.0577 44.3998 31.855 44.897 32.7324 45.2362C33.6098 45.5754 34.5503 45.75 35.5 45.75C36.4498 45.75 37.3902 45.5754 38.2676 45.2362C39.1451 44.897 39.9423 44.3998 40.6139 43.773C41.2855 43.1462 41.8182 42.4021 42.1816 41.5831C42.5451 40.7642 42.7322 39.8864 42.7322 39C42.7322 38.1136 42.5451 37.2358 42.1816 36.4169C41.8182 35.5979 41.2855 34.8538 40.6139 34.227C39.9423 33.6002 39.1451 33.103 38.2676 32.7638C37.3902 32.4246 36.4498 32.25 35.5 32.25C34.5503 32.25 33.6098 32.4246 32.7324 32.7638C31.855 33.103 31.0577 33.6002 30.3861 34.227C29.7146 34.8538 29.1818 35.5979 28.8184 36.4169C28.4549 37.2358 28.2679 38.1136 28.2679 39Z" fill="black" fill-opacity="0.5"/>
<path d="M107.45 25.9694C102.497 25.9694 98.0098 28.0132 94.405 30.4375C90.7904 32.8647 87.9292 35.775 86.1962 37.7313L86.1833 37.7464C85.4074 38.6491 85 39.7872 85 40.9435C85 42.0998 85.4074 43.2379 86.1833 44.1376L86.1962 44.1557C87.9292 46.109 90.7904 49.0193 94.4082 51.4526C98.0098 53.8768 102.494 55.9176 107.45 55.9176C112.407 55.9176 116.891 53.8768 120.496 51.4526C124.11 49.0193 126.972 46.109 128.704 44.1557L128.717 44.1376C129.493 43.2379 129.901 42.0998 129.901 40.9435C129.901 39.7872 129.493 38.6491 128.717 37.7494L128.704 37.7343C126.972 35.778 124.11 32.8677 120.493 30.4345C116.891 28.0132 112.407 25.9694 107.45 25.9694Z" fill="#888888" fill-opacity="0.5"/>
<path fill-rule="evenodd" clip-rule="evenodd" d="M85.6724 23.8078C85.244 23.3786 85.0109 22.8109 85.0219 22.2243C85.033 21.6377 85.2875 21.078 85.7318 20.6632C86.176 20.2483 86.7754 20.0107 87.4036 20.0004C88.0318 19.99 88.6397 20.2077 89.0994 20.6077L104.314 34.812C105.672 34.2066 107.197 34.0091 108.679 34.2466C110.162 34.4842 111.529 35.1451 112.593 36.1383C113.657 37.1316 114.364 38.4084 114.619 39.7928C114.873 41.1773 114.662 42.6014 114.013 43.8689L129.228 58.0792C129.466 58.2865 129.657 58.5365 129.79 58.8142C129.922 59.092 129.994 59.3918 129.999 59.6958C130.005 59.9998 129.945 60.3018 129.823 60.5838C129.701 60.8657 129.52 61.1218 129.29 61.3368C129.059 61.5518 128.785 61.7213 128.483 61.8352C128.181 61.9491 127.858 62.005 127.532 61.9996C127.207 61.9943 126.886 61.9277 126.588 61.804C126.291 61.6802 126.023 61.5018 125.801 61.2793L85.6724 23.8078Z" fill="black" fill-opacity="0.5"/>
<rect x="0.5" y="0.5" width="142" height="81" rx="4.5" stroke="#9747FF" stroke-dasharray="10 5"/>
</svg>
