<svg width="234" height="120" viewBox="0 0 234 120" fill="none" xmlns="http://www.w3.org/2000/svg">
<g clip-path="url(#clip0_73_233)">
<path d="M20 60C20 70.6087 24.2143 80.7828 31.7157 88.2843C39.2172 95.7857 49.3913 100 60 100C70.6087 100 80.7828 95.7857 88.2843 88.2843C95.7857 80.7828 100 70.6087 100 60C100 49.3913 95.7857 39.2172 88.2843 31.7157C80.7828 24.2143 70.6087 20 60 20C49.3913 20 39.2172 24.2143 31.7157 31.7157C24.2143 39.2172 20 49.3913 20 60Z" fill="#808080"/>
<path d="M45.7141 48.5714C45.7141 52.3602 47.2192 55.9939 49.8983 58.6729C52.5774 61.352 56.211 62.8571 59.9998 62.8571C63.7886 62.8571 67.4223 61.352 70.1014 58.6729C72.7804 55.9939 74.2855 52.3602 74.2855 48.5714C74.2855 44.7826 72.7804 41.149 70.1014 38.4699C67.4223 35.7908 63.7886 34.2857 59.9998 34.2857C56.211 34.2857 52.5774 35.7908 49.8983 38.4699C47.2192 41.149 45.7141 44.7826 45.7141 48.5714Z" fill="white"/>
<path d="M84.2458 80C81.2999 76.4221 77.5976 73.5414 73.4053 71.5653C69.2129 69.5892 64.6348 68.5667 60.0001 68.5714C55.3654 68.5667 50.7873 69.5892 46.595 71.5653C42.4027 73.5414 38.7004 76.4221 35.7544 80C38.7004 83.5779 42.4027 86.4586 46.595 88.4347C50.7873 90.4108 55.3654 91.4333 60.0001 91.4286C64.6348 91.4333 69.2129 90.4108 73.4053 88.4347C77.5976 86.4586 81.2999 83.5779 84.2458 80Z" fill="white"/>
</g>
<g clip-path="url(#clip1_73_233)">
<path d="M159.714 48.5714C159.714 52.3602 161.219 55.9939 163.898 58.6729C166.577 61.352 170.211 62.8571 174 62.8571C177.789 62.8571 181.422 61.352 184.101 58.6729C186.78 55.9939 188.286 52.3602 188.286 48.5714C188.286 44.7826 186.78 41.149 184.101 38.4699C181.422 35.7908 177.789 34.2857 174 34.2857C170.211 34.2857 166.577 35.7908 163.898 38.4699C161.219 41.149 159.714 44.7826 159.714 48.5714Z" fill="#154734"/>
<path d="M198.246 80C195.3 76.4221 191.598 73.5414 187.405 71.5653C183.213 69.5892 178.635 68.5667 174 68.5714C169.365 68.5667 164.787 69.5892 160.595 71.5653C156.403 73.5414 152.7 76.4221 149.754 80C152.7 83.5779 156.403 86.4586 160.595 88.4347C164.787 90.4108 169.365 91.4333 174 91.4286C178.635 91.4333 183.213 90.4108 187.405 88.4347C191.598 86.4586 195.3 83.5779 198.246 80Z" fill="#154734"/>
</g>
<rect x="0.5" y="0.5" width="233" height="119" rx="4.5" stroke="#9747FF" stroke-dasharray="10 5"/>
<defs>
<clipPath id="clip0_73_233">
<rect width="80" height="80" fill="white" transform="translate(20 20)"/>
</clipPath>
<clipPath id="clip1_73_233">
<rect width="80" height="80" fill="white" transform="translate(134 20)"/>
</clipPath>
</defs>
</svg>
