<svg width="138" height="80" viewBox="0 0 138 80" fill="none" xmlns="http://www.w3.org/2000/svg">
<path fill-rule="evenodd" clip-rule="evenodd" d="M79.9714 44.4907L83.3857 45.9316L85.9686 50.8922L85.4143 54.8445C85.3317 55.5036 85.431 56.1746 85.6997 56.772C85.9683 57.3695 86.3941 57.8663 86.9229 58.1993L89.0771 59.5375C89.6136 59.8811 90.2331 60.0394 90.8539 59.9917C91.4746 59.9439 92.0675 59.6922 92.5543 59.2698L95.4143 56.7584H100.586L103.446 59.2014C103.932 59.6237 104.525 59.8754 105.146 59.9232C105.767 59.971 106.386 59.8126 106.923 59.469L109.077 58.1308C109.606 57.7978 110.032 57.301 110.3 56.7036C110.569 56.1061 110.668 55.4352 110.586 54.776L110.031 50.8237L112.614 45.9285L116.031 44.4876C116.609 44.2451 117.106 43.8182 117.457 43.263C117.809 42.7077 117.998 42.0498 118 41.3755V38.5591C117.999 37.8834 117.81 37.2239 117.458 36.6674C117.106 36.1108 116.608 35.6833 116.029 35.4408L112.614 34L110.031 29.1078L110.586 25.1555C110.668 24.4964 110.569 23.8254 110.3 23.228C110.032 22.6305 109.606 22.1337 109.077 21.8007L106.923 20.4625C106.386 20.1189 105.767 19.9606 105.146 20.0083C104.525 20.0561 103.932 20.3078 103.446 20.7302L100.586 23.2416H95.4143L92.5543 20.7955C92.0675 20.3732 91.4746 20.1215 90.8539 20.0737C90.2331 20.0259 89.6136 20.1843 89.0771 20.5279L86.9229 21.8661C86.3939 22.1987 85.9679 22.6955 85.6992 23.293C85.4305 23.8905 85.3313 24.5617 85.4143 25.2209L85.9686 29.1732L83.3857 34.0684L79.9686 35.5093C79.3907 35.7524 78.8936 36.1798 78.5424 36.7356C78.1912 37.2914 78.0021 37.9497 78 38.6245V41.3755C78.0023 42.0506 78.1918 42.7092 78.5436 43.2651C78.8953 43.8209 79.393 44.2481 79.9714 44.4907ZM104.429 40C104.429 39.0805 104.262 38.1699 103.939 37.3204C103.616 36.4709 103.143 35.699 102.546 35.0488C101.949 34.3985 101.24 33.8828 100.46 33.5309C99.6802 33.179 98.8442 32.9979 98 32.9979C97.1558 32.9979 96.3198 33.179 95.5399 33.5309C94.7599 33.8828 94.0513 34.3985 93.4543 35.0488C92.8574 35.699 92.3838 36.4709 92.0608 37.3204C91.7377 38.1699 91.5714 39.0805 91.5714 40C91.5714 41.8571 92.2487 43.6381 93.4543 44.9512C94.6599 46.2644 96.295 47.0021 98 47.0021C99.705 47.0021 101.34 46.2644 102.546 44.9512C103.751 43.6381 104.429 41.8571 104.429 40Z" fill="white"/>
<path fill-rule="evenodd" clip-rule="evenodd" d="M35.5093 21.9714L34.0684 25.3857L29.1078 27.9686L25.1555 27.4143C24.4964 27.3317 23.8254 27.431 23.228 27.6997C22.6305 27.9683 22.1337 28.3941 21.8007 28.9229L20.4625 31.0771C20.1189 31.6136 19.9606 32.2331 20.0083 32.8539C20.0561 33.4746 20.3078 34.0675 20.7302 34.5543L23.2416 37.4143V42.5857L20.7986 45.4457C20.3763 45.9325 20.1246 46.5254 20.0768 47.1461C20.029 47.7669 20.1874 48.3864 20.531 48.9229L21.8692 51.0771C22.2022 51.6059 22.699 52.0317 23.2964 52.3003C23.8939 52.569 24.5648 52.6683 25.224 52.5857L29.1763 52.0314L34.0715 54.6143L35.5124 58.0314C35.7549 58.6091 36.1818 59.1061 36.737 59.4573C37.2923 59.8085 37.9502 59.9977 38.6245 60H41.4409C42.1166 59.9986 42.7761 59.8096 43.3326 59.4577C43.8892 59.1059 44.3167 58.6077 44.5592 58.0286L46 54.6143L50.8922 52.0314L54.8445 52.5857C55.5036 52.6683 56.1746 52.569 56.772 52.3003C57.3695 52.0317 57.8663 51.6059 58.1993 51.0771L59.5375 48.9229C59.8811 48.3864 60.0394 47.7669 59.9917 47.1461C59.9439 46.5254 59.6922 45.9325 59.2698 45.4457L56.7584 42.5857V37.4143L59.2045 34.5543C59.6268 34.0675 59.8785 33.4746 59.9263 32.8539C59.9741 32.2331 59.8157 31.6136 59.4721 31.0771L58.1339 28.9229C57.8013 28.3939 57.3045 27.9679 56.707 27.6992C56.1095 27.4305 55.4383 27.3313 54.7791 27.4143L50.8268 27.9686L45.9316 25.3857L44.4907 21.9686C44.2476 21.3907 43.8202 20.8936 43.2644 20.5424C42.7086 20.1912 42.0503 20.0021 41.3755 20H38.6245C37.9494 20.0023 37.2908 20.1918 36.7349 20.5436C36.1791 20.8953 35.7519 21.393 35.5093 21.9714ZM40 46.4286C40.9195 46.4286 41.8301 46.2623 42.6796 45.9392C43.5291 45.6162 44.301 45.1426 44.9512 44.5457C45.6015 43.9487 46.1172 43.2401 46.4691 42.4601C46.821 41.6802 47.0021 40.8442 47.0021 40C47.0021 39.1558 46.821 38.3198 46.4691 37.5399C46.1172 36.7599 45.6015 36.0513 44.9512 35.4543C44.301 34.8574 43.5291 34.3838 42.6796 34.0608C41.8301 33.7377 40.9195 33.5714 40 33.5714C38.1429 33.5714 36.3619 34.2487 35.0488 35.4543C33.7356 36.6599 32.9979 38.295 32.9979 40C32.9979 41.705 33.7356 43.3401 35.0488 44.5457C36.3619 45.7513 38.1429 46.4286 40 46.4286Z" fill="white"/>
<rect x="0.5" y="0.5" width="137" height="79" rx="4.5" stroke="#9747FF" stroke-dasharray="10 5"/>
</svg>
